<svg id="Layer_1" data-name="Layer 1" xmlns="http://www.w3.org/2000/svg" viewBox="0 0 800 800"><defs><style>.cls-1{fill:#fff;}.cls-2{fill:#00b140;}</style></defs><title>ATX-Logo</title><g id="Badge_Full-Color"><path id="BASE" d="M653.09,36.73H122.86V488.88a278.5,278.5,0,1,0,557,0V36.73Z"/><path id="AUSTIN" class="cls-1" d="M315.19,98.65h15.17v72.66a14,14,0,0,1-14,14H287.73a13.74,13.74,0,0,1-13.83-14V98.65h15.17V168a3.4,3.4,0,0,0,3.5,3.37h19.12a3.4,3.4,0,0,0,3.5-3.37ZM249.38,112.6v72.67H234.21V156.86H208.09v28.41H192.92V112.6a14,14,0,0,1,14-14h28.67A13.74,13.74,0,0,1,249.38,112.6Zm-15.17,3.31a3.4,3.4,0,0,0-3.5-3.37H211.59a3.4,3.4,0,0,0-3.5,3.37v25.78h26.12Zm195.84-3.37h21.88v72.73H467.1V112.54H489V98.65H430.05Zm78.5,72.73h15.17V98.64H508.55ZM398.14,136.75c-4.9-1.41-9.24-2.52-13.45-3.6-3.75-1-7.29-1.86-10.92-2.91-1.66-.44-3.46-1.66-3.46-3.75V115.91a3.4,3.4,0,0,1,3.5-3.37h18.61a3.4,3.4,0,0,1,3.5,3.37v7.26h15.17V112.6a14,14,0,0,0-13.95-14H369a13.74,13.74,0,0,0-13.82,14v17.46c0,8.57,7.76,11.93,13.59,13.7,5.56,1.66,9.58,2.7,13.83,3.81,3.12.81,6.24,1.61,10.16,2.7,3,.75,3.46,2.59,3.46,3.62V168a3.4,3.4,0,0,1-3.5,3.37H373.55a3.4,3.4,0,0,1-3.5-3.37v-7.09H354.88v10.4a14,14,0,0,0,14,14h28.68a13.75,13.75,0,0,0,13.83-14V150.45C411.35,143.82,406.9,139.21,398.14,136.75Zm197-38.11v42l-32.21-42H548.24v86.63H562.9V127.21l32.24,41.88v16.18H609.8V98.64Z"/><path id="TREE" class="cls-2" d="M290.16,577.72H276.43V528.66a11.49,11.49,0,0,1,11.47-11.47h32.62V530H291.31a1.08,1.08,0,0,0-1.15,1v14.73h30.36v13.73H290.16ZM482.3,528.66v37.59a11.49,11.49,0,0,0,11.47,11.47h32.62V564.91H497.17a1.08,1.08,0,0,1-1.15-1V531.05a1.08,1.08,0,0,1,1.15-1h29.22V517.19H493.77A11.49,11.49,0,0,0,482.3,528.66Zm104.17-62.13-.13,1.12,1.12-.14a36.68,36.68,0,0,0,31.73-32.32l.12-1.12-1.11.14a36.71,36.71,0,0,0-31.73,32.32Zm-48.72-56.39a37.54,37.54,0,0,0-5.34,3.2,36.45,36.45,0,0,0-7.18,6.75,36.83,36.83,0,0,0-8.1,22.54v1.13l1.09-.26a36.69,36.69,0,0,0,28.4-35.28l0-1.13-1.1.26A36.83,36.83,0,0,0,537.75,410.14ZM462.1,388.51l-.27-1.09-1,.53a36.63,36.63,0,0,0-18.52,40.48c.07.31.12.63.2.94l.28,1.09,1-.53a35.88,35.88,0,0,0,4.41-2.77,36.55,36.55,0,0,0,14.17-37.42C462.27,389.33,462.21,388.92,462.1,388.51ZM549,358.41l1.11-.19a36.66,36.66,0,0,0,30.48-33.5l.08-1.12-1.11.18a36.69,36.69,0,0,0-30.48,33.5ZM473.66,338l.23,1.1,1-.49a36.67,36.67,0,0,0,20-40.62l-.24-1.11-1,.49a36.69,36.69,0,0,0-20,40.63Zm-72.36,2.32,0-.06.05.06.69-.89a36.66,36.66,0,0,0,0-45.29l-.7-.89,0,0,0,0-.7.89a36.7,36.7,0,0,0,0,45.29ZM193.78,456.83a36.88,36.88,0,0,0,21.44,10.68l1.12.14-.12-1.12a36.74,36.74,0,0,0-31.73-32.32l-1.12-.14.13,1.12A36.83,36.83,0,0,0,193.78,456.83Zm83.67-36.74a36.67,36.67,0,0,0-7.17-6.75,37.09,37.09,0,0,0-5.35-3.2,36.55,36.55,0,0,0-7.77-2.79l-1.1-.26v1.13a36.69,36.69,0,0,0,28.4,35.28l1.1.26,0-1.13A36.83,36.83,0,0,0,277.45,420.09ZM341.85,388l-1-.53-.28,1.09c-.1.41-.17.82-.26,1.23a36.74,36.74,0,0,0,18.58,40.19l1,.53.28-1.09c.07-.31.12-.63.19-.94A36.6,36.6,0,0,0,341.85,388ZM231.57,346.74a36.88,36.88,0,0,0,21,11.48l1.12.19-.09-1.13a36.69,36.69,0,0,0-30.48-33.5L222,323.6l.08,1.12A36.86,36.86,0,0,0,231.57,346.74Zm96.2-8.13,1,.49L329,338a36.7,36.7,0,0,0-20-40.63l-1-.49-.23,1.11a36.68,36.68,0,0,0,20,40.62Zm-86.11,57.14c52.25,0,68.37-23.06,106.15-23.06,11.52,0,22.08,4.19,31,11.51A142.4,142.4,0,0,1,393,366.51c-10.66-13.68-19.62-27.09-19.62-49,0-25.13,11.92-39,18.23-45.83l-10.8-17.1A96.15,96.15,0,0,0,359,288.4c-9.67-14.14-26.66-19.9-31-19.9v20.21c9.8,0,23.93,15,26,36.23a97.22,97.22,0,0,0,8.15,30.64,51.5,51.5,0,0,0-16.75-3.11c-19.83,0-40,8.78-40,8.78-10.78-42.48-28.36-59.2-58.83-66.53V314.9c17.4,5,30.22,16.71,39.61,52.94,0,0-19.07,7.78-37,7.78-12.62,0-24-2.69-33.7-15.93L196.79,367S205.63,395.75,241.66,395.75ZM143.27,57.14H659.45V488.88C659.45,631.19,543.67,747,401.36,747S143.27,631.19,143.27,488.88ZM373.71,586.43c-21.88,40.25-65.82,89.89-130.06,90.25a245.73,245.73,0,0,0,63.24,38.63C323.54,704.33,369.62,662.48,373.71,586.43Zm185.36,90.25c-64.24-.36-108.18-50-130.06-90.25,4.09,76.05,50.18,117.9,66.82,128.88A245.56,245.56,0,0,0,559.07,676.68ZM156,214.15H646.73V69.87H156Zm0,274.73a244.07,244.07,0,0,0,46,142.84c105.53,0,171.6-34.11,171.6-123.51,0-32.42-16.73-38.1-36.55-38.1-41.63,0-78.13,36.78-111.42,36.78-22.25,0-37.6-9.29-46.34-13.32l8.39-18.25s19.12,11.33,34.33,11.33c16.15,0,32.44-10.52,32.44-10.52a62.5,62.5,0,0,1-22.66-19.05c-6.2-8.35-10.51-21.2-12.11-31.94h20.22c2.72,12.64,11.35,36.52,37.67,36.55,8.89,0,27.71-9.66,38.2-9.66-14.86-18.26-21.79-48.5-21.79-48.5s8.73-3.21,18.91-7.16c17.81,64.74,31.9,35.82,61.63,62.78h0c0-83.13,54.77-87.41,54.77-141.66,0-25.13-11.91-39-18.22-45.83l10.8-17.1a96.15,96.15,0,0,1,21.82,33.85c9.66-14.14,26.65-19.9,31-19.9v20.21c-9.81,0-23.94,15-26,36.23a97.22,97.22,0,0,1-8.15,30.64,51.42,51.42,0,0,1,16.75-3.11c19.83,0,40,8.78,40,8.78,10.78-42.48,28.36-59.2,58.84-66.53V314.9c-17.4,5-30.22,16.71-39.61,52.94,0,0,19.06,7.78,37,7.78,12.63,0,24-2.69,33.7-15.93L605.89,367s-8.83,28.73-44.86,28.73c-52.26,0-68.38-23.06-106.15-23.06-24.63,0-60.1,20.92-60.1,93.36v26.73s-.42,73.69-.42,76.07C394.36,650.68,378,708,369,732.11a246.27,246.27,0,0,0,64.64,0c-9-24.08-25.32-81.43-25.32-163.26,0-2.38-.42-76.07-.42-76.07,0-11.32,0-18.87,0-26.73,0-38,12.6-53.45,12.6-53.45,7.84,18.84,7.57,42.68,7.57,46.61,29.78-27.07,43.83,2,61.67-62.84,4.94,1.93,18.9,7.16,18.9,7.16S501.83,433.77,487,452c10.5,0,29.31,9.64,38.21,9.66,26.31,0,34.94-23.91,37.66-36.55h20.23c-1.6,10.74-5.91,23.59-12.11,31.94a62.57,62.57,0,0,1-22.67,19.05s16.29,10.52,32.45,10.52c15.21,0,34.32-11.33,34.32-11.33l8.39,18.25c-8.74,4-24.09,13.32-46.34,13.32-33.29,0-69.78-36.78-111.42-36.78-19.82,0-36.55,5.68-36.55,38.1,0,89.4,66.07,123.47,171.6,123.51a244,244,0,0,0,46-142.84v-262H156ZM692.59,24V488.88a291.23,291.23,0,1,1-582.46,0V24H692.59ZM679.86,36.73h-557V488.88a278.5,278.5,0,1,0,557,0V36.73Z"/></g></svg>