<svg id="Layer_1" data-name="Layer 1" xmlns="http://www.w3.org/2000/svg" viewBox="0 0 800 800"><defs><style>.cls-1{fill:#06134e;}.cls-2{fill:#c2002f;}.cls-3{fill:#ffb600;}</style></defs><title>CHI-Logo-New</title><g id="CHI-Logo-New"><path class="cls-1" d="M400,776.54c-84,0-163.06-46.14-216.92-126.59-45.73-68.3-70.91-157.07-70.91-250s25.18-181.65,70.91-249.95C236.94,69.6,316,23.46,400,23.46S563.06,69.6,616.92,150.05c45.73,68.3,70.91,157.07,70.91,250s-25.18,181.65-70.91,250C563.06,730.4,484,776.54,400,776.54Z"/><path class="cls-2" d="M400,764.81c-154.51,0-275.76-160.24-276-364.8-.28-204.25,121-364.5,276-364.82h.47C555,35.19,676,195.43,676,400S554.79,764.81,400,764.81Zm.46-722.22H400C249.09,42.91,131.09,199.9,131.36,400,131.64,600.41,249.64,757.41,400,757.41c150.64,0,268.64-157,268.64-357.41S550.84,42.59,400.46,42.59Z"/><polygon class="cls-2" points="400 404.02 290.6 404.02 290.6 535.08 351.82 422.2 400 612.59 448.18 422.2 509.4 535.08 509.4 404.02 400 404.02"/><polygon class="cls-3" points="400 395.53 290.6 395.53 290.6 264.46 351.82 377.34 400 186.95 448.18 377.34 509.4 264.46 509.4 395.53 400 395.53"/><path class="cls-3" d="M281.62,647.85,274,656.22l13.29,12-4.67,5.15-13.28-12-13.19,14.56-5.71-5.18,30.11-33.22,21.8,19.76-4.66,5.15Z"/><path class="cls-3" d="M298.81,708.41l-6.55-4,23.56-38.15,6.55,4Z"/><path class="cls-3" d="M343,709.84,334.72,707,329,723.39l-7.28-2.52,14.66-42.38L359,686.32c5.79,2,7.53,5.68,5.55,11.41l-3.12,9c-1.86,5.37-5.2,7.29-10.4,5.89l2.2,19.14-7.88-2.72Zm-6-9.43,16.53,5.72L358,693.3l-16.54-5.73Z"/><path class="cls-3" d="M409.18,730.13l-.21,7-29.49-.88,1.34-44.84,29.43.88-.21,7-21.72-.65L388,709.78l17.94.54-.21,6.94-17.93-.53-.39,12.75Z"/><path class="cls-3" d="M467.9,683.45l5.24,10L489,685.15l3.22,6.16-15.89,8.31,9.1,17.41-6.83,3.57-20.78-39.73,26.08-13.64,3.22,6.15Z"/><path class="cls-3" d="M521.82,684.18,503.41,664c-4.09-4.47-3.9-8.58.57-12.67l11-10.1c4.48-4.09,8.59-3.91,12.68.57l3.49,3.82-5.69,5.2-4.85-5.31-12.92,11.8,21.14,23.13,12.91-11.8-4.9-5.37,5.69-5.2,3.54,3.88c4.09,4.47,3.91,8.58-.57,12.67l-11,10.1C530,688.84,525.92,688.66,521.82,684.18Z"/><path class="cls-3" d="M262.17,170.61l-19.81-18.75c-4.41-4.17-4.52-8.28-.35-12.68l10.29-10.87c4.17-4.4,8.27-4.51,12.68-.35l3.76,3.56-5.3,5.6-5.23-5-12,12.7,22.74,21.54,12-12.71-5.27-5,5.29-5.59,3.81,3.6c4.4,4.17,4.51,8.27.35,12.68l-10.29,10.87C270.68,174.67,266.57,174.78,262.17,170.61Z"/><path class="cls-3" d="M310.78,137.64l-6.53,4.08-23.78-38L287,99.62,296.65,115l15.42-9.65L302.42,90,309,85.88l23.79,38L326.21,128l-10.46-16.71-15.42,9.65Z"/><path class="cls-3" d="M356.46,115.22l-7.3,2.46L334.81,75.19l7.3-2.47Z"/><path class="cls-3" d="M372.45,101.41,370.39,74.2c-.45-6,2.22-9.16,8.27-9.62l14.93-1.13c6-.45,9.16,2.23,9.62,8.27l.39,5.17-7.69.58-.54-7.18-17.45,1.32,2.36,31.24,17.45-1.32-.55-7.25,7.69-.58.39,5.23c.46,6-2.22,9.16-8.26,9.62l-14.93,1.13C376,110.14,372.91,107.46,372.45,101.41Z"/><path class="cls-3" d="M464.05,83.11,454.61,118l-7.44-2,4.36-16.09L434.64,95.3l-4.36,16.09-7.43-2,9.44-34.87c1.6-5.91,5.09-7.91,11-6.31l14.45,3.91C463.59,73.69,465.65,77.19,464.05,83.11Zm-10.7,10,3.79-14-16.88-4.57-3.8,14Z"/><path class="cls-3" d="M474.77,117.72l14.85-22.89c3.3-5.09,7.32-5.94,12.41-2.64l12.55,8.15c5.09,3.3,5.95,7.32,2.65,12.4l-2,3.08-6.46-4.2,3.09-4.77-14.68-9.52-17.05,26.28,14.68,9.52,6.05-9.32-6.78-4.4,3.78-5.83,13.25,8.59-8.73,13.46c-3.3,5.09-7.32,6-12.41,2.65l-12.56-8.15C472.33,126.83,471.47,122.81,474.77,117.72Z"/><path class="cls-3" d="M517.05,148.26,537,129.64c4.43-4.14,8.53-4,12.67.44L559.87,141c4.14,4.43,4,8.53-.43,12.67L539.5,172.31c-4.43,4.13-8.54,4-12.67-.44l-10.22-10.94C512.48,156.5,512.62,152.4,517.05,148.26Zm15.72,19.8,22.89-21.38L543.72,133.9l-22.89,21.37Z"/><path class="cls-2" d="M400,670.72c-31.67,0-78.4-11.9-121.15-68.63-39.1-51.88-60.69-123.7-60.8-202.21-.2-149,81.5-270.39,182.14-270.6h.27c60.25,0,101.61,43,120.91,68.65C560.43,249.85,582,321.61,582,400S560.4,550.18,521.27,602.07C501.93,627.71,460.46,670.72,400,670.72Zm.2-534c-96.55.2-174.94,118.27-174.75,263.19.11,76.92,21.17,147.15,59.31,197.76C325.68,651.92,370,663.32,400,663.32c57.25,0,96.85-41.17,115.36-65.71C553.53,547,574.55,476.82,574.55,400s-21-147-59.1-197.61c-18.47-24.54-58-65.71-115-65.71Z"/></g></svg>