<svg id="Layer_1" data-name="Layer 1" xmlns="http://www.w3.org/2000/svg" viewBox="0 0 800 800"><defs><style>.cls-1{fill:#fff;}.cls-1,.cls-2,.cls-4,.cls-5{fill-rule:evenodd;}.cls-2,.cls-3{fill:#041e42;}.cls-4{fill:#003087;}.cls-5{fill:#fe5000;}</style></defs><title>CIN-Logo</title><path class="cls-1" d="M668.59,94.74c19.89,56.39,63.25,209.24,60.92,344.88C655.39,562.67,528.72,671,400,740.07,271.3,671,144.62,562.67,70.5,439.62c-2.33-135.64,41-288.49,60.91-344.88C302.1,46.43,499.29,46.43,668.59,94.74Z"/><path class="cls-2" d="M668.59,94.74c19.89,56.39,63.25,209.24,60.92,344.88C655.39,562.67,528.72,671,400,740.07,271.3,671,144.62,562.67,70.5,439.62c-2.33-135.64,41-288.49,60.91-344.88C302.1,46.43,499.29,46.43,668.59,94.74ZM120.84,83.37c184.69-52,365.45-52,558.31,0,22.31,60.29,67.28,221.88,64.09,360.12-79,137-230.87,254.3-343.24,312.16C287.63,697.77,135.73,580.47,56.76,443.47,53.57,305.23,98.53,143.65,120.84,83.37Z"/><polygon class="cls-3" points="259.38 384.54 245.97 344.97 229.75 354.26 229.75 442.4 245.8 433.21 245.8 389.87 258.69 425.83 275.21 416.37 275.21 328.22 259.38 337.29 259.38 384.54"/><polygon class="cls-3" points="627.44 126.47 627.44 214.61 645.29 204.39 645.29 116.25 627.44 126.47"/><path class="cls-3" d="M314.68,303.44c-13,7.46-21.78,21.79-21.74,30.54v49.3c0,9,8.63,17.79,22.18,11.3,21.67-10.38,21.2-21.46,21.16-30.21V352.09l-17.76,10.17v12.41l-7.81,4.47V324.69l7.81-4.47v17.26l17.76-10.09V309.3C336.24,300.55,327.53,296.08,314.68,303.44Z"/><path class="cls-3" d="M154.44,395.22c-13,7.47-21.78,21.79-21.74,30.54v49.31c0,9,8.63,17.78,22.18,11.29C176.56,476,176.09,464.9,176,456.15V443.87L158.28,454v12.42l-7.8,4.47V416.47l7.8-4.47v17.27L176,419.17V401.09C176,392.34,167.29,387.86,154.44,395.22Z"/><polygon class="cls-3" points="352.92 371.9 370.77 361.68 370.77 273.54 352.92 283.76 352.92 371.9"/><polygon class="cls-3" points="192.69 463.63 210.54 453.41 210.54 365.27 192.69 375.49 192.69 463.63"/><polygon class="cls-3" points="568.13 177.31 580.36 170.31 580.36 241.6 598.21 231.38 598.21 160.08 610.44 153.08 610.44 136.21 568.13 160.44 568.13 177.31"/><polygon class="cls-3" points="419.62 292.82 406.2 253.25 389.99 262.54 389.99 350.65 406.03 341.46 406.03 298.16 418.93 334.08 435.44 324.62 435.44 236.5 419.62 245.57 419.62 292.82"/><polygon class="cls-3" points="483.94 255.92 470.52 216.36 454.31 225.64 454.31 313.75 470.36 304.57 470.36 261.26 483.25 297.18 499.77 287.72 499.77 199.61 483.94 208.67 483.94 255.92"/><path class="cls-3" d="M527.8,183.73l-11.51,94.49,17.48-10L535,252.54l10.2-6.06L547,260.65l17.17-9.83-13.54-80.36Zm7.5,52.81,4.79-34.24,3.29,29.25Z"/><path class="cls-4" d="M586.3,105.46,101.59,383.07c6.91-101.52,34.18-207,52.78-263.94C303.47,79.75,456.4,81.12,586.3,105.46Zm-373.73,56v19.66H224.5v16H212.57V236l-19.88,11.45V146.16H231.8V161.5Zm77.66,34.39v22c0,8.76-9.4,18.05-23.77,18.05-14.58,0-24.41-9.29-24.41-18.05V162.58c0-8.75,9.83-18,24.41-18,14.37,0,23.77,9.29,23.77,18v7.13L270.57,181V158.89l-8.42,4.83v57.93l8.42-4.82v-9.68Z"/><path class="cls-5" d="M165.71,518.31,674.66,226.82c14,62.65,25.61,135.83,25.36,204.33-75.21,121-191.15,212.31-300,275.18C292.06,643.46,225.42,586,165.71,518.31ZM519.31,441a36.52,36.52,0,0,0,13.48-6.92s.7,9.15-3.88,17A46,46,0,0,0,519.31,441ZM418.21,449l15.47-8.85s-7.72-1.87-13.07-7.3L462,409.1l-4.81-6.64h63.77l3.94,6.69s10.57,2.48,16.6,8.44l-9.79,1.52,4.84,5.45c-3.66,4.55-13.21,10.52-22.32,12.37a93.1,93.1,0,0,0-13.73-7.68l15.3-8.77s-8.86-5.48-29.52-11.27A128.49,128.49,0,0,1,502.19,421l-13.31,7.62s23.4,10.73,36.23,33.78l-15.5.34s-17.94,33.2-46.43,52V495.92s-18.64-2-29.24-10.15l10.39-6.2s-11.85-1.85-22.53-13l13.61-7.72S427.2,457.8,418.21,449Zm88-42a18.73,18.73,0,0,0,15.07,6.64l-4.19-6.21ZM348.57,567.27l1.53,13.54c-9.15,6.05-33.05,19.71-52.13,10.37-14.32-7-17.46-27.18-6.73-44.3,12.47-19.86,32.55-20.27,43.63-13,0,0-2.09,13.17-15.95,21.61l2.95-11.79c-6.75-3.41-15.5-.33-20.5,7.87-6.72,11-4.79,23.71,4.3,28.3C320.72,587.49,348.57,567.27,348.57,567.27Zm240.71-55.48s9.65,0,10.37,8.42c-4.85-2.25-8.44-.72-8.44-.72a54.54,54.54,0,0,1-24.53,2.72l-20.48,21.9a84.94,84.94,0,0,0,1.5,9.94c-14.2-4.95-26.78-12.65-34.83-18.24l7.27,13s-5.57,14.24-35.51,33.35l-1.2-12.87s-29.93-18.77-48.09-15.06c-17.16,31.29-47.58,27.37-47.58,27.37l-8.42,30.07s28.38,3.85,22.76,26.64l-7.78-4.64s.73,6-4.46,8.85l-6.32-8.73c2.41,7.22-9.35,10.17-9.35,10.17s-.59-7.85-3-11l-9.12-11.27-8.57-71.06,10.79,4.54c25.8-21.45,35.81-48.66,35.81-48.66s36.72,18.63,62.88,15.71c5.5-.78,34.22-20.85,50.9-53l13.14-.29s10.25,15.51,13.1,33.59l-9.39-1.76a77.5,77.5,0,0,1,5.33,15.51l24.3-14.1c14.5-8.51,35.24-10.14,38.29-1.52,0,0-6.78-.53-8.42,2.56,0,0,9.23-.67,10.13,7C600.37,510.23,592.55,508,589.28,511.79ZM457.68,625.86l-5.88-4.32c1.17,4.58-2.57,7.5-2.57,7.5a27.84,27.84,0,0,0-5.73-6.6c.17,4.39-6.25,8-6.25,8a15.38,15.38,0,0,0-3.9-7.32l-8.11-7.74L402.9,585.48c24.33-1.41,37.17-25.3,37.17-25.3,31.71,30.15-7.67,37-7.67,37l2.43,10.73S461.5,605.9,457.68,625.86ZM534.57,466.8c4.33,5.84,9.73,19.11,12.77,33.47L559,482.07l3.86,8.83c7.64-14,14.86-26.94,18.67-33.75a12.85,12.85,0,0,0,5.15,1.35v5a10.07,10.07,0,0,0-.83,4,12.75,12.75,0,0,0,4.62,4.23,12.75,12.75,0,0,0,4.62-4.23,10.21,10.21,0,0,0-.85-4v-5c1.48-.24,3.1-.73,4.88-1.21,2.36-5.87,1.32-14.54,1.32-14.54a18,18,0,0,0,3.38-6c-2-2.16-5.36-3.57-9.6-4.22V432l10.89-6.63v-7.27l-6.87,4.18-.05-90.1-7.81-8.33-7.81,7.86.06,90.61-7.51-4.58v7.63l11.09,6.16,0,.61c-4,0-7.36.71-9.57,2.39a15.84,15.84,0,0,0,2.42,6.82ZM382.89,485.61l-32,18.06c7.1,4.94,29,1.55,44.93-7.1,0,0,34.64,18.84,60.54,19,0,0-.08-14.3-.08-14.3-47.81-11.36-61.8-45-70.93-68.76l-95.51,54.6c12.34,10,48.94-8.25,78-24.06.65,1.29,1.39,2.72,2.23,4.23l-50.56,29c12.59,9.74,38.13-4.2,60.2-14.34C380.67,483.16,381.79,484.4,382.89,485.61ZM517.22,383.86a16.06,16.06,0,0,0-5.85-5.35,16.15,16.15,0,0,0-5.84,5.36,22.18,22.18,0,0,0,1.06,6.09H499.9a34.34,34.34,0,0,0,1.47-9.1,26.18,26.18,0,0,0-9.55-8.72,26.25,26.25,0,0,0-9.53,8.74,33.66,33.66,0,0,0,1.49,9.1H477.1a21.77,21.77,0,0,0,1.06-6.09,16.08,16.08,0,0,0-5.86-5.34,16.05,16.05,0,0,0-5.84,5.36,22,22,0,0,0,1.07,6.09h0v7.47l48.64-.06V390A21.94,21.94,0,0,0,517.22,383.86Z"/></svg>