<svg id="Layer_1" data-name="Layer 1" xmlns="http://www.w3.org/2000/svg" viewBox="0 0 800 800"><defs><style>.cls-1{fill:#fedd00;}.cls-2{fill:#fff;}</style></defs><title>CLB-Logo-New-Reversed</title><g id="CREST_FC" data-name="CREST FC"><g id="SHIELD"><polygon id="OUTLINE" class="cls-1" points="175.69 94.67 624.31 94.67 556.87 736.22 400 645.65 243.12 736.22 175.69 94.67"/><path id="FLAG" d="M195.74,112.73l62.43,593.95L400,624.8l141.82,81.88,62.43-593.95Z"/></g><g id="DETAIL"><path class="cls-2" d="M556.07,270.28,565,185.07,494.2,144.18H305.79L235,185.07l49.42,470.16L530.55,513.11l11-104.71-70.82-40.89-9.15,87.07-116.12,67L314.74,229.35H485.25l-9.15,87.07ZM464.55,633.42l-7.9-4.51,0-6.85,7.89-4.58.14,8,15.68-.09-.09-16.46L470,615.08l-13.3-7.55,0-23.77,7.89-4.59h15.82l8,4.52,0,45.15-8,4.59Zm.09-30.63,5.31,3,10.33-6.06,0-12.59-15.59.09Zm39.5,30.63-7.89-4.51-.05-45.15,7.89-4.59h15.82l8,4.52,0,6.84-8,4.58-.14-7.92-15.68.09.09,16.38,10.35-6.06,13.31,7.53,0,23.71-8,4.59Zm0-20.6.05,12.67,15.68-.09-.09-15.61-5.19-2.93Z"/><path class="cls-2" d="M491.74,800,474,789.84,456.48,800H446.19l-.09-66.23,10.29-6,.14,60.23L469,780.76l0-47,10.33-.09.09,47.16L491.78,788l-.13-60.07,10.48,5.8,0,66.31Zm-91.19,0-.09-70.69,31.74-.1,6,10.4-27.37.13.09,19.8,15.43-.09,6,10.39L410.8,770l.09,19.69,27.2-.09.09,10.43Zm-20.48,0L380,774.75l-8.17-4.69-12.28,7.1,0,22.75-10.33.09-.09-70.69,30.92-.1,10.4,5.9,0,24.12-8.36,4.85,8.32,4.61,0,31.31Zm-20.5-34.78L380,753.17l0-13.52-20.41.09ZM308.16,800l-10.29-5.9-.05-58.91,10.29-6,20.64,0,10.39,5.9.05,8.91-10.39,6-.14-10.33-20.5.09.09,49.92,20.5-.09-.09-10.25,10.48,5.8.05,8.91-10.42,6ZM573.32,72.18,563,66.28l0-8.9,10.29-6,.14,10.43,20.5-.09-.09-14.52L563,29.47l0-22.09,10.29-6h20.64L604.3,7.3l0,8.9-10.39,6-.13-10.33-20.5.09.09,11.58L604.3,41.18l0,25-10.41,6Zm-51.33,0-10.29-5.9,0-60.32,10.28-6,.14,61.85,20.5-.09L542.49.08,553,5.88l0,60.33-10.41,6Zm-61.57,0L460.33,1.5l30.92-.09L501.64,7.3l.05,21.58-8.36,4.85,8.31,4.61.05,27.87-10.41,6Zm10.29-25.37,0,15,20.5-.09-.09-17.36L483,39.74Zm0-11.94,20.46-11.95,0-11.08-20.41.09ZM439.92,72.18l-.09-58.71L427,21.05l0,51-10.33.09L416.61,21l-13-7.43.13,58.55-10.33.09L393.28,1.5l10.33-.09L421.81,12,439.88,1.42h10.39l.09,70.77Zm-87.63,0L342,66.28,342,6l10.29-6,.14,61.85,20.5-.09L372.79.08l10.48,5.8,0,60.33-10.41,6Zm-53.86,0L298.34,1.5l10.33-.09.09,60.44L336,61.76l-5.83,10.42Zm-41.09,0-10.29-5.9,0-58.9,10.29-6h20.63l10.4,5.89,0,58.91-10.41,6Zm.09-10.33,20.5-.09-.09-49.92-20.41.09ZM206,72.18l-10.29-5.9,0-58.9,10.29-6h20.64L237,7.3l0,8.9-10.39,6-.13-10.33-20.5.09.09,49.92,20.5-.09-.09-10.26L237,57.3l0,8.91-10.41,6Z"/></g></g></svg>