<svg id="Layer_1" data-name="Layer 1" xmlns="http://www.w3.org/2000/svg" viewBox="0 0 800 800"><defs><style>.cls-1{fill:#fff;}.cls-2{fill:#c1c5c8;}.cls-3{fill:#8ab7e9;}.cls-4{fill:#323e48;}.cls-5{fill:#8a2432;}</style></defs><title>COL-Logo</title><g id="COL-Logo"><polygon class="cls-1" points="526.33 167.15 400 67.84 273.67 167.15 400 81.38 526.33 167.15"/><polygon class="cls-1" points="332.07 638.97 400 720.51 467.92 638.97 400 702.27 332.07 638.97"/><path class="cls-1" d="M463.46,426.7,400,361.35,336.54,426.7,325,416.47l-56.34,58.14q4,6.76,8.2,13.26l53.38-63.12L341,435.69l59-69.88,59,69.88,10.79-10.94,53.37,63.12c2.78-4.34,5.5-8.75,8.2-13.26L475,416.47Z"/><path class="cls-1" d="M400,510a41.67,41.67,0,0,0,41.53-38.45l-2.51-1.4,1.89-9.51A41.67,41.67,0,0,0,416.53,430L400,442l-16.52-12a41.65,41.65,0,0,0-24.38,30.65l1.89,9.49-2.51,1.4A41.67,41.67,0,0,0,400,510Zm0-44.5,16.54,12-6.32,19.45H389.78l-6.31-19.45Z"/><path class="cls-1" d="M283.65,307l12.56-3.68c6.72-2,12.21-9.06,12.21-15.77V229.47c0-6.74-5.49-10.61-12.21-8.66l-12.56,3.68c-6.71,2-12.2,9.08-12.2,15.79V298.4C271.45,305.11,276.94,309,283.65,307Zm-1.18-68.24a5.65,5.65,0,0,1,3.9-5l7.12-2.09a2.83,2.83,0,0,1,3.91,2.77v54.63a5.7,5.7,0,0,1-3.91,5.08l-7.12,2.06a2.82,2.82,0,0,1-3.9-2.75Z"/><path class="cls-1" d="M388.53,277V218.86a11.21,11.21,0,0,0-12.21-11.29l-12.55,1a13.4,13.4,0,0,0-12.21,13.11v58.12a11.19,11.19,0,0,0,12.21,11.29l12.55-.95A13.46,13.46,0,0,0,388.53,277Zm-22,3.84a3.57,3.57,0,0,1-3.9-3.61V222.56a4.32,4.32,0,0,1,3.9-4.2l7.12-.54a3.58,3.58,0,0,1,3.91,3.6v54.66a4.27,4.27,0,0,1-3.91,4.19Z"/><path class="cls-1" d="M559.6,240.88l-12.55-5.36c-6.72-2.9-12.21.25-12.21,7V300.6c0,6.71,5.49,14.57,12.21,17.44l12.55,5.36c6.71,2.87,12.21-.29,12.21-7V258.29C571.81,251.57,566.31,243.72,559.6,240.88ZM560.8,310c0,2.14-1.76,3.16-3.91,2.23l-7.12-3a6.73,6.73,0,0,1-3.91-5.57V248.94c0-2.16,1.76-3.15,3.91-2.25l7.12,3.06a6.68,6.68,0,0,1,3.91,5.57Z"/><path class="cls-1" d="M261.69,243.86c0-6.71-5.5-9.84-12.21-6.92l-9.08,3.94c-6.72,2.89-12.21,10.76-12.21,17.48v58.11c0,6.71,5.49,9.84,12.21,6.93l9.08-3.94c6.71-2.89,12.21-10.77,12.21-17.48v-5.55l1.65-1.78v-1.12L249,299.72v1.14l1.65.34V305a6.8,6.8,0,0,1-3.9,5.6l-3.67,1.59c-2.14.93-3.9-.07-3.9-2.23V255.32a6.81,6.81,0,0,1,3.9-5.6l3.67-1.59c2.15-.92,3.9.07,3.9,2.23v7.1L249,259.23v1.14l14.32-6.21V253l-1.65-.33Z"/><polygon class="cls-1" points="343.45 281.79 342.32 281.98 341.27 283.83 329.19 286.01 329.19 215.71 330.85 214.36 330.85 213.22 316.52 215.83 316.52 216.97 318.17 217.7 318.17 295.86 316.52 297.21 316.52 298.35 343.45 293.46 343.45 281.79"/><path class="cls-1" d="M526.74,297.54V239.4c0-6.68-5.5-13.66-12.21-15.46l-26.4-7.07V218l1.64,1.49v78.18l-1.64.59v1.14l26.4,7.07C521.24,308.26,526.74,304.23,526.74,297.54Zm-14.92-1.82-11-3V230.3l11,2.94a5.48,5.48,0,0,1,3.9,5v54.65A2.91,2.91,0,0,1,511.82,295.72Z"/><path class="cls-1" d="M435.09,289.83l-2.44-1.66-9.09-31.07a11.66,11.66,0,0,0,8.23-11.2V220.5a12.85,12.85,0,0,0-12.21-12.69l-22.95-.93V208l1.66,1.12v78.15l-1.66,1v1.14l14.33.14v-1.14l-1.66-1.11V257.19l3.45.17,9.55,32.69,12.79.92Zm-14.32-46.11a3.72,3.72,0,0,1-3.91,3.75l-7.56-.29V217.44l7.56.31a4.08,4.08,0,0,1,3.91,4.05Z"/><path class="cls-1" d="M465.69,293.77v1.14l14.33,2.7v-1.14l-1.66-1.3V227a14.89,14.89,0,0,0-12.21-14.13l-9.09-1.45c-6.71-1.07-12.2,3.56-12.2,10.27v68.15l-1.66.78v1.14l14.32,1.82v-1.13l-1.65-1.31V263.53l11.47,1.82V293Zm-9.82-40.28V225.2a3.27,3.27,0,0,1,3.91-3.3l3.66.59a4.75,4.75,0,0,1,3.9,4.53v28.3Z"/><path class="cls-1" d="M423.54,317.8v-.57h-9.78v.57c.73,0,1.33.38,1.33.85v22.11c0,.45-.6.85-1.33.85v.57h9.78v-.57c-.74,0-1.33-.4-1.33-.85V318.65C422.21,318.18,422.8,317.8,423.54,317.8Z"/><path class="cls-1" d="M436.46,341.61v.57h16c6.89,0,12.48-4.2,12.48-12.47s-5.59-12.48-12.48-12.48h-16v.57c.74,0,1.33.38,1.33.85v22.11C437.79,341.21,437.2,341.61,436.46,341.61Zm8.45-18.78H451c3.81,0,6.88,1.85,6.88,6.88s-3.07,6.87-6.88,6.87h-6.07Z"/><path class="cls-1" d="M394.76,333.62a8.2,8.2,0,0,0,0-16.39H376.91v.57c.73,0,1.33.38,1.33.85v22.11c0,.45-.6.85-1.33.85v.57h9.78v-.57c-.73,0-1.33-.4-1.33-.85v-7.14Zm-9.4-10.79h7.87a2.6,2.6,0,1,1,0,5.19h-7.87Z"/><path class="cls-1" d="M326.28,325.41a8.18,8.18,0,0,0-8.2-8.18H299v.57c.74,0,1.33.38,1.33.85v22.11c0,.45-.59.85-1.33.85v.57h9.78v-.57c-.74,0-1.33-.4-1.33-.85v-7.14h4.78l5,7.14c.32.45,0,.85-.73.85v.57h9.77v-.57a2.66,2.66,0,0,1-1.92-.85l-5.1-7.21A8.23,8.23,0,0,0,326.28,325.41ZM316.56,328h-9.14v-5.19h9.14a2.6,2.6,0,1,1,0,5.19Z"/><path class="cls-1" d="M357.72,341.61v.57h8.64v-.64a1.62,1.62,0,0,1-1.13-.78l-8.42-22.11c-.19-.47.26-.85,1-.85v-.57H344.56v.57c.74,0,1.19.38,1,.85l-8.43,22.11a1.58,1.58,0,0,1-1.12.78v.64h8.64v-.57c-.74,0-1.19-.4-1-.85l1.59-4.18h11.89l1.59,4.18C358.91,341.21,358.45,341.61,357.72,341.61ZM346.61,333l4.57-12,4.58,12Z"/><path class="cls-1" d="M477.1,332.41l-3.5,8.44.57.15s.45-.62.94-.62c1.46,0,3.66,2,12.8,2,6.26,0,13.12-1.64,13.12-8.44,0-10.58-19.11-5.91-19.11-9.66,0-1.73,3-2.47,4.94-2.47,6.7,0,10.5,1.69,9.9,3l.57.28,3.27-6.64-.51-.19a1.48,1.48,0,0,1-1.28.74c-.91,0-6.2-2-11.95-2-6.2,0-12.07,2.8-12.07,7.33,0,10.58,19.12,5.39,19.12,9.66,0,2-2,2.84-6,2.84-9.13,0-10.86-2.92-10.32-4.17Z"/><path class="cls-2" d="M400,0,132.22,225.74C132.22,412.77,249.08,654,400,800,550.91,654,667.78,412.77,667.78,225.74Zm0,775.71c-144.69-146-249-369.34-251.78-542.88C159,223.75,381.65,36.05,400,20.56c18.36,15.49,241,203.19,251.78,212.27C649,406.37,544.7,629.71,400,775.71Z"/><path class="cls-2" d="M400,101.59,181,244.91c9,205.7,147,369.55,219,441.59,72-72,210-235.89,219-441.59Zm0,565.79c-61.82-62.1-175.66-197.89-201.57-368.75a470.3,470.3,0,0,1-4.93-50.14L400,113.14,606.51,248.49a475.55,475.55,0,0,1-4.93,50.14C575.66,469.49,461.81,605.28,400,667.38Z"/><path class="cls-2" d="M385.84,567.69c-2.5,0-4.53,1.37-4.53,3s2,3.06,4.53,3.06,4.52-1.35,4.52-3.06S388.34,567.69,385.84,567.69Z"/><path class="cls-2" d="M330.2,424.75l-53.38,63.12c37.57,58.66,81.37,102,123.17,132.33V548a63.11,63.11,0,0,1,0-126.21V365.81l-59,69.88Zm54.47,156.79c6.78,0,7.08-5.72,7.08-5.72A16.73,16.73,0,0,1,384,578c-4.53,0-8-3-8-7.24,0-4.88,5-7.21,9.83-7.21,7.69,0,11.42,4,11.42,11,0,7.14-6.2,11-12.59,11a22.12,22.12,0,0,1-7.52-1.28,1.38,1.38,0,0,0-.93.45l-.51-.22,3.25-5.5.42.19C379.17,580.19,380.29,581.54,384.67,581.54Z"/><path class="cls-3" d="M400,56.29,163.52,238.12C173.18,443,318.48,653,400,734.41,481.52,653,626.81,443,636.48,238.12Zm0,11.55,126.34,99.31L400,81.38,273.67,167.15Zm0,33.75L619,244.91c-9,205.7-147,369.55-219,441.59-72-72-210-235.89-218.95-441.59Zm0,618.92L332.07,639,400,702.27,467.92,639Z"/><path class="cls-3" d="M414.16,581.3c2.49,0,4.52-1.37,4.52-3.06s-2-3-4.52-3-4.53,1.35-4.53,3S411.66,581.3,414.16,581.3Z"/><path class="cls-3" d="M463.1,484.86A63.11,63.11,0,0,1,400,548V620.2c41.82-30.33,85.62-73.67,123.18-132.33L469.8,424.75,459,435.69l-59-69.88v55.93A63.11,63.11,0,0,1,463.1,484.86Zm-47.78,82.57c-6.77,0-7.07,5.71-7.07,5.71A16.83,16.83,0,0,1,416,571c4.54,0,8,3,8,7.21,0,4.89-5,7.24-9.82,7.24-7.68,0-11.43-4.06-11.43-11,0-7.17,6.21-11,12.59-11a22.12,22.12,0,0,1,7.52,1.28,1.42,1.42,0,0,0,.94-.45l.5.22-3.25,5.5-.41-.21C420.82,568.8,419.71,567.43,415.32,567.43Z"/><path class="cls-3" d="M454.72,478.38A54.72,54.72,0,1,0,400,533.13,54.72,54.72,0,0,0,454.72,478.38Zm-96.25-6.85-8,4.46c0-.45,0-.9,0-1.36a49.27,49.27,0,0,1,6.5-24.55l2.09,10.56A41.65,41.65,0,0,1,383.47,430l.75-2.3a49.91,49.91,0,0,1,31.56,0l.75,2.3a41.67,41.67,0,0,1,24.37,30.63L443,450.08a49.28,49.28,0,0,1,6.51,24.55c0,.46,0,.91,0,1.36l-8-4.46a41.65,41.65,0,0,1-83,0Z"/><path class="cls-4" d="M400,548a63.11,63.11,0,1,0-63.09-63.09A63.11,63.11,0,0,0,400,548Zm0-124.29a54.74,54.74,0,1,1-54.71,54.72A54.72,54.72,0,0,1,400,423.66Z"/><path class="cls-4" d="M531.37,474.61c-2.7,4.51-5.42,8.92-8.2,13.26-37.56,58.66-81.36,102-123.18,132.33-41.8-30.33-85.6-73.67-123.17-132.33q-4.15-6.51-8.2-13.26c-29.11-48.46-53.91-106.72-70.2-176C224.33,469.49,338.17,605.28,400,667.38c61.82-62.1,175.67-197.89,201.59-368.75C585.29,367.89,560.49,426.15,531.37,474.61Z"/><path class="cls-5" d="M400,20.56C381.65,36.05,159,223.75,148.21,232.83,151,406.37,255.3,629.71,400,775.71c144.71-146,249-369.34,251.78-542.88C641,223.75,418.35,36.05,400,20.56ZM163.52,238.12,400,56.29,636.48,238.12C626.81,443,481.52,653,400,734.41,318.48,653,173.18,443,163.52,238.12Z"/><path class="cls-5" d="M316.56,322.83h-9.14V328h9.14a2.6,2.6,0,1,0,0-5.19Z"/><path class="cls-5" d="M556.89,249.75l-7.12-3.06c-2.15-.9-3.91.09-3.91,2.25v54.65a6.73,6.73,0,0,0,3.91,5.57l7.12,3c2.15.93,3.91-.09,3.91-2.23V255.32A6.68,6.68,0,0,0,556.89,249.75Z"/><path class="cls-5" d="M293.49,231.65l-7.12,2.09a5.65,5.65,0,0,0-3.9,5v54.65a2.82,2.82,0,0,0,3.9,2.75l7.12-2.06a5.7,5.7,0,0,0,3.91-5.08V234.42A2.83,2.83,0,0,0,293.49,231.65Z"/><path class="cls-5" d="M511.82,233.24l-11-2.94v62.45l11,3a2.91,2.91,0,0,0,3.9-2.87V238.2A5.48,5.48,0,0,0,511.82,233.24Z"/><path class="cls-5" d="M393.23,322.83h-7.87V328h7.87a2.6,2.6,0,1,0,0-5.19Z"/><path class="cls-5" d="M400,113.14,193.49,248.49a470.3,470.3,0,0,0,4.93,50.14c16.29,69.26,41.09,127.52,70.2,176L325,416.47l11.58,10.23L400,361.35l63.47,65.35L475,416.47l56.34,58.14c29.12-48.46,53.92-106.72,70.21-176a475.55,475.55,0,0,0,4.93-50.14Zm-136.65,141L249,260.37v-1.14l1.65-1.77v-7.1c0-2.16-1.75-3.15-3.9-2.23l-3.67,1.59a6.81,6.81,0,0,0-3.9,5.6V310c0,2.16,1.76,3.16,3.9,2.23l3.67-1.59a6.8,6.8,0,0,0,3.9-5.6V301.2l-1.65-.34v-1.14l14.32-6.19v1.12l-1.65,1.78V302c0,6.71-5.5,14.59-12.21,17.48l-9.08,3.94c-6.72,2.91-12.21-.22-12.21-6.93V258.36c0-6.72,5.49-14.59,12.21-17.48l9.08-3.94c6.71-2.92,12.21.21,12.21,6.92v8.83l1.65.33Zm53.18,43,1.65-1.35V217.7l-1.65-.73v-1.14l14.32-2.61v1.14l-1.65,1.35V286l12.08-2.18,1.05-1.85,1.13-.19v11.67l-26.93,4.89ZM283.65,307c-6.71,2-12.2-1.92-12.2-8.63V240.28c0-6.71,5.49-13.83,12.2-15.79l12.56-3.68c6.72-1.95,12.21,1.92,12.21,8.66v58.11c0,6.71-5.49,13.8-12.21,15.77Zm40.71,33.73a2.66,2.66,0,0,0,1.92.85v.57h-9.77v-.57c.73,0,1.05-.4.73-.85l-5-7.14h-4.78v7.14c0,.45.59.85,1.33.85v.57H299v-.57c.74,0,1.33-.4,1.33-.85V318.65c0-.47-.59-.85-1.33-.85v-.57h19.11a8.2,8.2,0,0,1,1.18,16.32Zm42,1.42h-8.64v-.57c.73,0,1.19-.4,1-.85l-1.59-4.18H345.24l-1.59,4.18c-.18.45.27.85,1,.85v.57H336v-.64a1.58,1.58,0,0,0,1.12-.78l8.43-22.11c.18-.47-.27-.85-1-.85v-.57h13.25v.57c-.74,0-1.19.38-1,.85l8.42,22.11a1.62,1.62,0,0,0,1.13.78Zm-2.59-51.11a11.19,11.19,0,0,1-12.21-11.29V221.66a13.4,13.4,0,0,1,12.21-13.11l12.55-1a11.21,11.21,0,0,1,12.21,11.29V277a13.46,13.46,0,0,1-12.21,13.14Zm31,42.55h-9.4v7.14c0,.45.6.85,1.33.85v.57h-9.78v-.57c.73,0,1.33-.4,1.33-.85V318.65c0-.47-.6-.85-1.33-.85v-.57h17.85a8.2,8.2,0,0,1,0,16.39Zm28.78-15.82c-.74,0-1.33.38-1.33.85v22.11c0,.45.59.85,1.33.85v.57h-9.78v-.57c.73,0,1.33-.4,1.33-.85V318.65c0-.47-.6-.85-1.33-.85v-.57h9.78ZM435.09,291l-12.79-.92-9.55-32.69-3.45-.17v30.13l1.66,1.11v1.14l-14.33-.14v-1.14l1.66-1V209.14L396.63,208v-1.14l22.95.93a12.85,12.85,0,0,1,12.21,12.69v25.4a11.66,11.66,0,0,1-8.23,11.2l9.09,31.07,2.44,1.66Zm17.41,51.21h-16v-.57c.74,0,1.33-.4,1.33-.85V318.65c0-.47-.59-.85-1.33-.85v-.57h16c6.89,0,12.48,4.2,12.48,12.48S459.39,342.18,452.5,342.18Zm3.37-78.65v27.63l1.65,1.31v1.13l-14.32-1.82v-1.14l1.66-.78V221.71c0-6.71,5.49-11.34,12.2-10.27l9.09,1.45A14.89,14.89,0,0,1,478.36,227v68.15l1.66,1.3v1.14l-14.33-2.7v-1.14l1.65-.78V265.35Zm32,78.89c-9.14,0-11.34-2-12.8-2-.49,0-.94.62-.94.62l-.57-.15,3.5-8.44.49.24c-.54,1.25,1.19,4.17,10.32,4.17,4,0,6-.85,6-2.84,0-4.27-19.12.92-19.12-9.66,0-4.53,5.87-7.33,12.07-7.33,5.75,0,11,2,11.95,2a1.48,1.48,0,0,0,1.28-.74l.51.19-3.27,6.64-.57-.28c.6-1.28-3.2-3-9.9-3-1.95,0-4.94.74-4.94,2.47,0,3.75,19.11-.92,19.11,9.66C501,340.78,494.17,342.42,487.91,342.42Zm38.83-44.88c0,6.69-5.5,10.72-12.21,8.92l-26.4-7.07v-1.14l1.64-.59V219.48L488.13,218v-1.12l26.4,7.07c6.71,1.8,12.21,8.78,12.21,15.46Zm45.07,18.86c0,6.71-5.5,9.87-12.21,7L547.05,318c-6.72-2.87-12.21-10.73-12.21-17.44V242.49c0-6.72,5.49-9.87,12.21-7l12.55,5.36c6.71,2.84,12.21,10.69,12.21,17.41Z"/><polygon class="cls-5" points="346.61 332.98 355.76 332.98 351.18 320.98 346.61 332.98"/><path class="cls-5" d="M416.86,217.75l-7.56-.31v29.74l7.56.29a3.72,3.72,0,0,0,3.91-3.75V221.8A4.08,4.08,0,0,0,416.86,217.75Z"/><path class="cls-5" d="M373.6,217.82l-7.12.54a4.32,4.32,0,0,0-3.9,4.2v54.65a3.57,3.57,0,0,0,3.9,3.61l7.12-.55a4.27,4.27,0,0,0,3.91-4.19V221.42A3.58,3.58,0,0,0,373.6,217.82Z"/><path class="cls-5" d="M451,322.83h-6.07v13.75H451c3.81,0,6.88-1.84,6.88-6.87S454.79,322.83,451,322.83Z"/><path class="cls-5" d="M467.34,227a4.75,4.75,0,0,0-3.9-4.53l-3.66-.59a3.27,3.27,0,0,0-3.91,3.3v28.29l11.47,1.83Z"/><polygon class="cls-5" points="416.53 477.48 400 465.48 383.47 477.48 389.78 496.93 410.21 496.93 416.53 477.48"/><path class="cls-5" d="M416.53,430l-.75-2.3a49.91,49.91,0,0,0-31.56,0l-.75,2.3L400,442Z"/><path class="cls-5" d="M357,450.08a49.27,49.27,0,0,0-6.5,24.55c0,.46,0,.91,0,1.36l8-4.46,2.51-1.4-1.89-9.49Z"/><path class="cls-5" d="M440.9,460.62,439,470.13l2.51,1.4,8,4.46c0-.45,0-.9,0-1.36A49.28,49.28,0,0,0,443,450.08Z"/><path class="cls-5" d="M385.84,563.51c-4.83,0-9.83,2.33-9.83,7.21,0,4.23,3.48,7.24,8,7.24a16.73,16.73,0,0,0,7.73-2.14s-.3,5.72-7.08,5.72c-4.38,0-5.5-1.35-5.29-2.42l-.42-.19-3.25,5.5.51.22a1.38,1.38,0,0,1,.93-.45,22.12,22.12,0,0,0,7.52,1.28c6.39,0,12.59-3.84,12.59-11C397.26,567.55,393.53,563.51,385.84,563.51Zm0,10.27c-2.5,0-4.53-1.35-4.53-3.06s2-3,4.53-3,4.52,1.37,4.52,3S388.34,573.78,385.84,573.78Z"/><path class="cls-5" d="M421,570.06l3.25-5.5-.5-.22a1.42,1.42,0,0,1-.94.45,22.12,22.12,0,0,0-7.52-1.28c-6.38,0-12.59,3.82-12.59,11,0,6.92,3.75,11,11.43,11,4.82,0,9.82-2.35,9.82-7.24,0-4.19-3.47-7.21-8-7.21a16.83,16.83,0,0,0-7.72,2.11s.3-5.71,7.07-5.71c4.39,0,5.5,1.37,5.3,2.42Zm-6.87,5.15c2.49,0,4.52,1.35,4.52,3s-2,3.06-4.52,3.06-4.53-1.37-4.53-3.06S411.66,575.21,414.16,575.21Z"/></g></svg>