<svg id="Layer_1" data-name="Layer 1" xmlns="http://www.w3.org/2000/svg" xmlns:xlink="http://www.w3.org/1999/xlink" viewBox="0 0 800 800"><defs><style>.cls-1{fill:none;}.cls-2{clip-path:url(#clip-path);}.cls-3{fill:#fff;}.cls-4{fill:#c3c6c8;}.cls-5{fill:#c6093b;}.cls-6{fill:#001f5b;}</style><clipPath id="clip-path"><rect class="cls-1" x="52.77" y="54.18" width="694.46" height="691.64"/></clipPath></defs><title>DAL-Logo</title><g class="cls-2"><g id="DAL-Logo"><g class="cls-2"><path class="cls-3" d="M736.38,109.18C712.82,100.64,595.83,62.25,400,62.25S87.17,100.64,63.61,109.18c-1.81,24.14-2.77,47.56-2.77,70,0,347.15,207.33,497.35,339.16,557.73,131.84-60.38,339.17-210.58,339.17-557.73,0-22.47-1-45.89-2.78-70M712.12,315C683.62,473.87,609.21,576.41,496,654.29c-29.42,20.25-61.45,38.84-96,56.28-41.23-20.84-78.88-43.27-112.78-68.22C314,549.3,375.63,508.44,375.63,508.44c-36.85-42.47,7.89-73.55,7.89-73.55-7.95,16.55-9.74,41,9.15,56.87s39-2,53.4-1.35,33.18,11.39,33.18,11.39c15.53-4.95,18.42-17.56,18.42-17.56s-2.36-5.77-7.56-7.65a13.38,13.38,0,0,0-11.33,5.73c-1.16-10.32,12.08-17.54,12.08-17.54a28,28,0,0,1,21.53,10.32l20.63.37c3.83-10.31,10.92-11.38,10.92-11.38l-35.71-37.51C488.89,405.34,510,388.9,510,388.9a34.78,34.78,0,0,0-6.36-11.73S530,375.9,549.43,374c47.19-4.64,51.3-64.14,162.71-59C605,298.41,585.05,351.49,534.52,355.52c-26,2.08-48.12,1.78-48.12,1.78S471.69,346.2,457.15,339l-69.81-.47s-19.54,7.09-33.16,20.78l-81.6-.73c-73.25-2.69-94.75-74.6-184.95-44.57,93.94-14.23,91.06,57.84,183.43,66.3l101.07,5.33s8.43-4.44,3.76-18c5,1.51,21.5,24.31,1.64,43.56-6.74,7.15-28.42,24.43-87.4,35.73a78.61,78.61,0,0,1,25.62-34.18c-7.49-.7-15.21-1.47-22.81-2.23A560,560,0,0,0,168.57,521.59C129.76,464.78,102.44,397.07,87.66,314,77.55,257.07,73.3,193,75.24,120.2c0,0,121.67-46.45,324.76-46.45S724.76,120.2,724.76,120.2c1.94,73.22-2.36,137.67-12.64,194.81M453.74,363c-5.26-4.71-6.43-12.15,2-16.33-3.06,8.83,15.3,10.42,22.84,21.86,9.55,14.58-4.05,22.67-3.28,33.1-5.28-15.11-19.1-15.22-25.41-20.64s-6.32-10.86-3.47-14.17c2.35,6.82,13.8,2,7.3-3.81m15.36,64.24c-27.58-14.86-64.35-11.71-64.35-11.71A55.63,55.63,0,0,1,424.82,394c19.87,5.26,31.83,10,44.27,33.24"/><polygon class="cls-3" points="123.13 270.44 145.7 266.11 145.7 205.1 165.47 201.35 165.47 179.72 145.7 183.56 145.7 155.87 165.47 151.77 165.47 129.56 123.13 139.2 123.13 270.44"/><path class="cls-3" d="M207.34,121.85c-23.91,3.86-25.51,7.73-25.74,30.72v83.62c.22,21.49,1.74,23.91,25.74,21.58,24.24-3,27.69-5.49,27.9-26.91v-26.3l-22.57,2.09v25.49c0,3.56-2.22,4.71-4.19,5-1.84.08-4.29-.21-4.29-4.41V150c0-3.33,1.86-4.95,4-5.21,2.36-.38,4.51,1,4.51,4.34v16.31l22.57-2.35V146.2c-.17-24-3.65-27.46-27.9-24.35"/><path class="cls-3" d="M329,110.61l-30.9,2.24V249.5l31.61-1.79c19.65-1.1,22.8-3.89,23.11-23V139c-.41-26.16-4.17-29.17-23.86-28.4m1.29,113c0,3.09-.4,4.17-3.47,4.34l-6.18.54V136.15l6.18-.56c2.13,0,3.34,1,3.47,5.88Z"/><path class="cls-3" d="M381.77,109.08,368.23,246.89l20.83-.23,1.74-24,12.37-.16,1.91,23.72,20.83.16L412.27,108.59Zm10.2,92.6,5.16-54.15,4.91,54Z"/><polygon class="cls-3" points="465.24 227.7 465.24 110.34 442.66 109.37 442.66 246.81 480.88 248.05 480.86 228.16 465.24 227.7"/><polygon class="cls-3" points="520.03 230.47 520.05 114.3 497.46 112.38 497.46 249.08 535.18 252.04 535.18 231.9 520.03 230.47"/><path class="cls-3" d="M563.66,119.35,550.18,253.16l20.83,2,1.74-24.52,12.15,1.08,1.74,25,20.83,2.37L593.82,123.23Zm10.2,90.28,5-52.15,4.91,53Z"/><path class="cls-3" d="M648.82,131.13c-24.15-4-25.53-.87-25.74,22.2v18.49c.19,11.46,2.35,17.92,9.77,24.45l16.29,13c3.15,2.74,5.1,5.86,5.2,10v21.39c0,3.23-2.6,3.68-4.6,3.55a5,5,0,0,1-4.06-4.94V220.06l-22.59-2.68v19.46c.21,21.53,2.71,24.74,26.63,28.41,24.3,3.09,27,1.94,27.17-20.07V217.81c-.24-8.85-3-16.19-9.91-22.18l-17.16-13.75c-2.85-2.61-4.06-4.83-4.16-9.43V157c0-3.21,2.23-4,4.07-3.83,1.95.46,4.57,3.09,4.57,6.49v13.2l22.57,3.29V162.92c-.22-21.9-4-27.08-28-31.79"/><polygon class="cls-3" points="404.7 598.65 402.84 568.21 381.56 598.65 346.15 598.65 369.44 618.92 351.26 650.44 385.22 630.88 408.28 650.11 406.02 618.69 440.24 598.65 404.7 598.65"/><path class="cls-4" d="M379.43,286h-19c-10.32,0-15.56.87-15.56,7.9v2.47c0,5.12,2.31,7.9,15.15,7.9h12.43c5.21,0,7.74-.73,9.9-2.16v3.4c0,2.21-1.91,3.39-6.49,3.39h-31.3V315H376c14.24,0,19-2.52,19-11.15V295.9c0-7.38-5.15-9.95-15.55-9.95m-3.89,12.39H363.93c-5.39,0-6.78-.73-6.78-3.09s1.45-3.19,6.54-3.19h12.15c5.11,0,6.54.74,6.54,3.19s-1.39,3.09-6.84,3.09"/><path class="cls-4" d="M440.28,296.68H427.86c-5.21,0-7.76.74-9.93,2.14v-3.31c0-2.27,1.92-3.48,6.51-3.48h29.8V286H424.36c-14.23,0-19,2.51-19,11.14V305c0,7.39,5.21,10,15.56,10h19c10.34,0,15.56-.91,15.56-7.9v-2.47c0-5.14-2.28-7.93-15.13-7.93m-3.67,12.16H424.45c-5.08,0-6.53-.74-6.53-3.17s1.4-3.11,6.78-3.11h11.67c5.41,0,6.78.71,6.78,3.11s-1.43,3.17-6.53,3.17"/><path class="cls-5" d="M744.16,103.49S623.61,54.18,400,54.18,55.84,103.49,55.84,103.49C27.32,458.43,201.76,656.41,400,745.81,598.23,656.4,772.67,458.43,744.16,103.49M400,736.91C268.16,676.53,60.84,526.33,60.84,179.18c0-22.47,1-45.89,2.78-70,23.56-8.51,140.57-46.9,336.38-46.9s312.83,38.39,336.38,46.93c1.83,24.14,2.78,47.56,2.78,70,0,347.11-207.33,497.31-339.16,557.68"/><path class="cls-5" d="M556,397l-36.66,8.19c-6.38,4.34-17.36,13.7-11.16,21.41L543.93,464c-6.77,14.47,6.8,23.31,6.8,23.31-1.8,10.26-15.25,24.23-15.25,24.23l-14.34.87L515,522.3l-39.23,3.05-8.31-3.89C436.28,582,458.74,628.24,496,654.28,609.21,576.41,683.61,473.87,712.13,315,607.64,320.84,606.76,384.92,556,397"/><path class="cls-5" d="M87.67,314C102.43,397,129.76,464.74,168.58,521.6A560,560,0,0,1,293,410.48c-12.48-1.27-24.57-2.6-34.52-3.86-85-10.7-88.76-91.36-170.76-92.67"/><path class="cls-5" d="M475.3,401.59c-.79-10.41,12.79-18.51,3.26-33.08-7.52-11.48-25.89-13-22.84-21.87-8.4,4.21-7.25,11.63-2,16.34,6.53,5.85-4.94,10.64-7.3,3.8-2.88,3.33-2.86,8.78,3.48,14.17s20.11,5.53,25.4,20.64"/><path class="cls-6" d="M543.94,464.05s-7.09,1.06-10.92,11.38l-20.63-.38a28,28,0,0,0-21.53-10.32s-13.24,7.26-12.09,17.58a13.44,13.44,0,0,1,11.33-5.75c5.21,1.89,7.56,7.67,7.56,7.67s-2.88,12.6-18.42,17.55c0,0-18.79-10.73-33.18-11.38s-34.5,17.18-53.4,1.35-17.1-40.31-9.15-56.87c0,0-44.74,31.07-7.89,73.54,0,0-61.63,40.85-88.41,133.92,33.9,24.94,71.56,47.37,112.78,68.23,34.53-17.45,66.56-36.05,96-56.28-37.24-26-59.69-72.26-28.56-132.82l8.31,3.88L515,522.3l6.16-9.84,14.36-.87s13.46-14,15.24-24.22c0,0-13.58-8.86-6.78-23.33M408.27,650.12l-23-19.23-34,19.54,18.22-31.52-23.32-20.25H381.6l21.29-30.47,1.84,30.47h35.59l-34.23,20Z"/><polygon class="cls-6" points="391.94 201.69 402.01 201.56 397.1 147.53 391.94 201.69"/><path class="cls-6" d="M724.77,120.16S603.13,73.75,400,73.75,75.23,120.16,75.23,120.16C73.3,192.93,77.55,257,87.66,313.92c90.18-30,111.68,41.89,184.9,44.56l81.6.73c13.6-13.66,33.16-20.77,33.16-20.77l69.8.47c14.55,7.23,29.24,18.33,29.24,18.33s22.11.3,48.11-1.78C585,351.4,605,298.36,712.11,315c10.28-57.12,14.6-121.57,12.66-194.83m-559.3,31.6-19.81,4.1v27.66l19.78-3.82v21.62l-19.78,3.78v61l-22.57,4.34V139.25l42.34-9.66Zm69.78,11.37-22.57,2.33V149.13c0-3.28-2.16-4.68-4.52-4.34-2.11.24-4,1.86-4,5.21v82.71c0,4.21,2.46,4.49,4.29,4.41,2-.31,4.21-1.47,4.21-5V206.64l22.57-2.11v26.3c-.22,21.45-3.67,23.95-27.91,26.91-24,2.36-25.51-.07-25.74-21.56V152.57c.22-23,1.83-26.91,25.74-30.72,24.31-3.12,27.71.33,27.91,24.35Zm62.82,86.41V112.82l30.9-2.21c19.69-.78,23.44,2.22,23.87,28.4v85.76c-.33,19.09-3.47,21.85-23.12,22.94ZM395,303.82c0,8.62-4.79,11.15-19,11.15H344.58v-6.15h31.3c4.59,0,6.5-1.16,6.5-3.37V302c-2.16,1.43-4.66,2.16-9.9,2.16H360.07c-12.85,0-15.15-2.77-15.15-7.9v-2.47c0-7,5.21-7.91,15.56-7.91h18.95c10.41,0,15.55,2.61,15.55,9.95Zm8.18-81.35-12.35.15-1.74,24-20.83.24,13.53-137.79,30.53-.49L426,246.35l-20.83-.16Zm52.25,84.6c0,7-5.21,7.9-15.56,7.9h-19c-10.41,0-15.55-2.61-15.55-10v-7.92c0-8.64,4.81-11.15,19-11.15h29.88V292H424.44c-4.58,0-6.51,1.17-6.51,3.42v3.36c2.17-1.41,4.69-2.16,9.93-2.16h12.42c12.86,0,15.13,2.79,15.13,7.93ZM442.66,246.8V109.37l22.57,1V227.7l15.62.46v19.89Zm54.8,2.28V112.34L520,114.25V230.44l15.15,1.43V252Zm89.18,7.59-1.74-25-12.15-1.09L571,255.12l-20.83-2,13.47-133.8,30.16,3.88L607.47,259Zm90.27-80.54-22.57-3.29v-13.2c0-3.4-2.6-6.07-4.57-6.49-1.84-.16-4.08.62-4.08,3.83v15.48c.11,4.6,1.33,6.84,4.16,9.41L667,195.63c7,6,9.68,13.31,9.92,22.17v27.36c-.2,22-2.89,23.17-27.17,20.08-23.91-3.66-26.42-6.89-26.63-28.41V217.38l22.57,2.71v19.18a5,5,0,0,0,4.06,4.95c2,.13,4.6-.33,4.6-3.55V219.25c-.06-4.15-2-7.26-5.2-10l-16.28-13c-7.42-6.51-9.55-13-9.77-24.42V153.31c.2-23.06,1.58-26.21,25.73-22.21,24,4.73,27.83,9.89,28.09,31.81Z"/><path class="cls-6" d="M436.38,302.55H424.71c-5.39,0-6.79.73-6.79,3.1s1.46,3.17,6.55,3.17h12.15c5.09,0,6.54-.74,6.54-3.17s-1.37-3.1-6.78-3.1"/><polygon class="cls-6" points="573.85 209.65 583.74 210.5 578.83 157.46 573.85 209.65"/><path class="cls-6" d="M326.82,135.6l-6.18.55v92.36l6.18-.54c3-.21,3.4-1.31,3.47-4.34V141.48c-.11-4.91-1.32-5.92-3.47-5.88"/><path class="cls-6" d="M375.84,292H363.69c-5.11,0-6.56.74-6.56,3.19s1.39,3.09,6.78,3.09h11.62c5.45,0,6.84-.71,6.84-3.09s-1.43-3.19-6.54-3.19"/><path class="cls-6" d="M549.41,374c-19.43,1.89-45.81,3.17-45.81,3.17A34.79,34.79,0,0,1,510,388.88s-21.06,16.45-1.74,37.69c-6.18-7.71,4.76-17.1,11.15-21.41L556,397c50.72-12,51.6-76.13,156.09-81.94-111.41-5.21-115.53,54.32-162.71,59"/><path class="cls-6" d="M292.94,410.46c7.6.77,15.32,1.54,22.81,2.24a78.74,78.74,0,0,0-25.61,34.16c59-11.28,80.68-28.56,87.42-35.71,19.84-19.23,3.34-42-1.64-43.59,4.65,13.55-3.77,18-3.77,18l-101.07-5.31c-92.35-8.47-89.49-80.54-183.42-66.32,82,1.34,85.77,82,170.77,92.7,9.94,1.26,22,2.6,34.51,3.86"/><path class="cls-6" d="M469.12,427.18c-12.43-23.2-24.39-28-44.28-33.23a55.51,55.51,0,0,0-20.09,21.52s36.77-3.15,64.35,11.71"/></g></g></g></svg>