<svg id="Layer_1" data-name="Layer 1" xmlns="http://www.w3.org/2000/svg" xmlns:xlink="http://www.w3.org/1999/xlink" viewBox="0 0 800 800"><defs><style>.cls-1{fill:none;}.cls-2{clip-path:url(#clip-path);}.cls-3{clip-path:url(#clip-path-2);}.cls-4{fill:#fff;}.cls-5{fill:#eb0029;}.cls-6{fill:#2e2a25;}</style><clipPath id="clip-path"><rect class="cls-1" x="65.4" y="44.73" width="669.2" height="710.53"/></clipPath><clipPath id="clip-path-2"><rect class="cls-1" x="65.4" y="44.73" width="669.21" height="710.53"/></clipPath></defs><title>DC-Logo</title><g id="DC-Logo"><g class="cls-2"><g id="DC-Logo-2" data-name="DC-Logo"><g class="cls-3"><path class="cls-4" d="M734.55,178.18a99.89,99.89,0,0,1-21.11,59.13,170.4,170.4,0,0,1,6,45.19c-.09,47.12-22.14,72.1-27.72,80.58,4.75,31.22-1.19,61.21-13.12,84.67-14.76,29-34.86,49.05-66.47,65,0,0-23.93,59.66-55.17,102.49-66.86,91.66-144,135.57-157.43,140-14.66-4.65-89.43-48-156.57-140-31.23-42.83-55.16-102.46-55.16-102.46-31.62-16-51.71-36-66.47-65-11.93-23.48-17.86-53.45-13.13-84.67-5.58-8.48-27.63-33.47-27.71-80.58a170.69,170.69,0,0,1,6-45.19A100.05,100.05,0,0,1,65.47,178.2c-.4-15.72,1.08-39.07,14.21-64.32A78.32,78.32,0,0,1,85,105.52a104.27,104.27,0,0,0,9.1,22.9c3.74,6.67,7.84,12.68,16.87,20.93a83,83,0,0,0,30.13,17.76L141,68.8c45.06-9.95,136.17-24.07,258.68-24.07S612.49,58.85,659,68.78l-.11,98.31a83,83,0,0,0,30.13-17.77c9-8.25,13.08-14.25,16.87-20.92A104.62,104.62,0,0,0,715,105.46a75.42,75.42,0,0,1,5.33,8.37c13.13,25.22,14.62,48.6,14.21,64.32"/><path class="cls-5" d="M299.36,431.65l6.17,19h20l-16.17,11.73,6.22,19-16.16-11.73-16.18,11.76,6.17-19-16.16-11.76h20Zm93.54,19H373l16.17,11.73-6.22,19,16.22-11.71,16.14,11.73-6.17-19,16.13-11.75h-20l-6.14-19Zm98.42,0H471.37l16.16,11.73-6.17,19,16.15-11.73,16.18,11.76-6.22-19,16.17-11.76h-20l-6.17-19ZM328.78,623.15C322,635.58,313.45,646,309.56,651.63H491.48c-3.9-5.61-12.15-16.27-19.62-28.47-5.55-9.09-10.47-18-13.67-28.42H341.55c-2.92,9.66-7.58,19-12.7,28.42M521.1,520c27.44-8.88,60.08-20.05,60.08-20.05H218.42s33.54,11.8,61.19,20.16c23.75,7.2,52.4,17.44,61.18,37.08H459.16c9.63-19.64,38.32-29.58,61.94-37.18"/><path class="cls-6" d="M428.36,314.43a24.4,24.4,0,0,0-6.71-3.11c-3.15-1-7.18-1.73-16.13-1.4-5.5.2-12.67,0-12.67,0s6.15,8.35,8.93,10.43c4.44,3.36,11.84.34,17.91-2.22,2.9-1.4,8.67-3.7,8.67-3.7m82,58.57c3-3.75,5.33-10.56,5.42-17.69.09-12.2-4.44-28.29-13-48.15-5.28-12.27-14.07-31.93-12.79-50.2.89-12.59,10.35-24.25,24.24-31.78,23.24-12.6,55.14-20,55.14-20-50.28-5.05-109.18-9-170-9a1686.33,1686.33,0,0,0-169.64,8.95s31.49,7.38,55.14,20c13.94,7.43,23.38,19.19,24.26,31.78,1.26,18.27-7.51,37.93-12.79,50.2-8.57,19.87-13.08,36-13,48.15.06,7.11,2.24,13.92,5.07,17.82,3.75,5.2,9.47,10.48,22.2,10.48,21.38,0,29.51-19.08,29.51-30.45s-5.89-16.64-10-20.2a55.19,55.19,0,0,0-18-9.77s24.63-7.91,24.63-22.26c0-11.77-7.15-25.21-16.38-35l.61-.63c2.53,1.42,11.68,4.87,19.54,6.29a204.38,204.38,0,0,0,34.75,2.86c18.93,0,27.53-2.24,41.55-2.24,14.59,0,27.53,6.9,30.69,20.12a73.51,73.51,0,0,1,15.48-.34c17.36,1.77,29.21,13.94,29.52,29.83.6,31.3-26.17,41.39-31.3,42.14a12.65,12.65,0,0,0,.48-6.34c-.54-3.74-4-8.75-9.7-8.75-8.12,0-12.18,6.67-11.91,13.32.59,14.55,16.94,20.76,33.35,21.67,2.49.13,4.25.2,6.59.13,15.24-.4,24.81-4.17,30.33-11M734.58,178.2a100,100,0,0,1-21.09,59.13,170.2,170.2,0,0,1,6,45.17c-.09,47.14-22.14,72.12-27.72,80.6,4.73,31.22-1.22,61.2-13.13,84.66-14.8,29-34.89,49-66.51,65,0,0-23.93,59.66-55.17,102.48-66.85,91.65-144,135.55-157.42,140-14.62-4.65-89.43-48-156.57-140-31.24-42.81-55.17-102.44-55.17-102.44-31.62-16-51.72-36-66.47-65-11.93-23.48-17.88-53.46-13.13-84.69-5.58-8.48-27.63-33.46-27.71-80.6a170.6,170.6,0,0,1,6-45.17,100,100,0,0,1-21.1-59.13c-.41-15.72,1.09-39.08,14.21-64.32A78.46,78.46,0,0,1,85,105.49a105,105,0,0,0,9.09,22.93c3.76,6.67,7.84,12.68,16.87,20.93a83,83,0,0,0,30.13,17.76L141,68.8c45.08-10,136.18-24.07,258.71-24.07S612.5,58.85,659,68.79l-.11,98.31a83,83,0,0,0,30.13-17.76c9-8.25,13.08-14.26,16.87-20.93A104.34,104.34,0,0,0,715,105.48a75.42,75.42,0,0,1,5.33,8.37c13.13,25.21,14.61,48.6,14.21,64.32m-18.06-48.76c-4.4,11.16-14.07,21.67-23.69,30-11.55,10-31.4,19.06-43.35,21V75.82C634.3,72.66,545.88,54,399.91,54S165.75,72.67,150.57,75.82V180.47c-12-2-31.84-11.05-43.35-21-9.62-8.35-19.3-18.86-23.68-30C77.6,143.32,75.32,161,75.77,176c.82,26.69,9.77,41.83,22.06,59.7,0,0-8.88,19-6.89,56.29,1.67,31.59,19.94,57.28,28.32,69-9.55,55.77,16.21,93.61,32.06,111.8,19.37,22.2,45.58,33.92,45.58,33.92,8.34,21.92,29.82,70.23,58.87,107.87,35.23,45.63,86.24,99.14,143.71,129,57.48-29.9,109.55-83.4,144.77-129,29.07-37.64,50.55-86,58.88-107.87,0,0,26.21-11.68,45.57-33.92,15.85-18.19,41.59-56,32-111.8,8.39-11.68,26.65-37.37,28.32-68.95,2-37.3-6.88-56.29-6.88-56.29,12.31-17.88,21.23-33,22-59.7.46-15-1.83-32.62-7.75-46.55M690.92,247.32c6.54,23.87,3.45,47.62-.77,62-13.06,44.56-50.45,61.05-79,77.15-13.65,7.69-24.26,14.45-31.93,21.14-26.64,23.32-21.77,40-21.77,40,9.61-19.17,38.45-31.71,63.67-44.41,34.4-17.4,45.38-33.21,45.38-33.21,5,29.91-4.15,57.73-16.16,77.16-25.82,41.74-67.57,52.19-68.81,52.82h-363c-1.25-.63-43-11.1-68.77-52.82-12-19.4-21.2-47.25-16.17-77.16,0,0,11,15.81,45.42,33.19,25.22,12.73,54.06,25.27,63.67,44.4,0,0,4.87-16.68-21.76-40-7.67-6.69-18.29-13.44-31.93-21.14-28.6-16.1-66-32.59-79-77.15-4.2-14.36-7.3-38.11-.77-62,0,0,6.11,20.64,50.72,42.83,32.35,16.12,54.43,31.37,64.14,53.5,0,0,7.49-27.36-22.1-49.58-8.48-6.36-15.45-10.66-34.26-21-12.43-6.89-40.71-21.11-60.79-50.43C94.21,204.16,86,182.1,90,158.64c0,0,4.06,8.84,19.36,18.29,18.51,11.44,38.68,17.24,67.09,24.94,26.84,7.26,72.83,16.28,99.92,31.43,12.27,6.84,20.09,16.61,20.25,27.53.44,29-25.62,56.51-25.62,94.2,0,23.66,12.23,39.24,38.65,39.24,12.44,0,22.15-4.44,29.31-11,8.88-8.06,13.6-19.26,13.6-28.94,0-24-17.14-29.31-21-31.3,9.22-3.77,15.58-9.82,16.47-19,.72-7.29-.73-12.44-2.13-15.41a44.44,44.44,0,0,0-5.33-8.82,91.52,91.52,0,0,0,19.36,4.07c28.42,3,38.36-1.57,52.57-1.57,13.67,0,26.38,6.63,25.82,20.14a59.55,59.55,0,0,1,16.05-2.05c20.72,0,28.21,12.48,28.21,23.73,0,16.79-11.09,24.87-14,25.75-1.69-7.55-10.66-11.45-17.68-11.45-10,0-22.21,6.49-22.21,22.75a30.89,30.89,0,0,0,9.77,22.31c5.73,5,17.34,11.08,40.86,11.08,31.57,0,49.8-15.87,49.8-39.54,0-37.68-26.27-65-25.63-94.19.23-11,7.78-20.53,20.35-27.54,27.11-15.19,73-24.15,99.82-31.43,28.42-7.69,48.57-13.49,67.09-24.94,15.3-9.45,19.36-18.28,19.36-18.28,4,23.45-4.22,45.5-16.88,63.94-20.05,29.31-48.31,43.52-60.78,50.43-18.81,10.38-25.76,14.67-34.24,21-29.6,22.2-22.11,49.57-22.11,49.57,9.72-22.12,31.78-37.37,64.14-53.49,44.62-22.21,50.71-42.83,50.71-42.83M309.32,462.41l16.17-11.74h-20l-6.17-19-6.17,19h-20l16.17,11.74-6.18,19,16.15-11.74,16.17,11.74Zm99.73,0,16.17-11.74h-20l-6.12-19-6.22,19h-20l16.17,11.74-6.18,19,16.19-11.74,16.16,11.74Zm17.77-75c-1.65-1.5-9.57-11.74-9.9-24.61-.54-21.76,14.44-34.79,34-34.79,14.46,0,18.8,8.53,18.8,8.53,1.49-1.78,4-8.1,3.11-13.53-1.58-9.2-9.32-13-21.6-13-12.79,0-20.75,3.55-20.75,3.55l-1.58.6s2.34-11.44-6-18.11c-6.45-5.16-17.57-3.47-27.24-1.83-12.11,2-30.71,2-40.39-2.82a28.23,28.23,0,0,1,4.05,17.34c-.88,7.28-6.28,12.43-9.24,14.54,5.08,3.77,14.71,10.4,14.71,29.51,0,15.6-10.42,30.47-14.91,34.08,9.12-1.69,19.18-2.23,25.7.14,15.35,5.56,18,16.53,20,21.86l1.43-.61c-1.35-7.22-1.78-20.1,5.66-24.11,5.89-3.16,16.88.4,24,4.17,0,0,0-1.05.3-.88m80.64,75,16.16-11.74h-20l-6.17-19-6.18,19H471.37l16.16,11.74-6.21,19,16.16-11.74,16.21,11.74ZM277.66,536.65c-18.22-5.69-38.75-12.44-61.07-21,7.58,19.26,21.6,45.59,32.86,63.1,12.44,19.34,29.25,41.74,47.24,60.54,9-9.31,37.24-42.9,37.24-66.85,0-18.44-32.87-28.42-56.25-35.76M466.32,572.3c-2.14,23.85,29.5,58.62,37.48,66.61,18-18.77,34.6-40.95,47-60.29,11.26-17.5,25.26-43.84,32.87-63.1-22.33,8.59-42.16,14.79-61.08,20.81-23.37,7.4-54.55,17.09-56.25,36M340.79,557.2c2.48,4.31,3.32,10,3.79,16.19.63,8.28-2,18.52-3,21.36H458.2c-1-2.84-3.62-13.08-3-21.36.46-6.15,1.42-11.88,3.9-16.19Zm58.68,169c27.13-14.37,70-54.43,92.13-74.61H309.53c21.46,24.32,65.27,61.55,90,74.61M223.38,108.09c0-2.93-.27-9.52-2.21-12.94a13.82,13.82,0,0,0-6.75-6.21c-2.53-1-6.3-1.47-13.7-.43-7,.89-23.66,3.55-23.66,3.55l.09,99.15s10-1.29,13.61-1.78c3.8-.54,15.56-2,18.22-2.52,5.51-1.15,7.6-3.16,9.23-4.66,3.32-3,5.25-7.58,5.25-13.33Zm-17.82,69a7.34,7.34,0,0,1-3.87,1.45l-8,1,0-80.66,8.45-1.13c1.9-.26,3,.11,3.74.94s.89,2.58.89,5.55l.06,68.54c0,1.5-.06,3.07-1.28,4.2m417-61.81c0-2.35.29-10.42-.89-14C620.09,96.7,618,95,615,93.1s-8-2.66-15.18-3.85-23.28-3.07-23.28-3.07V186.25s10.26,1.32,13.65,1.88,15.88,2.26,18.54,2.31c5.53.07,6.95-1.1,8.59-2.14,3.32-2.09,5.23-6.11,5.23-11.86ZM605.9,175.53c0,1.94-.34,2.89-1,3.37-1,.76-2.51.63-4.15.38l-7.66-1.1v-80l8.26,1.17c2.47.34,3.19,1,3.82,2.34.44,1,.7,2.44.7,5.44ZM234.81,185a5.57,5.57,0,0,0,4-2.14,6.15,6.15,0,0,0-.65-8.56,5.59,5.59,0,0,0-7.88.26l-.34.39a6.13,6.13,0,0,0-1.42,4.44,6,6,0,0,0,2.07,4.15,5.47,5.47,0,0,0,4.25,1.48M305,179.08a5.54,5.54,0,0,0,4-2.13,6.21,6.21,0,0,0-.66-8.57A5.44,5.44,0,0,0,304,166.9a5.56,5.56,0,0,0-4,2.14,6.15,6.15,0,0,0,.66,8.55,5.48,5.48,0,0,0,4.24,1.49M271.15,80.15c-2.93.21-12.2.78-17.86,6.59-5.23,5.33-4.91,12.32-4.87,14.78V165c.09,5.71,2.21,10.33,6.05,13.32,1.78,1.42,5.77,4.54,16.51,3.56,9.09-.84,14.1-3.73,16.88-6.16a15.34,15.34,0,0,0,5.05-12.22V140l-16.36,6.91v16.88c0,5.12-1.83,7.42-5.75,7.91-2.58.31-6.07-.07-6.07-6.48V96.51c0-3.9,2-6.21,5.39-6.54s6.22,1.12,6.22,5.68v19.69l16.32-7V98.71c0-5.1-.5-9.13-2.33-11.94-3.65-5.62-12.43-7.11-19.21-6.63m95.29-4.08-16.83.42v84.06c0,5.91-3.4,7-6.78,7-4.17.07-6.5-1.78-6.5-6.34V76.93l-16.58.76v82.7c0,8.64,3.55,11.21,5.16,12.7,3.17,2.81,10.29,4.72,17.77,4.44,8.77-.36,13.71-2.21,18-5.39,4-3,5.82-7.65,5.82-13V76.06M431,76l-16.61-.17v36.74L397.74,75.67l-15.41.07v99.7H398.8v-68.9l16,31.71v37.13l16.19.32V76M465,77l-16.46-.56v99.65l16.46,1ZM566.7,173.62l-20.26-2.36v-36l10.83,1.11,6-11.46-16.88-1.78V93.15L564,95l.07-10.42s-11.32-1.17-16.35-1.73C543.6,82.42,530,81.09,530,81.09v100s12.58,1.26,17.32,1.77l19.46,2.08ZM522,80.52s-16.73-1.2-23.48-1.61l-22.35-1.32-4.94,10,17.89,1v89.51s16.8,1.15,16.44,1.15V89.53l16.53,1.15Z"/></g></g></g></g></svg>