<svg id="Layer_1" data-name="Layer 1" xmlns="http://www.w3.org/2000/svg" xmlns:xlink="http://www.w3.org/1999/xlink" viewBox="0 0 800 800"><defs><style>.cls-1{fill:none;}.cls-2{clip-path:url(#clip-path);}.cls-3{fill:#101820;}.cls-4{fill:#ff6b00;}.cls-5{fill:#fff;}</style><clipPath id="clip-path"><rect id="SVGID" class="cls-1" x="75.8" y="3" width="648.39" height="794"/></clipPath></defs><title>HOU-Logo-New</title><g class="cls-2"><path class="cls-3" d="M722.76,200.43,401.58,3.45a3,3,0,0,0-3.16,0l-321.17,197A3,3,0,0,0,75.8,203V597a3,3,0,0,0,1.45,2.57l321.17,197a3,3,0,0,0,3.16,0l321.18-197A3,3,0,0,0,724.2,597V203a3,3,0,0,0-1.44-2.58"/></g><path class="cls-4" d="M400,776.37,93.33,588.28V211.72L400,23.63,706.67,211.72V588.28ZM105,581.29,400,762.23,695,581.29V218.71L400,37.77,105,218.71Z"/><polygon class="cls-4" points="511.59 175.32 525.9 161.01 517.73 152.82 500.02 170.53 500.02 197.17 511.59 197.17 511.59 175.32"/><polygon class="cls-4" points="478.53 197.17 490.1 197.17 490.1 170.53 472.39 152.83 464.21 161.01 478.53 175.32 478.53 197.17"/><polygon class="cls-4" points="305.5 218.66 305.5 207.09 242.07 207.09 219.82 184.54 211.64 192.72 237.58 218.66 305.5 218.66"/><polygon class="cls-4" points="549.78 207.09 358.41 207.09 358.41 218.66 544.99 218.66 583.86 257.52 583.86 346.74 544.68 385.91 521.41 385.91 521.41 397.48 549.47 397.48 595.43 351.54 595.43 252.73 549.78 207.09"/><polygon class="cls-4" points="468.61 385.91 237.58 385.91 211.64 411.54 219.82 420.03 242.37 397.47 468.61 397.47 468.61 385.91"/><rect class="cls-4" x="237.58" y="228.58" width="11.57" height="147.41"/><polygon class="cls-4" points="305.5 240.15 305.5 228.58 259.07 228.58 259.07 375.99 468.61 375.99 468.61 364.42 270.63 364.42 270.63 240.15 305.5 240.15"/><polygon class="cls-4" points="535.73 364.42 521.42 364.42 521.42 375.99 540.52 375.99 573.94 342.57 573.94 261.56 540.93 228.58 358.41 228.58 358.41 240.15 536.14 240.15 562.35 266.36 562.35 337.77 535.73 364.42"/><polygon class="cls-4" points="315.43 429.24 301.11 443.55 309.29 451.74 327 434.03 327 407.4 315.43 407.4 315.43 429.24"/><polygon class="cls-4" points="348.49 407.4 336.92 407.4 336.92 434.03 354.62 451.73 362.8 443.56 348.49 429.24 348.49 407.4"/><polygon class="cls-4" points="478.54 285.75 348.49 285.75 348.49 176.82 348.49 175.32 362.8 161.01 354.63 152.83 336.92 170.53 336.92 197.17 336.92 297.32 490.11 297.32 490.11 250.07 478.54 250.07 478.54 285.75"/><polygon class="cls-4" points="336.92 354.5 348.49 354.5 348.49 318.81 478.54 318.81 478.54 429.24 464.22 443.56 472.4 451.73 490.1 434.03 490.1 307.25 336.92 307.25 336.92 354.5"/><polygon class="cls-4" points="511.55 323.65 532.92 302.28 511.6 280.96 511.6 250.07 500.03 250.07 500.03 285.75 516.56 302.28 499.99 318.86 499.99 433.89 517.69 451.59 525.87 443.42 511.55 429.1 511.55 323.65"/><polygon class="cls-4" points="315.43 281.26 294.4 302.29 315.41 323.29 315.41 354.5 326.98 354.5 326.98 318.5 310.76 302.29 327 286.05 327 197.16 327 170.53 309.29 152.83 301.11 161.01 315.43 175.32 315.43 281.26"/><polygon class="cls-4" points="436.31 677.48 407.74 677.48 427.56 637.31 379.92 689.34 408.49 689.34 388.67 729.51 436.31 677.48"/><polygon class="cls-5" points="196.28 510.8 167.81 510.8 167.81 479.52 153.84 479.52 153.84 558.23 167.81 558.23 167.81 523.88 196.28 523.88 196.28 558.23 210.25 558.23 210.25 479.52 196.28 479.52 196.28 510.8"/><path class="cls-5" d="M242.2,479.52l-13.26,13.26V545l13.26,13.25H274L287.24,545V492.78L274,479.52Zm6.68,65.62-6-6V498.57l6-6H267.3l6,6v40.61l-6,6Z"/><polygon class="cls-5" points="349.48 539.18 343.51 545.14 325.87 545.14 319.9 539.18 319.9 479.52 305.94 479.52 305.94 544.97 319.19 558.23 349.53 558.23 362.79 544.97 362.79 479.52 349.48 479.52 349.48 539.18"/><polygon class="cls-5" points="399.87 512.13 393.9 506.16 393.9 498.57 399.87 492.6 416.53 492.6 425.48 501.32 435.3 491.5 423.19 479.52 393.18 479.52 379.93 492.78 379.93 511.96 393.18 525.21 416.96 525.21 422.92 531.18 422.92 539.18 416.96 545.14 397.4 545.14 387.44 535.55 377.63 545.36 390.75 558.23 423.64 558.23 436.89 544.97 436.89 525.38 423.64 512.13 399.87 512.13"/><polygon class="cls-5" points="444.7 492.6 466.8 492.6 466.8 558.23 480.77 558.23 480.77 492.6 502.88 492.6 502.88 479.52 444.7 479.52 444.7 492.6"/><path class="cls-5" d="M525.83,479.52l-13.25,13.26V545l13.25,13.25h31.79L570.87,545V492.78l-13.25-13.26Zm6.68,65.62-6-6V498.57l6-6h18.43l6,6v40.61l-6,6Z"/><polygon class="cls-5" points="632.9 479.52 632.9 533.08 605.98 479.52 589.8 479.52 589.8 558.23 603.1 558.23 603.1 504.69 603.54 505.81 630.47 558.23 646.2 558.23 646.2 479.52 632.9 479.52"/><path class="cls-5" d="M255.39,577.65l6.22,6.22v27l-6.22,6.22h-26.2V577.65Zm-4.53,9.9-1.7-1.7h-9.22v23.08h9.22l1.7-1.69Z"/><polygon class="cls-5" points="286.04 592.13 286.95 596.54 287.23 596.54 288.25 592.13 294.13 577.65 304.03 577.65 292.04 604.18 292.04 617.14 280.16 617.14 280.16 604.18 268.17 577.65 280.39 577.65 286.04 592.13"/><polygon class="cls-5" points="328.36 617.14 321.29 597 320.32 592.24 319.81 592.24 319.81 617.14 310.59 617.14 310.59 577.65 324.73 577.65 331.81 597.79 332.77 602.54 333.28 602.54 333.28 577.65 342.5 577.65 342.5 617.14 328.36 617.14"/><path class="cls-5" d="M372.65,609.67H363l-1.81,7.47H351l10.86-39.49h12.73l11.77,39.49H374.46Zm-8.21-8h7l-2.32-9.28-.79-4.87h-.56l-.91,4.87Z"/><polygon class="cls-5" points="409.53 577.65 415.13 598.36 416.2 603.33 416.6 603.33 417.62 598.36 423.27 577.65 437.64 577.65 437.64 617.14 426.89 617.14 426.89 593.32 426.44 593.32 425.48 598.47 419.88 617.14 411.56 617.14 405.68 598.47 404.71 593.32 404.26 593.32 404.26 617.14 395.04 617.14 395.04 577.65 409.53 577.65"/><path class="cls-5" d="M448.78,583.59l6.22-6.22h20.08l6.23,6.22V611.2l-6.23,6.22H455l-6.22-6.22Zm20.08,2h-7.63l-1.7,1.7v20.25l1.7,1.7h7.63l1.7-1.7V587.27Z"/><polygon class="cls-5" points="504.89 577.65 531.54 577.65 531.54 586.25 515.64 586.25 515.64 595.3 529.62 595.3 529.62 603.39 515.64 603.39 515.64 617.14 504.89 617.14 504.89 577.65"/><polygon class="cls-5" points="539.91 611.2 539.91 583.59 546.13 577.37 565.88 577.37 571.59 583.25 563.84 589.81 559.65 585.57 552.36 585.57 550.66 587.26 550.66 607.52 552.36 609.22 559.99 609.22 564.91 604.52 572.16 611.48 566.22 617.42 546.13 617.42 539.91 611.2"/></svg>