<svg id="Layer_1" data-name="Layer 1" xmlns="http://www.w3.org/2000/svg" xmlns:xlink="http://www.w3.org/1999/xlink" viewBox="0 0 800 800"><defs><style>.cls-1{fill:none;}.cls-2{clip-path:url(#clip-path);}.cls-3{clip-path:url(#clip-path-2);}.cls-4{fill:#ffce00;}.cls-5{fill:#004987;}.cls-6{fill:#15284b;}.cls-7{fill:#edaa00;}.cls-8{fill:#dadbe1;}.cls-9{fill:#fff;}</style><clipPath id="clip-path"><rect class="cls-1" x="85.29" width="629.42" height="800"/></clipPath><clipPath id="clip-path-2"><rect class="cls-1" x="85.29" y="0.01" width="629.42" height="799.99"/></clipPath></defs><title>LA-Logo</title><g class="cls-2"><g id="LA-Logo"><g class="cls-3"><path class="cls-4" d="M400,800h0C207,699.16,87.26,424.75,85.29,197.11,151,182,281.61,155,400,0,518.39,155,649,182,714.71,197.12,712.71,424.75,593,699.12,400,800"/><path class="cls-5" d="M126.18,227.2c4.84,99.57,33,207.83,79.13,301C255.45,629.45,324.19,708.2,400,752.8c75.79-44.56,144.54-123.35,194.67-224.6C640.81,435,669,326.76,673.8,227.2,608.88,211.3,501.13,176.77,400,60.37,298.88,176.77,191.11,211.3,126.18,227.2"/><path class="cls-6" d="M146.15,241.21c6.15,93.9,32.59,192.32,75.3,278.57C267.38,612.53,330.59,686.55,400,729.65,469.4,686.54,532.6,612.53,578.55,519.78c42.68-86.25,69.14-184.69,75.3-278.57C586.08,223.5,491.08,187.21,400,87.59,308.88,187.22,213.88,223.5,146.15,241.21"/><path class="cls-7" d="M391.11,43.16,400,32.92V0C281.6,155,151,182,85.27,197.11l21.9,16.1,7.44-1.81c68.7-16.82,184.94-55.18,276.48-168.23"/><path class="cls-7" d="M714.35,197l-22.47,16.09-.36,7.89c-.39,102.57-35.6,224.08-82.45,318.66C558.44,641.87,483.88,723.89,406,769.68l-6,3.51V800c193-100.84,312.72-375.25,314.7-602.89a2.42,2.42,0,0,0-.36-.1"/><path class="cls-8" d="M371.51,485.41H268.88a25.51,25.51,0,0,1-25.35-25.36V307.54h38v142.3h90Z"/><path class="cls-9" d="M250.46,312V455.73a16.79,16.79,0,0,0,16.59,16.62h93.83V454.29h-90V312Z"/><path class="cls-8" d="M388.56,485.47h38.92l15.23-38.91h59L489,414H455.73l23.75-60.28,50.74,131.72h40.36S510.4,337.09,508.1,330.86c-4.73-12.8-12.15-23.26-28.64-23.26h-.34c-16.47,0-23.32,10.37-28,23.18Z"/><path class="cls-9" d="M399.4,472.41h19.68c3.13-8,15.22-39,15.22-39h55.89c-2.72-7-4.21-10.81-5.84-15h-44.2l37.27-95.31L521.2,435.46c.07.15,9.41,25.49,13.6,36.93h21.43C547.88,451.9,503.8,342,499.08,330.48s-10.2-17.37-19.2-17.37h-.44c-13.21-.23-17.94,5.76-22.64,17.34,0,0-50.8,125.67-57.38,142"/><path class="cls-4" d="M589.17,548c-57.12-11-121.36-17.15-189.29-17.15-71.06,0-138,6.72-197.07,18.64-25.15,5.06-47.71,10.08-63,15C154.33,587.18,171,613.55,185,635c14-3.47,28.85-6.74,44.15-9.83,51.09-10.25,109.16-16.09,170.76-16.09,58.89,0,114.58,5.33,164.06,14.81,18.14,3.49,35.31,7,51.18,10.58,14.56-22.21,30.65-47.56,45.16-69.69-16.75-5.09-41.74-11.2-71.08-16.82"/><path class="cls-6" d="M217.5,578.79c0,6.83,2.54,11.55,7.54,14s9.69,2.09,15.33,1.32l23.24-3v-22.9l-20.89,2.46v7.91c5.53-.46,6.57-.51,9-.86V584l-11.37,1.45c-5.61.75-9.36-.46-9.36-8.76,0-9.61,4.49-11.53,9.36-12.18l23.24-3V553l-23.24,3c-15.36,2.06-22.87,9.51-22.87,22.75m86.85-30-20.45,39.78,13.26-1.11s2-4.42,2.63-5.87l20.75-1.73c.67,1.34,2.77,5.43,2.77,5.43L337,584.08l-20.66-36.34Zm-.55,23.16L310,558.52c1.7,3.26,5.14,9.92,6.41,12.33Zm64.8.82c-1.19-1-1.29-2.94-1.29-5.72V544.87l-12.38.55v22.43c0,5.06.7,8.4,4.5,11.35,4.52,3.59,9.52,3.65,16.1,3.33l13.49-.6v-8.19l-12.69.6c-4.19.2-6.2-.23-7.73-1.6m57.08-27.86-20.52,37.45,13.31.42,2.74-5.76,20.5.62c.65,1.39,2.84,6,2.84,6l13.8.44-20.65-38.74Zm-.6,23c1.22-2.48,4.63-9.38,6.28-12.67,1.7,3.43,5.25,10.54,6.51,13.13Zm94.27-16.68L504.88,550s-6.77,7.62-8.58,9.67c-1.81-2.38-8.64-11.16-8.64-11.16L473,547.29s15.38,19.13,16.41,20.37c-1,1.13-17,17.65-17,17.65l14.86,1.24s7.47-8.48,9.38-10.68c1.79,2.51,8.79,12.25,8.79,12.25l14.94,1.29-16.68-21c1-1.06,15.61-17.21,15.61-17.21m53.25,7.44s-8.68,9.27-10.68,11.3c-1.89-2.61-10.42-14.25-10.42-14.25l-14.27-2,18.69,24.12v16.55l12.41,1.76V579.58c.51-.49,18.87-18.84,18.87-18.84Z"/><path class="cls-7" d="M634.44,572.66c-12.28,19.38-29.37,43-29.37,43-15.14-3-31.54-5.89-48.8-8.79-47.24-8-100.39-12.37-156.51-12.37-58.71,0-114.1,4.84-162.89,13.42-14.58,2.58-28.72,5.32-42.1,8.2L184.88,635c10.62-2.63,27.27-6.25,33-7.54.1,0,12.31,18.36,12.57,18,.39-.59,8.71-8.89,13.78-13.39A198.77,198.77,0,0,1,260,619.61c43.29-5.9,90.34-10.57,139.79-10.57,58.89,0,114.59,5.32,164.06,14.83,24.37,4.66,42,8.61,51.73,10.85,14.66-22.51,29.32-46.3,44.61-69.82Z"/><path class="cls-5" d="M399.05,120.75h0A121.43,121.43,0,0,1,278.78,242.27a1.23,1.23,0,0,0,0,2.45A121.16,121.16,0,0,1,398.93,366a1.27,1.27,0,0,0,.55,1,1.21,1.21,0,0,0,1.19.07l.28-.13a1.27,1.27,0,0,0,.7-1.11A121.31,121.31,0,0,1,522,244.46a1.2,1.2,0,0,0,1.22-1.18v0A1.21,1.21,0,0,0,522,242h0A121.37,121.37,0,0,1,401.5,120.8h0a1.23,1.23,0,1,0-2.45,0h0"/><path class="cls-4" d="M400,162.12a.4.4,0,0,1,.38.42h0a87.9,87.9,0,0,0,79.75,80.85.4.4,0,0,1,.42.39c0,.24-.28.36-.46.36a87.86,87.86,0,0,0-79.77,80.5c0,.11-.08.39-.33.39s-.33-.28-.34-.39a87.85,87.85,0,0,0-79.75-80.5c-.18,0-.47-.11-.47-.36s.21-.34.42-.39a87.9,87.9,0,0,0,79.75-80.85.39.39,0,0,1,.39-.42"/><path class="cls-7" d="M400,162.12c-.18,0-.36.13-.39.42a87.89,87.89,0,0,1-79.77,80.85.4.4,0,0,0-.42.39H400Z"/><path class="cls-7" d="M400,325c.24,0,.31-.28.33-.39a87.86,87.86,0,0,1,79.77-80.5c.18,0,.46-.11.46-.36H400Z"/><path class="cls-9" d="M453.59,243.49c-29.37-.26-53.27-23.91-53.27-52.73a.29.29,0,0,0-.23-.34.29.29,0,0,0-.34.23.21.21,0,0,0,0,.11,53,53,0,0,1-52.63,52.94.3.3,0,0,0-.29.29.28.28,0,0,0,.29.26,53.46,53.46,0,0,1,52.68,53.32.25.25,0,0,0,.24.26h0a.27.27,0,0,0,.29-.25h0a53.77,53.77,0,0,1,53.23-53.51.3.3,0,0,0,.28-.28.29.29,0,0,0-.28-.29"/></g></g></g></svg>