<svg id="Layer_1" data-name="Layer 1" xmlns="http://www.w3.org/2000/svg" xmlns:xlink="http://www.w3.org/1999/xlink" viewBox="0 0 800 800"><defs><style>.cls-1{fill:none;}.cls-2{clip-path:url(#clip-path);}.cls-3{fill:#c39f6c;}.cls-4{fill:#010101;}</style><clipPath id="clip-path"><rect class="cls-1" x="124.18" y="22.05" width="551.65" height="755.9"/></clipPath></defs><title>LAFC-Logo</title><g class="cls-2"><g id="LAFC-Logo"><g class="cls-2"><path class="cls-3" d="M522.14,676.22c-5.25.94-10.31,1.71-15.27,2.48-36.3,5.84-73.79,11.83-106.87,41.61-33.07-29.76-70.54-35.78-106.85-41.57-4.91-.77-10-1.57-15.25-2.49-111.11-18.89-111-51.68-111.07-119.45L166.89,65H633.06l.15,491.85c-.36,67.69,0,100.51-111.07,119.37M145.6,43.56l-.06,513.5c0,36.85.08,65.9,18.1,90.55s51.17,39.63,110.7,49.71q8.06,1.41,15.47,2.55c34.77,5.57,67.61,10.83,96,36.44L400,749.09l14.18-12.78c28.4-25.63,61.24-30.87,96-36.44l1.7-.26c4.51-.71,9.08-1.44,13.76-2.26C585,687.27,618,672.5,636.06,647.89s18.22-53.36,18.41-89.88l-.16-514.46Z"/><polygon class="cls-3" points="261.11 157.49 246.19 157.49 246.19 130.13 236.81 130.13 236.81 165.44 261.11 165.44 261.11 157.49"/><path class="cls-3" d="M281.09,137.92c5.89,0,9.24,4.31,9.24,9.86s-3.35,9.91-9.24,9.91-9.22-4.36-9.22-9.91,3.35-9.86,9.22-9.86m0,28c10.11,0,18.83-7.46,18.83-18.12s-8.72-18.06-18.83-18.06-18.81,7.42-18.81,18.06,8.71,18.12,18.81,18.12"/><path class="cls-3" d="M314.7,158.11c-3.49,0-5.59-1.71-7.31-3.84l-6.8,5.15c2.17,2.9,6.61,6.54,14.54,6.54,9.28,0,13.29-4.72,13.29-11.16,0-5-2.36-8.36-9.37-10.7l-4.63-1.56c-1.72-.58-2.5-1.25-2.5-2.6s1.15-2.43,3.42-2.43a7.29,7.29,0,0,1,5.77,2.54l5.37-5.67c-2.07-2.43-5.47-4.66-11.66-4.66s-11.95,3.59-11.95,10.53c0,5.81,3.61,8.93,8.71,10.65l4.11,1.39c2.33.8,3.45,1.52,3.45,3,0,2-1.64,2.83-4.43,2.83"/><path class="cls-3" d="M354.11,147.16l3.59,8.19h-7.1Zm-6.52,15.27h13.23l1.33,3h9.7l-17-35.9c-.15-.35-.46-.35-.61,0l-17.09,35.9h9.19Z"/><path class="cls-3" d="M383.94,147.83l22,18.23c.56.47.7.31.7-.1V130.12h-8.81v17.71l-22-18.27c-.56-.47-.71-.21-.71.11v35.76h8.82Z"/><path class="cls-3" d="M429.89,165.9c7.8,0,12-2.18,15.27-4.89V146.27h-15.3v7.27h7v3A14.5,14.5,0,0,1,430,158c-6.2,0-9.37-4.64-9.37-10.19s3.14-9.87,8.88-9.87a9.29,9.29,0,0,1,7.7,3.78l6.62-5.67c-3.06-4-7.89-6.28-14.08-6.28-10.11,0-18.66,7.41-18.66,18.06s8.55,18.12,18.89,18.12"/><polygon class="cls-3" points="475.15 157.49 459.25 157.49 459.25 153.8 471.93 153.8 471.93 146.28 459.25 146.28 459.25 138.08 474.44 138.08 474.44 130.13 449.85 130.13 449.85 165.44 475.15 165.44 475.15 157.49"/><polygon class="cls-3" points="504 157.49 489.1 157.49 489.1 130.13 479.7 130.13 479.7 165.44 504 165.44 504 157.49"/><polygon class="cls-3" points="533.64 157.49 517.71 157.49 517.71 153.8 530.4 153.8 530.4 146.28 517.71 146.28 517.71 138.08 532.92 138.08 532.92 130.13 508.32 130.13 508.32 165.44 533.64 165.44 533.64 157.49"/><path class="cls-3" d="M553.8,144.09l-4.65-1.56c-1.68-.58-2.48-1.26-2.48-2.6s1.15-2.44,3.42-2.44a7.31,7.31,0,0,1,5.78,2.54l5.35-5.67c-2.06-2.44-5.45-4.66-11.64-4.66s-12,3.59-12,10.54c0,5.8,3.63,8.92,8.73,10.64l4.12,1.38c2.31.82,3.47,1.52,3.47,3,0,2-1.66,2.83-4.45,2.83a8.78,8.78,0,0,1-7.31-3.84l-6.79,5.14c2.14,2.9,6.61,6.54,14.54,6.54,9.27,0,13.28-4.72,13.28-11.17,0-5-2.37-8.36-9.37-10.7"/><polygon class="cls-3" points="236.84 602.19 244.57 602.19 244.57 592.93 255.07 592.93 255.07 586.41 244.57 586.41 244.57 579.66 256.48 579.66 256.48 573.1 236.84 573.1 236.84 602.19"/><path class="cls-3" d="M274,595.81c-4.82,0-7.56-3.57-7.56-8.17s2.77-8.13,7.56-8.13,7.56,3.58,7.56,8.13-2.76,8.17-7.56,8.17m0-23c-8.33,0-15.5,6.11-15.5,14.86s7.17,14.92,15.5,14.92,15.49-6.16,15.49-14.92-7.17-14.86-15.48-14.86"/><path class="cls-3" d="M307.16,595.81c-4.85,0-7.56-3.57-7.56-8.17s2.76-8.13,7.56-8.13,7.63,3.58,7.63,8.13-2.79,8.17-7.63,8.17m0-23c-8.33,0-15.49,6.11-15.49,14.86s7.16,14.92,15.49,14.92,15.49-6.17,15.49-14.92-7.16-14.86-15.49-14.86"/><polygon class="cls-3" points="323.24 579.66 330.89 579.66 330.89 602.19 338.6 602.19 338.6 579.66 346.26 579.66 346.26 573.1 323.24 573.1 323.24 579.66"/><path class="cls-3" d="M361.87,596.05H357.2V589.5h4.68c3,0,3.92,1.22,3.92,3.22s-.94,3.32-3.92,3.32m-4.68-16.77h3.85a2.11,2.11,0,0,1,2.37,1.8,1.88,1.88,0,0,1,0,.53c0,1.38-.77,2.23-2.49,2.23h-3.78Zm10.51,6.57c1.89-.9,3.31-2.39,3.31-5.67,0-4.45-3.78-7.12-9.45-7.12H349.76V602.2H362c7.16,0,11.46-3.16,11.46-8.73a7.42,7.42,0,0,0-5.82-7.6"/><path class="cls-3" d="M384.77,593.88l2.89-6.75,3,6.75Zm3-21.28-14,29.6h7.56l1.07-2.48h10.85l1.12,2.48h8l-14-29.59c-.13-.31-.38-.31-.52,0"/><polygon class="cls-3" points="412.3 573.1 404.59 573.1 404.59 602.19 424.58 602.19 424.58 595.64 412.3 595.64 412.3 573.1"/><polygon class="cls-3" points="434.75 573.1 427.03 573.1 427.03 602.19 447.02 602.19 447.02 595.64 434.75 595.64 434.75 573.1"/><path class="cls-3" d="M474.3,595.81c-4.42,0-7.1-3.57-7.1-8.17s2.6-8.13,6.85-8.13a7.11,7.11,0,0,1,6.54,3.47l5.83-4c-2.42-3.59-6.25-6.24-12.48-6.24a14.6,14.6,0,0,0-14.61,14.59v.28a14.78,14.78,0,0,0,14.61,15h.42c5.86,0,9.85-2.11,12.71-7l-6-3.82a7,7,0,0,1-6.8,4"/><polygon class="cls-3" points="496.92 573.1 489.21 573.1 489.21 602.19 509.19 602.19 509.19 595.64 496.92 595.64 496.92 573.1"/><path class="cls-3" d="M528,590.86c0,3.3-1.53,5.21-4.78,5.21s-4.8-1.89-4.8-5.21V573.1h-7.75v17.84c0,7.81,5.3,11.65,12.54,11.65s12.52-3.84,12.52-11.65V573.1H528Z"/><path class="cls-3" d="M551.52,596.05h-4.66V589.5h4.66c2.92,0,3.91,1.22,3.91,3.22s-.95,3.32-3.91,3.32m-4.66-16.77h3.78a2.11,2.11,0,0,1,2.37,1.8,1.88,1.88,0,0,1,0,.53c0,1.38-.76,2.23-2.46,2.23h-3.78Zm10.48,6.57c1.89-.9,3.31-2.39,3.31-5.67,0-4.45-3.78-7.12-9.45-7.12H539.38V602.2h12.29c7.17,0,11.48-3.16,11.48-8.73a7.43,7.43,0,0,0-5.82-7.6"/><path class="cls-3" d="M380.35,478.66H287.7v-237l-50.89-40.31V529.84H393.75a256.27,256.27,0,0,1-13.4-51.18"/><path class="cls-3" d="M393.75,417.41c-1.63,37.28,4,79,17.78,112.44h50.65S440.69,483,442.85,443.07c-3.07-1.6-35.15-18.4-49.14-25.65"/><path class="cls-3" d="M425.52,292.1l36,40.28c11.56-23.14,28.52-42.1,50.8-55.49V409.1L326,201.32v49c43.3,38.94,115.28,109.17,159.41,149V402L340.53,273.39v31.18h0c44.09,33.6,100.16,79,144.87,113.05v2.62L355.07,322v29.29c43.27,26.2,88.61,56.81,130.33,81.92v2.73L369.66,366.3v23.62c50.4,25.6,93,49.06,142.67,74.2v65.74h50.82V201.34c-61,4.14-113,46.54-137.63,90.76"/><path class="cls-3" d="M647.14,656.2C626.66,683.94,591,700.34,527.94,711c-4.43.77-8.82,1.47-13.13,2.17l-2.43.38c-34.12,5.44-63.6,10.14-89,33.07L400,767.75l-23.39-21.08c-25.42-22.94-54.87-27.64-89-33.08-4.94-.77-10.16-1.6-15.61-2.55-63.3-10.76-99-27.27-119.45-55.17-20.7-28.34-20.79-61-20.79-98.78l.05-527.48h536.3l.15,528.51c-.2,37.51-.4,69.92-21.12,98M675.65,22.05H124.26l-.07,535c0,39.13.09,72.94,22.27,103.29,21.68,29.64,58.85,47,124.26,58.16,5.48.94,10.74,1.78,15.71,2.57,32.93,5.26,61.36,9.79,85.13,31.22L400,778l28.45-25.63c23.74-21.42,52.19-26,85.13-31.18l2.41-.37q6.56-1,13.23-2.18c65.19-11.06,102.24-28.34,124-57.81,22.18-30.14,22.38-63.7,22.6-102.73Z"/><path class="cls-4" d="M636.06,647.89c-18.11,24.6-51.12,39.35-110.39,49.46-4.72.83-9.25,1.55-13.74,2.26l-1.72.26c-34.79,5.57-67.65,10.81-96,36.44L400,749.1l-14.18-12.79c-28.42-25.61-61.25-30.87-96-36.44q-7.41-1.14-15.47-2.55c-59.52-10.08-92.59-24.94-110.7-49.71s-18-53.73-18.1-90.55l.06-513.5H654.31L654.47,558c-.2,36.52-.36,65.38-18.41,89.88M131.8,29.61,131.75,557c0,37.79.08,70.44,20.78,98.78C173,683.72,208.66,700.22,272,711c5.45.94,10.67,1.77,15.62,2.54,34.13,5.44,63.58,10.15,89,33.07L400,767.74l23.39-21.08c25.41-22.93,54.89-27.63,89-33.08l2.42-.37c4.32-.69,8.7-1.4,13.14-2.18,63.08-10.7,98.72-27.1,119.2-54.8,20.71-28.14,20.91-60.54,21.12-98.05l-.17-528.57Z"/><path class="cls-4" d="M307.16,579.53c-4.85,0-7.56,3.57-7.56,8.13s2.76,8.17,7.56,8.17,7.63-3.57,7.63-8.17-2.79-8.13-7.63-8.13"/><path class="cls-4" d="M274,579.53c-4.82,0-7.56,3.57-7.56,8.13s2.77,8.17,7.56,8.17,7.56-3.57,7.56-8.17-2.76-8.13-7.56-8.13"/><polygon class="cls-4" points="384.77 593.88 390.64 593.88 387.67 587.13 384.77 593.88"/><path class="cls-4" d="M363.42,581.61a2.11,2.11,0,0,0-1.86-2.33,2.9,2.9,0,0,0-.51,0H357.2v4.55H361c1.71,0,2.49-.84,2.49-2.22"/><path class="cls-4" d="M553.07,581.61a2.1,2.1,0,0,0-1.85-2.33,2.35,2.35,0,0,0-.53,0h-3.78v4.55h3.74c1.71,0,2.45-.84,2.45-2.22"/><polygon class="cls-4" points="354.11 147.16 350.6 155.36 357.7 155.36 354.11 147.16"/><path class="cls-4" d="M361.87,589.51H357.2v6.55h4.68c3,0,3.92-1.31,3.92-3.32s-.94-3.22-3.92-3.22"/><path class="cls-4" d="M551.52,589.51h-4.66v6.55h4.66c3,0,3.91-1.31,3.91-3.32s-.95-3.22-3.91-3.22"/><path class="cls-4" d="M549.88,166c-7.9,0-12.4-3.64-14.54-6.55l6.8-5.14c1.69,2.13,3.78,3.84,7.32,3.84,2.83,0,4.44-.84,4.44-2.83,0-1.5-1.16-2.2-3.47-3l-4.12-1.38c-5.09-1.72-8.73-4.84-8.73-10.64,0-7,5.74-10.54,12-10.54s9.57,2.23,11.63,4.66L555.85,140a7.31,7.31,0,0,0-5.78-2.54c-2.28,0-3.42,1-3.42,2.44s.8,2,2.48,2.6l4.65,1.56c7,2.34,9.38,5.67,9.38,10.7,0,6.48-4,11.17-13.29,11.17m13.29,363.88H512.35V464.1c-49.66-25.14-92.3-48.59-142.68-74.2V366.28l115.75,69.63v-2.65c-41.72-25.12-87.06-55.75-130.33-81.92V322.05l130.33,98.26V417.7c-44.68-34.12-100.78-79.5-144.87-113.13h0V273.39L485.42,402v-2.67c-44.15-39.88-116.11-110.1-159.41-149v-49L512.35,409.1V276.88c-22.28,13.39-39.25,32.35-50.81,55.5l-36-40.28c24.61-44.22,76.62-86.62,137.61-90.76ZM551.68,602.2H539.39V573.1h11.79c5.73,0,9.45,2.66,9.45,7.11,0,3.25-1.46,4.72-3.31,5.67a7.43,7.43,0,0,1,5.82,7.6c0,5.57-4.31,8.74-11.48,8.74m-16-11.25c0,7.81-5.31,11.66-12.52,11.66s-12.54-3.84-12.54-11.66V573.1h7.74v17.76c0,3.3,1.51,5.21,4.8,5.21s4.78-1.89,4.78-5.21V573.1h7.73Zm-26.46,11.25h-20V573.1h7.71v22.54H509.2Zm-34.85.4a14.8,14.8,0,0,1-15-14.55v-.39a14.6,14.6,0,0,1,14.33-14.86h.28c6.24,0,10.06,2.63,12.48,6.22l-5.83,4a7.11,7.11,0,0,0-6.54-3.49c-4.25,0-6.85,3.59-6.85,8.14s2.69,8.16,7.1,8.16a6.94,6.94,0,0,0,6.8-4l5.95,3.84c-2.84,4.84-6.85,7-12.71,7M447,602.2H427V573.1h7.72v22.54H447Zm-22.45,0h-20V573.1h7.7v22.54h12.28Zm-30.29,0-1.12-2.48H382.31l-1.07,2.48h-7.56l14-29.6c.13-.31.38-.31.51,0l14,29.6Zm-32.22,0H349.78V573.1h11.77c5.74,0,9.45,2.66,9.45,7.11,0,3.25-1.46,4.72-3.31,5.67a7.42,7.42,0,0,1,5.82,7.6c0,5.57-4.3,8.74-11.46,8.74m-15.8-22.53h-7.66V602.2h-7.72V579.66h-7.65V573.1h23Zm-39.1,22.91c-8.33,0-15.49-6.16-15.49-14.92s7.16-14.86,15.49-14.86,15.49,6.11,15.49,14.86-7.16,14.92-15.49,14.92m-33.2,0c-8.33,0-15.5-6.16-15.5-14.92s7.17-14.86,15.5-14.86,15.5,6.06,15.5,14.82-7.17,14.92-15.48,14.92m-17.48-22.91H244.57v6.76h10.5v6.51h-10.5v9.28h-7.73V573.1h19.64Zm205.7-49.81H411.53c-13.79-33.48-19.41-75.16-17.79-112.44,14,7.25,46,24,49.13,25.64-2.15,39.92,19.34,86.79,19.34,86.79M236.82,201.32l50.89,40.31v237H380.3a257.62,257.62,0,0,0,13.4,51.18H236.82Zm0-71.2h9.38v27.4h14.91v7.93H236.82Zm44.27-.41c10.11,0,18.83,7.42,18.83,18.07s-8.72,18.11-18.83,18.11-18.81-7.46-18.81-18.11,8.71-18.07,18.81-18.07m34.59,22.57-4.11-1.38c-5.11-1.72-8.71-4.84-8.71-10.65,0-6.94,5.67-10.53,11.95-10.53s9.59,2.23,11.66,4.66l-5.37,5.67a7.29,7.29,0,0,0-5.77-2.54c-2.27,0-3.42,1-3.42,2.44s.78,2,2.5,2.6l4.63,1.56c7,2.34,9.37,5.67,9.37,10.7,0,6.48-4,11.17-13.29,11.17-7.89,0-12.37-3.64-14.54-6.55l6.8-5.14c1.72,2.13,3.78,3.84,7.31,3.84,2.84,0,4.43-.84,4.43-2.83,0-1.5-1.13-2.21-3.45-3m38.54-22.78c.15-.35.45-.35.61,0l17,35.91h-9.69l-1.33-3H347.58l-1.27,3h-9.19Zm20.88.17c0-.31.15-.57.71-.1l22,18.27V130.12h8.81V166c0,.41-.13.56-.7.1l-22-18.23v17.6h-8.82Zm54.59,0c6.19,0,11,2.34,14.08,6.28l-6.61,5.67a9.3,9.3,0,0,0-7.7-3.78c-5.75,0-8.88,4.31-8.88,9.87s3.17,10.18,9.37,10.18a14.63,14.63,0,0,0,6.83-1.4v-3h-6.91V146.2h15.31v14.74c-3.24,2.7-7.47,4.88-15.28,4.88-10.3,0-18.9-7.45-18.9-18.11s8.51-18.07,18.66-18.07m20.15.41h24.57v8H459.25v8.21h12.67v7.56H459.25v3.68h15.91v7.94H449.85Zm29.86,0H489v27.4H504v7.94H479.7Zm28.61,0h24.57v8H517.62v8.21H530.4v7.56H517.7v3.68h15.94v7.94H508.32ZM166.83,64.85l-.07,491.8c.07,67.76,0,100.58,111.07,119.45,5.28.95,10.4,1.73,15.25,2.49,36.36,5.95,73.85,12,106.92,41.72,33.08-29.78,70.59-35.78,106.89-41.57,5-.78,10-1.57,15.28-2.49,111.1-18.89,110.71-51.69,111.07-119.37L633.09,65Z"/><path class="cls-4" d="M281.09,157.7c5.89,0,9.24-4.36,9.24-9.91s-3.35-9.86-9.24-9.86-9.22,4.31-9.22,9.86,3.35,9.91,9.22,9.91"/></g></g></g></svg>