<svg id="Layer_1" data-name="Layer 1" xmlns="http://www.w3.org/2000/svg" xmlns:xlink="http://www.w3.org/1999/xlink" viewBox="0 0 800 800"><defs><style>.cls-1{fill:none;}.cls-2{clip-path:url(#clip-path);}.cls-3{clip-path:url(#clip-path-2);}.cls-4{fill:#c4c7c9;}.cls-5{fill:#8ac8ec;}.cls-6{fill:#d14f53;}</style><clipPath id="clip-path"><rect class="cls-1" x="144.2" width="511.59" height="800"/></clipPath><clipPath id="clip-path-2"><rect class="cls-1" x="144.2" y="-0.01" width="511.59" height="800.01"/></clipPath></defs><title>MIN-Logo</title><g class="cls-2"><g id="MIN-Logo"><g class="cls-3"><path class="cls-4" d="M482.82,70l-9.29,44.58c-2.74,13-6.16,29.18-10,47.14l-2.23,1c4.28-48,4.16-86.27-4.35-104.59a114.59,114.59,0,0,0-32.06-40.46C405.36,1.92,392.76,0,392.76,0L393,194.55,174.08,296.39c-29.83,14-29.88,49.11-29.88,49.11V680.43L400,800,655.79,680.43V72.29L526.43,132.46a163.79,163.79,0,0,0-18.54-34.27c-3-4.42-6.06-8.49-9-12.23-5.24-6.66-16.07-16-16.07-16"/><polygon class="cls-4" points="248.91 149.77 260.67 183.78 272.44 149.77 307.75 156.6 284.19 129.41 307.75 102.22 272.44 109.05 260.67 75.04 248.91 109.05 213.59 102.22 237.16 129.41 213.59 156.6 248.91 149.77"/><path class="cls-5" d="M174.08,459.19c-29.83,14-29.88,49.09-29.88,49.09V670.93s0-35.13,29.88-49.09L655.8,397.71V235.07Z"/><path d="M603.39,478c14.88-17.67,18-34.19,18-34.19S494.13,485.21,452.25,499c10.49-4.62,18.09-7.24,22.68-9.21C492,482.46,602.75,445.21,615.15,422c12.09-22.65,11.66-41.33,11.66-41.33s-124.13,71.8-168.69,97.71c10.42-7.5,18.12-12.14,22.68-15.36,16.85-11.91,128.62-78,136.71-106.1,7.91-27.41,3.14-47.61,3.14-47.61s-118,106.4-160.58,145c8.82-9.63,15.58-16,19.57-20.26C495.2,417.19,601.4,319.56,603.73,287.12c2.23-31.62-7.6-52.47-7.6-52.47S489.57,381.55,453.57,431.42c7.57-12.84,13.58-21.48,17-27.18,13-21.9,105.89-152.53,100.91-188.31-4.85-34.89-20.37-55.27-20.37-55.27S470.35,342.39,442.17,406.15c5.44-16.39,10.18-27.57,12.62-34.75,9.08-26.8,79.85-190.22,66.17-228-5.82-16.06-12-26.19-19.69-37.72a126.09,126.09,0,0,0-14.5-18.24C483,105.19,455,237.61,436.63,324.66l-10.74,61.41c-3.87,22.19-.23,37,1.51,42.31l1.37,3.91c20.43,60.53,4.68,89.85-3.1,99.71l-.31.39a39.38,39.38,0,0,1-11.25,9.91,31.67,31.67,0,0,1-14.67,3.7,30,30,0,0,1-8.81-1.33c-26.92-8.89-17.13-39.2-17.06-39.49-2.23,12.62,1,20.83,4.05,25.5a24.59,24.59,0,0,0,20.51,11.17c13.68,0,21.19-9.29,23.65-12.36l.31-.37c7.41-9.38,22.42-37.69,1.59-97.57h0c-.57-1.68-6.7-21-2.94-42.65l14.42-83.08c10.42-66.2,32.07-204,14.93-240.85-7.92-17-19.2-29-29.86-37.69a100.71,100.71,0,0,0-20.34-13.1l.43,328.25c0,17.54.6,32,1.43,43.84,0,0,.62,8.32,1.54,17s5,26.43,7.3,34.5l2.84,9.46c10.66,37.35,5.72,61-2.87,71.84-2.06,2.54-5.49,7.06-12.25,7.06-7.58,0-15.67-9-6-31.62s14.55-46.46-6-66.89a52.33,52.33,0,0,0-6.33-5.66,232.9,232.9,0,0,0-31.93-20.68c-4.7-2.56-30.32,2.7-30.32,2.7l-61.38-27.47-.11,1.12S344.33,441,360.35,454.45c14.75,12.34,7,31.87-7.18,43-16.19,12.73-64.1,39.65-64.1,39.65V540c0,32,4.73,45.22,26.53,72,42,51.54,61,72.3,61,126,2.39,1.65,10.86,5.33,10.86,5.33V652.41c0-41.25,10.74-68.94,60.77-68.94l-35-32.76c5.08,3.78,8.32,6.73,10.59,8.43,8.8,6.56,60.45,52.19,76,51.67,15.16-.51,24.52-6.23,24.52-6.23S443.6,558,421.08,545.12c7.47,3.31,12.4,6.07,15.53,7.5,11.08,5.1,77.84,42.76,94.64,38.6,16.33-4.07,25.25-12.47,25.25-12.47S456.89,546.47,430,537.86c9.21,1.93,15.42,3.85,19.25,4.7,13.22,3,94.5,28.49,111.76,20.09,16.84-8.18,24.6-19.38,24.6-19.38s-113.62-11.63-147.2-15c8.12.11,16,.6,19.7.63,15,.22,109.28,9.14,126.09-4,16.41-12.79,22.25-26.73,22.25-26.73s-123.23,13-160.86,17.13c10.07-2.11,17.26-3,21.67-3.87,16.4-3.27,120.87-15.33,136.12-33.47"/><path class="cls-6" d="M355.82,425.06s-5.15,1.37-9.06-1-5.12-7.55-5.12-7.55,5.15-1.37,9.06,1,5.12,7.53,5.12,7.53"/><path d="M584.89,644.2s2.85-1.23,2.85-5.45V632.6l-31.3,14.65v52.82l9.52-4.48V676.28l10.93-5.15a6,6,0,0,0,2.5-5.3v-5.41L566,666.74V653.11Z"/><path d="M616.89,628.87c1.19-.55,2.15-.14,2.15,1V634h0a2.16,2.16,0,0,0,2.14,2.19h.07A2.27,2.27,0,0,0,622,636l6.19-2.91v-6.69a8.18,8.18,0,0,0-8.32-8,8.64,8.64,0,0,0-3,.56l-17.69,8.23a11.37,11.37,0,0,0-6.27,10.12v34.07a7.27,7.27,0,0,0,7.25,7.29h.16a7.28,7.28,0,0,0,3.08-.71l18.51-8.68a11.31,11.31,0,0,0,6.23-10.09v-9.66L621,652.84a3.86,3.86,0,0,0-2,3.41v2.47a3.72,3.72,0,0,1-2.14,3.07l-12.3,5.93c-1.2.57-2.14.14-2.14-1V638.13a3.76,3.76,0,0,1,2.14-3.07Z"/><path d="M493.89,712.22l-18.06-27.29-9.62,4.48v52.87s4-1.91,6.8-3.22c.55-.31,2.74-1.77,2.74-5.47V701.94l18.51,27.2,9.26-4.33V672l-6.63,3.1c-.66.42-2.91,1.37-2.91,5.38Z"/><path d="M448.89,745.8V719.29L439.6,745l-8.1,3.79-10.83-17.61V759.3A5.91,5.91,0,0,1,417.5,765l-6,2.84V715l8.64-4,14,24.73,13.27-37.49,10.72-5V746L453,748.4a3,3,0,0,1-3.9-1.67,3.3,3.3,0,0,1-.21-.93"/><path d="M511.58,668.22v41.51a7.13,7.13,0,0,0,7.13,7.13h.09a7.47,7.47,0,0,0,3-.69l19.89-9.25h0a11.25,11.25,0,0,0,6.63-10.22h0V651l-6.64,3.11c-2.51,1.17-2.91,3.93-2.91,5.55V696.3a3.72,3.72,0,0,1-2.14,3.05l-13.45,6.27c-1.19.55-2.14.12-2.14-1.06v-36a3,3,0,0,0-3-3,3.11,3.11,0,0,0-1.2.25Z"/></g></g></g></svg>