<svg id="Layer_1" data-name="Layer 1" xmlns="http://www.w3.org/2000/svg" viewBox="0 0 800 800"><defs><style>.cls-1{fill:#101820;}.cls-2{fill:#0033a1;}.cls-3{fill:#9ea1a2;}</style></defs><title>MTL-Logo-New</title><path class="cls-1" d="M747,400c0,191.64-155.36,347-347,347S53,591.64,53,400,208.36,53,400,53,747,208.36,747,400"/><path class="cls-2" d="M400,732.34C216.74,732.34,67.66,583.25,67.66,400S216.74,67.66,400,67.66,732.35,216.74,732.35,400,583.26,732.34,400,732.34m0-646.86C226.58,85.48,85.48,226.57,85.48,400S226.58,714.51,400,714.51,714.52,573.42,714.52,400,573.42,85.48,400,85.48"/><path class="cls-3" d="M135,325.2c-1.63,5.81,2.32,9,8.87,10.85s11.64,1.15,13.26-4.67c1.31-4.68-1-7.22-4.72-8.9l2.45-8.79c8,3.07,12.24,9.74,9.56,19.31-3.09,11-12.46,14.8-23,11.84s-16.57-11-13.48-22c2.66-9.53,9.75-13,18.09-11.59l-2.46,8.8c-4-.43-7.26.55-8.56,5.19"/><polygon class="cls-3" points="140.26 290.07 166.68 301.57 173.11 286.77 179.95 289.75 169.88 312.91 136.62 298.45 140.26 290.07"/><path class="cls-3" d="M190,273.9c-5.65,9.39-12,10.49-19.73,5.83l-19.87-12,4.71-7.83,19.87,12c4,2.43,6.57,1.58,8.63-1.85s1.64-6.07-2.4-8.5l-19.87-11.95,4.7-7.83,19.87,12c7.74,4.65,9.74,10.77,4.09,20.16"/><path class="cls-3" d="M200.76,224.86l.08.07c2.92-2.52,6.94-3.42,11.13,0,6,4.89,5.15,10.6.38,16.4l-11.5,14-28-23L184,218.72c4.8-5.84,9.59-7,14.37-3.1a7.63,7.63,0,0,1,2.38,9.24M194,229.71c1.61-2,2.43-3.91.12-5.81s-4.07-.72-5.68,1.24l-4,4.86,5.57,4.57Zm6.94,13.85,4.16-5.06c2.41-2.94,2.93-5,.3-7.16s-4.51-1.22-6.93,1.72l-4.15,5.05Z"/><path class="cls-3" d="M209.11,191.9l12.42-10.21c7.8-6.42,16.63-5.27,24,3.74s7.19,17.54-.6,23.95l-12.82,10.54Zm25.36,16.46,4.66-3.83c4.39-3.62,3.57-8.2-.62-13.3s-8.56-6.81-12.95-3.2l-4.66,3.83Z"/><polygon class="cls-3" points="271.11 164.63 274.97 171 261.44 179.2 265.3 185.58 281.27 175.91 285.13 182.29 261.35 196.69 242.56 165.67 266.07 151.42 269.94 157.8 254.23 167.31 257.57 172.82 271.11 164.63"/><polygon class="cls-3" points="315.69 146.83 318.34 153.8 304.72 158.97 309.47 171.49 300.93 174.73 288.07 140.81 313.31 131.24 315.95 138.21 299.25 144.54 302.08 151.99 315.69 146.83"/><path class="cls-3" d="M324.14,146.57c-2.41-10.64,2.11-19.87,13.34-22.41s19.29,3.86,21.69,14.5-2.2,20-13.34,22.46-19.28-3.86-21.69-14.55m26.12-5.9c-1.38-6.14-4.7-10.69-11.13-9.24s-7.47,7-6.09,13.13,4.67,10.75,11.15,9.29,7.47-7,6.07-13.18"/><path class="cls-3" d="M365,137.83c-.7-10.88,5.22-19.29,16.71-20s18.44,6.86,19.14,17.74-5.32,19.36-16.72,20.09-18.43-6.86-19.13-17.8m26.73-1.7c-.4-6.28-3-11.3-9.54-10.88s-8.48,5.72-8.08,12,2.91,11.36,9.55,10.93,8.48-5.72,8.07-12.05"/><polygon class="cls-3" points="416.75 125.97 406.23 125.16 406.8 117.72 436.89 120.03 436.32 127.47 425.85 126.66 423.64 155.39 414.54 154.69 416.75 125.97"/><polygon class="cls-3" points="460.44 123.89 471.17 126.99 471.92 151.29 472.01 151.31 485.6 131.16 496.32 134.25 486.26 169.11 477.97 166.71 484.24 145.02 484.14 144.99 471.39 164.81 465.25 163.04 465.03 139.47 464.93 139.45 458.67 161.14 450.38 158.74 460.44 123.89"/><path class="cls-3" d="M498.4,154.45c4.75-9.82,14-14.24,24.4-9.23s12.69,15,7.94,24.85-14.14,14.24-24.42,9.27-12.68-15-7.92-24.89m24.12,11.65c2.74-5.67,3-11.3-3-14.17s-10.2.82-12.94,6.49-3,11.32,2.95,14.2,10.19-.82,12.95-6.52"/><polygon class="cls-3" points="547.48 159.13 554.99 164.33 553.16 189.28 553.24 189.34 565.51 171.6 573.02 176.8 552.38 206.63 544.87 201.44 546.71 176.48 546.62 176.43 534.35 194.16 526.84 188.96 547.48 159.13"/><polygon class="cls-3" points="582.68 195.05 574.93 187.9 579.98 182.42 602.17 202.88 597.12 208.37 589.39 201.25 569.86 222.43 563.15 216.24 582.68 195.05"/><path class="cls-3" d="M608.25,209.34l10.89,13.19c5.14,6.22,5.39,12.33.11,16.69-3.72,3.07-7.88,2.82-11.53,0l-.09.06c4.58,8-8.36,14.41-7.5,16.4l-.4.33-6-7.32c0-2.33,10.71-6.87,5.77-12.86l-3.62-4.38-9.74,8.05-5.82-7Zm-6.66,17.35,3.94,4.77c2.33,2.82,4.57,3.47,6.92,1.53s2.14-4.27-.19-7.08l-3.94-4.78Z"/><path class="cls-3" d="M634.62,269.74l-6.36,3.9L620,260.15l-6.36,3.9L623.39,280,617,283.86,602.5,260.17l30.91-19,14.39,23.44-6.36,3.9-9.61-15.65-5.49,3.37ZM654,254.49l-8.79-.74L642,248.56l7.19-1.86Z"/><path class="cls-3" d="M630.13,294l-7.86.85-3.62-8.38,38.51-2.31,3.62,8.38-28.12,26.4L629,310.5l6-5.14Zm10.51,6.79,10.67-9.08,0-.09-13.93,1.54Z"/><polygon class="cls-3" points="670.89 321.46 643.14 329.21 647.47 344.75 640.29 346.75 633.5 322.41 668.44 312.67 670.89 321.46"/><path class="cls-3" d="M665,474.8c1.62-5.81-2.32-9-8.87-10.85s-11.63-1.15-13.26,4.67c-1.31,4.68,1,7.22,4.73,8.9l-2.46,8.8c-8-3.08-12.24-9.75-9.56-19.32,3.09-11,12.46-14.79,23-11.84s16.57,11,13.48,22c-2.66,9.53-9.75,13-18.09,11.59l2.46-8.8c4,.44,7.26-.55,8.56-5.19"/><polygon class="cls-3" points="659.75 509.93 633.32 498.44 626.89 513.23 620.05 510.25 630.13 487.09 663.39 501.55 659.75 509.93"/><path class="cls-3" d="M610,526.1c5.65-9.39,12-10.49,19.73-5.83l19.87,12-4.71,7.82-19.87-12c-4-2.43-6.57-1.58-8.63,1.86s-1.64,6.06,2.4,8.49l19.87,12-4.71,7.82-19.86-12c-7.74-4.66-9.74-10.78-4.09-20.17"/><path class="cls-3" d="M599.24,575.14l-.08-.07c-2.92,2.52-6.94,3.42-11.14,0-5.95-4.89-5.14-10.6-.37-16.39l11.5-14,28,23L616,581.28c-4.8,5.84-9.59,7-14.37,3.1a7.61,7.61,0,0,1-2.38-9.24m-.13-18.69-4.16,5c-2.41,2.94-2.93,5-.3,7.17s4.51,1.21,6.93-1.73l4.15-5.05Zm6.94,13.84c-1.61,2-2.43,3.91-.12,5.81s4.07.72,5.68-1.24l4-4.85L610,565.43Z"/><path class="cls-3" d="M590.89,608.1l-12.42,10.21c-7.8,6.42-16.63,5.27-24-3.74s-7.19-17.54.6-24l12.82-10.54Zm-25.36-16.46-4.66,3.84c-4.39,3.61-3.58,8.19.61,13.29s8.57,6.81,13,3.2l4.66-3.83Z"/><polygon class="cls-3" points="528.89 635.38 525.03 629 538.56 620.8 534.7 614.42 518.73 624.09 514.87 617.72 538.65 603.31 557.44 634.33 533.92 648.58 530.06 642.2 545.77 632.69 542.43 627.18 528.89 635.38"/><polygon class="cls-3" points="484.3 653.17 481.66 646.2 495.27 641.03 490.53 628.51 499.07 625.27 511.93 659.2 486.69 668.76 484.05 661.79 500.74 655.46 497.92 648.01 484.3 653.17"/><path class="cls-3" d="M475.86,653.43c2.4,10.64-2.12,19.87-13.35,22.41s-19.28-3.86-21.68-14.5,2.2-20,13.33-22.46,19.29,3.86,21.7,14.55m-26.13,5.9c1.39,6.14,4.71,10.69,11.14,9.24s7.47-7,6.08-13.13-4.66-10.75-11.14-9.29-7.47,7-6.08,13.18"/><path class="cls-3" d="M435,662.17c.7,10.88-5.22,19.29-16.72,20s-18.43-6.85-19.13-17.74,5.32-19.36,16.72-20.08,18.43,6.85,19.13,17.79m-26.73,1.7c.4,6.28,3,11.31,9.54,10.89s8.48-5.73,8.08-12-2.91-11.36-9.55-10.93-8.48,5.72-8.07,12"/><polygon class="cls-3" points="383.25 674.04 393.77 674.84 393.2 682.28 363.11 679.97 363.68 672.53 374.15 673.34 376.35 644.61 385.46 645.31 383.25 674.04"/><polygon class="cls-3" points="339.55 676.11 328.83 673.01 328.08 648.72 327.98 648.69 314.4 668.85 303.67 665.75 313.74 630.89 322.03 633.29 315.76 654.98 315.86 655.01 328.61 635.19 334.75 636.96 334.97 660.53 335.06 660.55 341.33 638.86 349.62 641.25 339.55 676.11"/><path class="cls-3" d="M301.6,645.55c-4.74,9.82-14,14.24-24.4,9.23s-12.68-15-7.94-24.85,14.14-14.23,24.42-9.27,12.68,15,7.92,24.89M277.48,633.9c-2.74,5.67-3,11.3,3,14.17s10.2-.82,12.94-6.49,3-11.31-2.94-14.21-10.2.82-13,6.53"/><polygon class="cls-3" points="252.52 640.87 245.01 635.68 246.84 610.73 246.76 610.67 234.49 628.4 226.98 623.2 247.62 593.37 255.13 598.57 253.29 623.52 253.38 623.58 265.65 605.84 273.16 611.04 252.52 640.87"/><polygon class="cls-3" points="217.32 604.95 225.07 612.1 220.02 617.58 197.83 597.12 202.88 591.64 210.6 598.76 230.14 577.57 236.85 583.76 217.32 604.95"/><path class="cls-3" d="M191.74,590.66l-10.88-13.18c-5.14-6.23-5.39-12.34-.11-16.7,3.72-3.07,7.88-2.82,11.53,0l.08-.07c-4.57-8,8.37-14.41,7.51-16.4l.4-.33,6,7.32c0,2.34-10.71,6.87-5.77,12.86l3.62,4.38,9.74-8,5.82,7Zm6.67-17.35-3.94-4.77c-2.33-2.82-4.57-3.47-6.92-1.53s-2.14,4.27.19,7.08l3.94,4.78Z"/><path class="cls-3" d="M146.07,545.53l8.78.73,3.19,5.19-7.19,1.85Zm19.32-15.26,6.35-3.9L180,539.86l6.35-3.91-9.76-15.9,6.35-3.9,14.55,23.68-30.91,19-14.38-23.43,6.35-3.9,9.61,15.65,5.49-3.37Z"/><path class="cls-3" d="M169.87,506.05l7.86-.85,3.62,8.38-38.51,2.31-3.62-8.38,28.12-26.39L171,489.5l-6,5.14Zm-10.51-6.79-10.67,9.08,0,.09,13.93-1.53Z"/><polygon class="cls-3" points="129.1 478.54 156.86 470.8 152.53 455.25 159.71 453.25 166.5 477.59 131.56 487.34 129.1 478.54"/><path class="cls-3" d="M677.77,394.87a5.15,5.15,0,0,0-1.94.37c-4.54,1.64-7.54,7.08-7.71,15.13h-2.38c0-7.37,1.25-9.69,4.59-18.93,1.7-4.31.68-9.69-2.33-14.68a34.78,34.78,0,0,0-4-5.1,35.57,35.57,0,0,0-4,5.1c-3,4.93-4,10.32-2.32,14.68,3.28,9.24,4.59,11.56,4.59,18.93H660c-.12-8.1-3.18-13.49-7.71-15.13a5.43,5.43,0,0,0-2-.37,7,7,0,0,0-5,2.41c-2.95,3-3.8,11.34,4.81,12.92-1-1.36-.85-4.36,1-5.38a4,4,0,0,1,1.78-.42,3,3,0,0,1,1.9.59c1.19.73,2.32,3,2.32,5.33H653v4.59h8.51a5.91,5.91,0,0,1-3.8,5.27c.33,1,1.68,2.89,3.58,2.89h.16a8.88,8.88,0,0,0,2.55,5.27,8.6,8.6,0,0,0,2.55-5.27h.16c1.9,0,3.31-1.95,3.58-2.89a5.91,5.91,0,0,1-3.8-5.27H675v-4.59H670.9c0-2.33,1.13-4.6,2.32-5.33a3.21,3.21,0,0,1,1.93-.57,4,4,0,0,1,1.75.4c1.82,1.07,1.88,4,1,5.38H678c8.62-1.58,7.77-9.92,4.82-12.92a7.09,7.09,0,0,0-5-2.41"/><path class="cls-3" d="M149.69,394.87a5.19,5.19,0,0,0-1.94.37c-4.53,1.64-7.54,7.08-7.71,15.13h-2.38c0-7.37,1.25-9.69,4.6-18.93,1.7-4.31.67-9.69-2.33-14.68a35.57,35.57,0,0,0-4-5.1,34.78,34.78,0,0,0-4,5.1c-3,4.93-4,10.32-2.33,14.68,3.29,9.24,4.59,11.56,4.59,18.93h-2.38c-.11-8.1-3.17-13.49-7.71-15.13a5.34,5.34,0,0,0-2-.37,7.07,7.07,0,0,0-5,2.41c-2.94,3-3.79,11.33,4.82,12.92-1-1.36-.85-4.36,1-5.38a4,4,0,0,1,1.78-.42,3,3,0,0,1,1.91.59c1.19.73,2.32,3,2.32,5.32h-4.08v4.6h8.5a5.88,5.88,0,0,1-3.79,5.27c.33,1,1.67,2.89,3.57,2.89h.17a8.82,8.82,0,0,0,2.55,5.27,8.6,8.6,0,0,0,2.55-5.27h.16c1.9,0,3.3-2,3.58-2.89a5.89,5.89,0,0,1-3.8-5.27h8.5v-4.6h-4.08c0-2.32,1.14-4.59,2.32-5.32a3.24,3.24,0,0,1,1.94-.57,4.08,4.08,0,0,1,1.75.4c1.81,1.07,1.87,4,1,5.38h.12c8.61-1.59,7.76-9.92,4.81-12.92a7.11,7.11,0,0,0-5-2.41"/><polygon class="cls-3" points="363.48 291.04 400 327.55 436.67 290.89 436.67 348.39 466.29 318.77 466.29 224.77 400 291.61 333.71 225.72 333.71 318.77 363.48 348.54 363.48 291.04"/><polygon class="cls-3" points="451.52 214.91 436.62 200.01 410.54 226.09 410.54 183.66 389.46 183.66 389.46 226.09 363.38 200.01 348.48 214.91 400 266.44 451.52 214.91"/><polygon class="cls-3" points="557.3 505.53 557.3 484.45 484.44 484.45 484.44 557.32 505.52 557.32 505.52 520.43 545.76 560.68 560.67 545.78 520.42 505.53 557.3 505.53"/><polygon class="cls-3" points="279.58 294.5 242.7 294.5 242.7 315.57 315.56 315.57 315.56 242.71 294.48 242.71 294.48 279.59 254.11 239.22 239.21 254.12 278.5 293.41 279.58 294.5"/><polygon class="cls-3" points="557.31 294.37 520.42 294.37 560.67 254.12 545.76 239.22 505.52 279.46 505.52 242.58 484.44 242.58 484.44 315.45 557.31 315.45 557.31 294.37"/><polygon class="cls-3" points="242.7 505.4 279.58 505.4 239.21 545.78 254.11 560.68 293.4 521.39 294.49 520.31 294.49 557.19 315.56 557.19 315.56 484.32 242.7 484.32 242.7 505.4"/><polygon class="cls-3" points="436.52 508.96 400 472.44 363.46 508.99 363.46 451.48 333.71 481.23 333.71 575.23 400 508.39 466.29 574.28 466.29 481.23 436.52 451.46 436.52 508.96"/><polygon class="cls-3" points="348.48 585.09 363.38 599.99 389.46 573.91 389.46 616.34 410.54 616.34 410.54 573.91 436.62 599.99 451.52 585.09 400 533.56 348.48 585.09"/><polygon class="cls-3" points="574.28 333.71 481.23 333.71 451.46 363.48 508.96 363.48 472.45 400 508.38 435.94 450.88 435.94 481.23 466.29 575.23 466.29 508.39 400 574.28 333.71"/><polygon class="cls-3" points="616.34 389.46 573.91 389.46 599.99 363.38 585.09 348.48 533.56 400 585.09 451.52 599.99 436.62 573.91 410.54 616.34 410.54 616.34 389.46"/><polygon class="cls-3" points="291.04 436.52 327.56 400 291.62 364.06 349.12 364.06 318.77 333.71 224.77 333.71 291.61 400 225.72 466.29 318.77 466.29 348.54 436.52 291.04 436.52"/><polygon class="cls-3" points="214.91 348.48 200.01 363.38 226.09 389.46 183.66 389.46 183.66 410.54 226.09 410.54 200.01 436.62 214.91 451.52 266.44 400 214.91 348.48"/></svg>