<svg id="Layer_1" data-name="Layer 1" xmlns="http://www.w3.org/2000/svg" viewBox="0 0 800 800"><defs><style>.cls-1{fill:#ece83a;}.cls-2{fill:#1f1646;}</style></defs><title>NSC-Logo</title><polygon class="cls-1" points="500.69 23.76 302.39 23.76 138 160.85 138 641.67 302.39 778.76 500.69 778.76 665.08 641.67 665.08 160.85 500.69 23.76"/><path class="cls-2" d="M494.1,41.86,646.93,169.3V633.22L494.1,760.66H309L156.15,633.22V169.3L309,41.86H494.1m3.28-9.07H305.7L147.09,165.06v472.4L305.7,769.73H497.38L656,637.46V165.06l-3.26-2.72L497.38,32.79Z"/><polygon class="cls-2" points="365.18 490.15 365.18 343.71 434.14 490.15 474.25 490.15 328.82 181.31 328.82 490.15 365.18 490.15"/><polygon class="cls-2" points="437.9 96.06 437.9 242.5 368.94 96.06 328.82 96.06 474.25 404.89 474.25 96.06 437.9 96.06"/><rect class="cls-2" x="265.21" y="145.32" width="27.26" height="295.56"/><rect class="cls-2" x="210.68" y="194.58" width="18.18" height="197.04"/><rect class="cls-2" x="510.61" y="145.32" width="27.26" height="295.56" transform="translate(1048.48 586.21) rotate(180)"/><rect class="cls-2" x="574.22" y="194.58" width="18.18" height="197.04" transform="translate(1166.62 586.21) rotate(180)"/><polygon class="cls-2" points="396 671.56 375.82 651.37 375.82 636.74 383.24 636.74 383.24 651.37 395.42 651.37 395.42 631.79 389.12 625.49 369.95 625.49 363.65 631.79 363.65 657.48 383.59 677.42 383.59 694.84 375.94 694.84 375.94 677.42 363.65 677.42 363.65 700.25 369.95 706.55 389.7 706.55 396 700.25 396 671.56"/><polygon class="cls-2" points="407.66 631.79 407.66 700.25 413.96 706.55 433.13 706.55 439.43 700.25 439.43 677.42 427.37 677.42 427.37 694.84 420.06 694.84 420.06 636.74 427.37 636.74 427.37 651.37 439.43 651.37 439.43 631.79 433.13 625.49 413.96 625.49 407.66 631.79"/><polygon class="cls-2" points="355.02 572.43 334.85 552.24 334.85 537.62 342.26 537.62 342.26 552.24 354.44 552.24 354.44 532.67 348.13 526.37 328.97 526.37 322.67 532.67 322.67 558.35 342.61 578.29 342.61 595.71 334.96 595.71 334.96 578.29 322.67 578.29 322.67 601.12 328.97 607.42 348.72 607.42 355.02 601.12 355.02 572.43"/><path class="cls-2" d="M240.22,526.37l14.84,44.27V526.37h12.17v81h-11l-15.31-44.16v44.16H228.85v-81Z"/><path class="cls-2" d="M378.85,526.37v33.41h7.89V526.37h12.17v81H386.74V571.49h-7.89v35.93H366.68v-81Z"/><path class="cls-2" d="M421,526.37l7.4,63.78,7.39-63.78h11.8l-10.87,81H420.1l-10.87-81Z"/><path class="cls-2" d="M470,526.37v81H457.92v-81Z"/><path class="cls-2" d="M494.09,526.37v69.11h11.49v11.94H481.91v-81Z"/><path class="cls-2" d="M527,526.37v69.11h11.5v11.94H514.85v-81Z"/><path class="cls-2" d="M574.22,538.31H560v21.47h13.43v11.71H560v24h14.26v11.94H547.79v-81h26.43Z"/><path class="cls-2" d="M302.52,607.42h11.8l-10.87-81H286.8l-10.86,81h11.8l1.57-13.54H301Zm-11.86-25.25,4.47-38.53,4.46,38.53Z"/></svg>