<svg id="Layer_1" data-name="Layer 1" xmlns="http://www.w3.org/2000/svg" viewBox="0 0 800 800"><defs><style>.cls-1{fill:#011e41;}.cls-2{fill:#6aaae4;}.cls-3{fill:#ff5100;}.cls-4{fill:#fff;}</style></defs><title>NYC-Logo</title><g id="NYC-Logo"><path class="cls-1" d="M400,56C210.33,56,56,210.34,56,400s154.3,344,344,344S744,589.67,744,400,589.67,56,400,56Z"/><path class="cls-2" d="M708.18,400c0-170.21-138-308.19-308.17-308.19S91.82,229.79,91.82,400,229.8,708.19,400,708.19,708.18,570.21,708.18,400Z"/><polygon class="cls-1" points="115.39 416.47 108.65 395.73 126.29 382.91 143.94 395.73 137.2 416.47 115.39 416.47"/><polygon class="cls-1" points="662.66 416.47 655.91 395.73 673.56 382.91 691.2 395.73 684.46 416.47 662.66 416.47"/><path class="cls-1" d="M640.36,400c0-132.76-107.61-240.37-240.35-240.37S159.64,267.24,159.64,400,267.25,640.37,400,640.37,640.36,532.76,640.36,400Z"/><path class="cls-3" d="M400,729.88c-181.91,0-329.9-148-329.9-329.88S218.1,70.09,400,70.09,729.89,218.09,729.89,400,581.9,729.88,400,729.88Zm0-652.6C222,77.28,77.27,222,77.27,400S222,722.72,400,722.72,722.73,577.94,722.73,400,578,77.28,400,77.28Z"/><path class="cls-4" d="M400,625.48c-124.34,0-225.5-101.16-225.5-225.48S275.67,174.52,400,174.52,625.49,275.65,625.49,400,524.33,625.48,400,625.48Zm0-442.6c-119.74,0-217.14,97.4-217.14,217.12S280.27,617.13,400,617.13,617.12,519.72,617.12,400,519.73,182.88,400,182.88Z"/><polygon class="cls-4" points="449.87 334.11 449.87 352.45 464.64 352.45 464.64 449.72 342.66 333.98 320.9 334.11 305.08 334.11 305.08 352.45 319.37 352.45 319.37 459.82 304.77 459.82 304.77 478.16 353.51 478.16 353.51 459.82 338.54 459.82 338.54 355.86 467.58 477.84 467.99 478.22 483.83 478.14 483.83 352.45 498.61 352.45 498.61 334.11 449.87 334.11"/><polygon class="cls-4" points="409.46 570.86 409.46 430.16 389.76 411.51 389.76 570.86 374.86 570.86 374.86 590.59 425.11 590.59 425.11 570.86 409.46 570.86"/><path class="cls-4" d="M457.29,285.89l-58.15,55.54-61.44-58.7-27-26.24h9.38V237.06h-52.9v19.43h15.41l37.87,36.64,69.74,66.62v11.92l19.43,19.1V358.33l65.14-62.24A134.17,134.17,0,0,0,457.29,285.89Z"/><path class="cls-4" d="M477.57,236.43v20.14h10l-7.44,7.24a150.41,150.41,0,0,1,16.79,10.92l18.75-18.16h15V236.43Z"/><path class="cls-4" d="M382.81,532.59C316.78,523.86,267,467.06,267,400.44a133.45,133.45,0,0,1,46.09-100.73c.45-.41,1-.87,1.55-1.36l1.81-1.58L302,283.14l-1,.84c-.72.65-1.45,1.31-2.13,2a152.94,152.94,0,0,0,83.54,266.49l1.53.2V532.76Z"/><path class="cls-4" d="M527.82,298.54v17.23a154.72,154.72,0,0,0-10.24-13.58l.11-.11-.86-.93c-.65-.73-1.32-1.47-2-2.15a153.91,153.91,0,0,0-16.28-15.81l-1.42-1.28-.05.06a151.15,151.15,0,0,0-91.74-34.51l-.5,0c-1.59,0-3.08-.05-4.51-.05a152.92,152.92,0,0,0-70.92,17.5l-1.7.89,15.19,14.4.84-.41a132,132,0,0,1,56.59-12.68,133.34,133.34,0,0,1,83.76,29.72l4.46,4.05c16.31,14.78,29.42,34.13,37.94,56l.34.87h20.66V298.54Z"/><path class="cls-4" d="M527.87,439.6l-.3,1c-14.12,48.71-58.75,85.76-111.07,92.21l-1.21.13v19.81l1.54-.19c61.37-6.83,114.06-51.49,131.11-111.12l.49-1.74Z"/><path class="cls-1" d="M179.3,207.8l5.28-5.41,28.61,3.51-16.41-16,5.64-5.8,26.66,26-4.87,5-29.54-3.62L211.61,228,206,233.8Z"/><path class="cls-1" d="M212.31,175.69l22.33-17,4.43,5.8L223.2,176.56l4.57,6,14-10.64,4.43,5.79-14,10.64,4.74,6.24L253,182.33l4.42,5.77-22.54,17.2Z"/><path class="cls-1" d="M242,152.64l7.81-4,18.35,18.91L264,141.24l6.25-3.22,18.94,18.76-4.61-26,7.62-3.89L298,166.08l-6.34,3.24-18.56-17.85,3.61,25.5-6.35,3.24Z"/><path class="cls-1" d="M335.72,138.05l-19-18.8,9.34-2.13,12,12.58,5.48-16.58,9.08-2.07-9,25L347,150.54l-8,1.83Z"/><path class="cls-1" d="M358.37,129v-.11c-.85-10.56,6.79-19.84,18.24-20.77s20.33,7,21.18,17.53v.11c.83,10.53-6.8,19.84-18.25,20.77S359.21,139.52,358.37,129Zm30.9-2.45v-.11c-.52-6.37-5.59-11.3-12.16-10.78s-10.73,6.07-10.22,12.44v.11c.5,6.37,5.59,11.29,12.15,10.78S389.77,132.88,389.27,126.54Z"/><path class="cls-1" d="M408,107.6l17,1.3c4.72.36,8.27,2,10.52,4.6a11.7,11.7,0,0,1,2.53,8.71v.11a11.57,11.57,0,0,1-8.85,10.89l8,14-9.54-.74-7-12.49h-.1l-6.31-.49-.91,11.87-8.17-.63Zm15,19.26c4,.33,6.41-1.63,6.66-4.76V122c.27-3.48-2-5.47-6-5.77l-8.11-.62-.83,10.64Z"/><path class="cls-1" d="M450.27,111.76l8,1.8-3.59,15.86L473,116.9l9.65,2.18-18.26,12.06,10.71,24.41-9.59-2.18-7.75-18-5.19,3.4L450,149.86l-8-1.79Z"/><path class="cls-1" d="M499.85,144.77l0-.08a18.91,18.91,0,0,1,25.72-9.28c6.36,2.94,9.19,6.83,10.9,11.38l-7.27,3.26c-1.5-3.56-3.48-6.26-6.86-7.83-5.69-2.65-12,.19-14.68,6l0,.08c-2.7,5.8-.93,12.5,4.87,15.19,3.85,1.77,6.94,1.33,10.71.16l2.5,7c-5.2,2.1-10.12,2.61-16.64-.41A18.79,18.79,0,0,1,499.85,144.77Z"/><path class="cls-1" d="M547.62,147.82l7,4.22-19.28,31.84-7-4.24Z"/><path class="cls-1" d="M567.63,169.92l-9-6.8,4.53-6.05,24.66,18.54-4.55,6-9.05-6.8-17.84,23.7-6.54-4.93Z"/><path class="cls-1" d="M587.05,205.76l5.72-26.1,6.79,6.75-4.21,16.88L612.3,199l6.6,6.56L593,211.42,582.5,222l-5.81-5.77Z"/><path class="cls-1" d="M206.42,566.37l19.08,20.11-4.33,4.08L206.6,575.21l-7.36,7,12.91,13.63-4.31,4.09-12.93-13.61-11,10.42L179.42,592Z"/><path class="cls-1" d="M216.59,604l0-.08a19.06,19.06,0,0,1,27.23-3.21c9,7,10,18.77,3.55,27l0,.08A19.05,19.05,0,0,1,220.14,631C211.12,624,210.14,612.28,216.59,604Zm25.29,19.7.07-.08c4.44-5.71,4-13.69-1.85-18.23s-13.52-3-18,2.66l-.07.09c-4.44,5.71-4,13.68,1.85,18.23S237.43,629.43,241.88,623.71Z"/><path class="cls-1" d="M253.78,632.18l.05-.11a19.47,19.47,0,0,1,34.36,18.31l-.05.09a19.08,19.08,0,0,1-26.31,7.75C251.76,652.81,248.82,641.4,253.78,632.18ZM282,647.34l.06-.11c3.41-6.37,1.61-14.15-4.9-17.67s-13.86-.7-17.27,5.67l-.06.08c-3.41,6.39-1.62,14.18,4.9,17.66S278.63,653.7,282,647.34Z"/><path class="cls-1" d="M307.81,644.26l-11.1-4,2.07-5.69,28.4,10.29-2.07,5.72-11.09-4L303.38,675.8l-6.19-2.23Z"/><path class="cls-1" d="M332.65,646.38,349,649.84c4.16.87,7.19,2.72,8.83,5.22a8.35,8.35,0,0,1,1.16,6.56v.11c-.93,4.38-3.92,6.18-6.93,7,4,2.35,6.41,5.42,5.36,10.37l0,.11c-1.39,6.51-7.48,8.85-15.59,7.13l-16.86-3.59ZM343,680.7c4.37.93,7.39-.22,8.08-3.51l0-.11c.65-3.07-1.41-5.39-6.45-6.48l-10.15-2.15-2.12,10Zm1.4-15.81c4.11.9,7.2-.14,7.91-3.48l0-.09c.61-2.88-1.31-5.11-5.42-6l-9.2-2L335.7,663Z"/><path class="cls-1" d="M382.14,654.06l6.06.35,14.19,38.38-6.9-.41-3.25-9.17-17.58-1-4.35,8.76-6.69-.38Zm8,23.21L384.62,662l-7.24,14.51Z"/><path class="cls-1" d="M409.63,655l6.52-.54,2.55,31.19L438.22,684l.49,6-26,2.15Z"/><path class="cls-1" d="M441.35,651.88l6.39-1.33,6.43,30.59,19.14-4,1.23,5.82L449,688.29Z"/><path class="cls-1" d="M493.6,657.76l0-.08a18.84,18.84,0,0,1,9.95-25.31,19.41,19.41,0,0,1,15.67-.47l-1.91,6.1c-3.84-1.36-7.52-1.8-11.41-.11-6.54,2.86-8.95,10.26-6.05,17l0,.08c2.9,6.69,10,10.1,16.53,7.27,4.2-1.83,6.15-4.69,7.89-8.69l5.54,2.23C527.87,661,525,665,518.58,667.8A18.73,18.73,0,0,1,493.6,657.76Z"/><path class="cls-1" d="M522.22,624.09l5.59-3.4L544,647.42l16.74-10.15,3.09,5.09-22.32,13.55Z"/><path class="cls-1" d="M561.33,625l-13.47-16.65,5.08-4.11,13.31,16.46c4.36,5.37,9.46,6,14,2.34s5.07-8.6.76-13.93l-13.47-16.68,5.09-4.11,13.26,16.41c7,8.65,5.64,16.93-1.94,23S568.12,633.37,561.33,625Z"/><path class="cls-1" d="M578.13,582.94l11.3-12.3c2.87-3.13,6-4.81,9-4.95a8.43,8.43,0,0,1,6.24,2.34l.08.08c3.28,3,3.32,6.5,2.5,9.53,4.06-2.21,8-2.75,11.67.65l.08.08c4.9,4.49,3.82,10.94-1.8,17l-11.65,12.71Zm22-.7c2.85-3.11,3.53-6.29,1-8.6l-.08-.06c-2.15-2-5.06-1.5-7.91,1.61l-6.35,6.94,7.28,6.69ZM613,591.46c3-3.29,3.56-6.48,1.09-8.73l-.07-.09c-2.32-2.12-5.38-1.52-8.86,2.26l-7,7.65,7.52,6.91Z"/></g></svg>