<svg id="Layer_1" data-name="Layer 1" xmlns="http://www.w3.org/2000/svg" viewBox="0 0 800 800"><defs><style>.cls-1{fill:#e0d0a6;}.cls-2{fill:#051c2c;}.cls-3{fill:#3a8dde;}</style></defs><title>PHI-Logo</title><path class="cls-1" d="M755,400c0,195.75-159.24,355-355,355S45,595.76,45,400,204.26,45,400,45,755,204.26,755,400"/><path class="cls-2" d="M283.91,137l9.15-3.75-4.39-5.46a4.58,4.58,0,0,1-.54-.64,7.33,7.33,0,0,0-.51-.66l-1-1.22a17,17,0,0,0-1.23-1.47l-1.1-1.36c-.19-.27-.39-.51-.61-.8a5.49,5.49,0,0,0-.61-.76l.37,6.81Zm292,34.47c1.74,1.28,3.36,1.64,4.85,1s3.31-2.36,5.49-5.27c2.9-3.87,4.42-6.89,4.61-9.1.18-1.59-.8-3.18-3-4.82-1.87-1.4-3.44-2.06-4.69-2a2.91,2.91,0,0,0-1.91.61,14.69,14.69,0,0,0-2.14,2.41l-9.06,12.13,1.25,2c2,1.36,4.12,2.68,4.58,3M680.62,334.34l.1.46-.74-.1,2,9.69.64-.35,5.5-3a3.73,3.73,0,0,1,.75-.37c.13-.07.27-.17.42-.24l.22-.11a3.71,3.71,0,0,0,.73-.41l.94-.52c.37-.17.68-.34,1-.51s.72-.39,1-.59l1-.52a5.56,5.56,0,0,1,.88-.44c.19-.12.39-.22.59-.32,0,0,0,0,.09,0,.28-.17.59-.32.87-.49l-6.79-.89ZM360,123.85c.09.91.19,1.64.29,2.15a8.14,8.14,0,0,0,.3,1.28,2.9,2.9,0,0,0,.41.81,5.68,5.68,0,0,0,.69.63,3.77,3.77,0,0,0,2.11.93,15.52,15.52,0,0,0,3.52-.14,15.7,15.7,0,0,0,5.82-1.64,7.89,7.89,0,0,0,3.45-3.61,16,16,0,0,0,1.37-6.12,51.16,51.16,0,0,0-.42-9.1,48.08,48.08,0,0,0-1.63-8.55,15,15,0,0,0-2.7-5.4,8.06,8.06,0,0,0-4.17-2.6,17.53,17.53,0,0,0-6-.24,32.08,32.08,0,0,0-3.49.57,3.83,3.83,0,0,0-1.93,1,2.91,2.91,0,0,0-.73,1.77,15,15,0,0,0,.16,2.89Zm9.34,264.27c1.57-1,2.71-3.93,3.26-5.66a128.37,128.37,0,0,0-16.8,6.25c3.88.21,11.85.48,13.54-.59m230-4.56-11.14,10.07c-9-2.7-18.11-5.19-27.38-7.5-11.42,66.67-40.93,126.24-82.68,172.34a304.93,304.93,0,0,1-77.95,62.15A303.86,303.86,0,0,1,322,558.14C280.31,512,250.9,452.49,239.55,385.91q-14.45,3.57-28.37,7.75L200,383.56c5.07-1.74,9.4-3.11,9.4-3.11a638,638,0,0,1,99.3-20.91,703.81,703.81,0,0,1,186.76.53,629.73,629.73,0,0,1,94.3,20.3s4.73,1.5,9.57,3.19M334.66,393.88c0,.14.12.31.19.49s0,.12.08.17l.21.44c.05.08.08.15.13.24a4.92,4.92,0,0,0,.24.45,2.38,2.38,0,0,0,.17.31c.1.15.18.3.3.47a2.49,2.49,0,0,1,.2.32c.12.15.24.32.36.49a3.1,3.1,0,0,0,.27.34,6.28,6.28,0,0,0,.42.51l.3.35c.16.17.34.34.53.52a3,3,0,0,1,.3.32l.68.56c.12.09.2.17.3.26.36.25.73.52,1.12.76l.05,0c.39.22.77.45,1.21.66.12.07.29.13.44.2l1,.41a6.2,6.2,0,0,0,.6.18c.3.12.62.2.94.31l.71.15,1,.2.8.1c.35.05.74.07,1.11.1l.86,0h.46l.93,0c.22,0,.44,0,.67,0,.71,0,1.46-.1,2.25-.22A104.23,104.23,0,0,1,366.2,402c8.07-.22,12.53-.34,18.61-7.36a15.32,15.32,0,0,1,11.4-5.48l.49,0c17.77,0,33.48,9.86,33.68,22,.09,5.22-2.58,10.67-7.5,14.69-4,3.11-9.78,5.32-15,7.3,0,0-12.3,4.41-22.45,8-.54.15-48.24,15.27-48.24,44.19,0,5.67,2.5,11.23,7.31,16.08.65.64,1.32,1.28,2,1.89.24.2.51.4.76.59.49.4,1,.81,1.5,1.2l1,.67,1.47,1,1.13.67c.5.31,1,.61,1.52.9s.82.44,1.25.67l1.55.81c.46.22.9.41,1.35.61s1.08.51,1.64.75,1,.38,1.44.59l1.7.66,1.52.52,1.76.59c.52.17,1.06.32,1.59.47s1.2.36,1.82.53,1.1.28,1.64.42l1.89.46,1.71.35c.64.14,1.28.27,1.94.37s1.15.22,1.74.31,1.33.22,2,.3l1.78.24,2,.22,1.82.18,2.08.14c.61,0,1.23.08,1.84.12l2.11.06c.63,0,1.25,0,1.88,0h.73l2.7,0C430.69,517,457.91,501,458,482.19c.07-12-11.76-21.27-29.93-26.15-4.34,1.67-9.26,3.23-14.46,4.85-5,1.6-10.76,3.41-16.77,5.59-13.65,4.93-16.32,9.19-16.69,11.3a3.6,3.6,0,0,0,.74,2.89c5.22-3,12.84-5.26,21-6.12a65.79,65.79,0,0,1,6.94-.37c12.59,0,21.07,3.51,21.08,9.26a6.33,6.33,0,0,1-2.11,4.56c-4.36,4.41-15.28,7.24-27.8,7.24-10.57,0-20.42-3.34-25.81-8.69a13.18,13.18,0,0,1-4.17-9.23c0-11.7,17-17.5,28.22-21.31l3.82-1.32c9.86-3.58,21.79-8,21.79-8,19-6.12,29.09-22.57,26.59-38.43-3-18.73-21.39-31.82-44.85-31.82a62.49,62.49,0,0,0-6.94.39,29.47,29.47,0,0,1-4.7.39,13.51,13.51,0,0,1-6.3-1.24,18.31,18.31,0,0,0-6.86-2.11c-27.39,6.05-43.2,17.65-46.16,20m2.23,12.62a17.44,17.44,0,0,1-2.73-1.89c-1.14.44-2.28.84-3.47,1.23l-.86.29c-1.11.35-2.23.69-3.36,1l-.13,0c-1.17.32-2.32.59-3.5.86l-.88.19c-1.1.23-2.16.44-3.24.62l-.25.05q-1.73.28-3.42.51l-.88.1c-1,.12-2.06.24-3.07.32a2.5,2.5,0,0,0-.32,0c-1.11.09-2.2.14-3.28.19-.27,0-.55,0-.82,0-.95,0-1.91.05-2.84.07h-.39l-1.28,0H301.1l-1.32-.07-.93,0-1.45-.11-.71-.05c-.71,0-1.42-.13-2.07-.2a32.66,32.66,0,0,0,3.71,1.3c.64.21,1.34.37,2,.54l.59.14c.61.12,1.25.25,1.91.35l.39.07c.77.12,1.57.2,2.41.27q.3,0,.63,0c.69.05,1.4.09,2.12.09l.43,0h.27c.5,0,1,0,1.59-.06l.79,0c.81-.05,1.64-.12,2.5-.24l2.46-.27-1.95,1.73a49.61,49.61,0,0,1-11.93,6.79c8.87-1.15,24.85-8.28,34.32-13.87M464.05,514.28a24,24,0,0,0-3.38-12.11C451.43,518,425.21,528.86,396,528.86s-55.35-10.9-64.41-26.67A24,24,0,0,0,328,514.3c-.05,6.7,3,13.31,8.8,19.12,12,12.12,34.64,19.66,59,19.66,37.52,0,68.12-17.42,68.26-38.8m40.47-17.58h-1.81c-.32,0-.63,0-1,0s-.43,0-.65,0l-1,0c-.25,0-.5,0-.72,0s-.7,0-1.07-.06l-.81,0c-.35,0-.72-.05-1.09-.09l-.88-.08-1.15-.12-.95-.1-1.2-.15-1-.14c-.41-.07-.83-.12-1.25-.18l-1.05-.19-1.3-.22-1.08-.2-1.35-.29c-.37-.07-.75-.15-1.12-.24l-1.4-.33-1.13-.28-1.45-.38c-.38-.12-.76-.22-1.15-.32l-1.52-.46-1.13-.35c-.55-.17-1.1-.38-1.64-.56l-1.07-.36c-.61-.22-1.21-.45-1.82-.69l-.91-.34c-.92-.37-1.83-.76-2.76-1.16a45.81,45.81,0,0,1,5.49,14.05,41,41,0,0,0,5.24.32,50.62,50.62,0,0,0,25.66-6.92m-51.1-224.45-11-.64v47.33l11,.64ZM236.17,361.4a365.06,365.06,0,0,1,6.93-116.86A156.67,156.67,0,0,0,322,251c29.21-5.13,55.93-18.42,78.26-37.66,22.22,19.19,48.86,32.44,77.95,37.61a156.7,156.7,0,0,0,79.15-6.36,365.36,365.36,0,0,1,8.83,79.82,362,362,0,0,1-1.89,37,643.08,643.08,0,0,0-68.76-13.21,707.63,707.63,0,0,0-186.76-.42,658.28,658.28,0,0,0-72.57,13.63m253.7-30.1,9.95,1.37V302.59l14.34,32,6.22.86V271.07l-9.94-1.37v31.17l-14.51-33.16-6.06-.83ZM431.75,321c0,3.85,3.65,6.11,6.27,6.27l19.69,1.14.31,0c2.92,0,6.06-2.16,6.06-5.66V270.23c0-3.82-3.65-6.1-6.27-6.27l-20-1.15c-2.91,0-6.05,2.15-6.05,5.63ZM394.24,262.1l.05,64.42,10.81,0-.19-64.4ZM337.3,329.16l10-.64V298.23l14.54,29.32,6.2-.4V262.74l-10,.64V294.7l-14.7-30.33-6,.38Zm-56.75,1a4.92,4.92,0,0,0,5.21,5.3,9.2,9.2,0,0,0,1.17-.08l18.46-2.67a6.87,6.87,0,0,0,6.17-6.81V267.42L301,269v55.86l-9.88,1.42V270.38l-10.57,1.53ZM741.19,400c0,188.15-153.05,341.2-341.18,341.2S58.81,588.16,58.81,400,211.87,58.81,400,58.81,741.19,211.87,741.19,400M674,269.48l-22.35,10c-1,.44-1.77.78-2.38,1s-1.15.45-1.57.6a3.29,3.29,0,0,1-1.06.27h-.95a3.89,3.89,0,0,1-2.73-1,13,13,0,0,1-2.37-3.51L635.74,279l11.74,26.3,4.88-2.18a17.9,17.9,0,0,1-1-3.65,4.5,4.5,0,0,1,.53-2.53,3.73,3.73,0,0,1,.64-.93,4.58,4.58,0,0,1,1-.76,15.08,15.08,0,0,1,1.59-.91c.67-.32,1.57-.73,2.69-1.23l22.36-10c1-.45,1.75-.77,2.38-1l1.57-.62a3.77,3.77,0,0,1,1.06-.25h1a4,4,0,0,1,2.72,1,14.35,14.35,0,0,1,2.38,3.51l4.85-2.18-11.74-26.3-4.87,2.2a18.36,18.36,0,0,1,1,3.64,4.56,4.56,0,0,1-.55,2.52,9,9,0,0,1-.65.9,4,4,0,0,1-.95.81,13.22,13.22,0,0,1-1.62.91c-.71.34-1.59.76-2.67,1.23m-68.69-55.7c-.54.37-1,.71-1.37.94a3.56,3.56,0,0,1-1,.51c-.29.07-.59.15-.93.2a3.86,3.86,0,0,1-1,.12h-.27a4.72,4.72,0,0,1-.63-.08l-.23-.05a4.09,4.09,0,0,1-.78-.31,13.53,13.53,0,0,1-3.12-2.9l-4.24,3.27L605,232.56l19.25-14.75,9.66,12.54-19.27,14.73,13.26,17.28,4.26-3.3a16.81,16.81,0,0,1-2-3.43,4.11,4.11,0,0,1,0-2.58,3.3,3.3,0,0,1,.39-1,6.05,6.05,0,0,1,.74-1c.34-.34.79-.76,1.37-1.25l2.3-1.82L654.32,233c.84-.65,1.54-1.17,2.08-1.56l1.38-1a3.35,3.35,0,0,1,1-.49c.29-.08.58-.15,1-.22a3.83,3.83,0,0,1,.93-.1h.27a4.58,4.58,0,0,1,.66.08l.25,0a6.19,6.19,0,0,1,.8.34,15.57,15.57,0,0,1,3.2,3l4.23-3.26-13.16-17.11-15.94,12.15-9.63-12.53,15.94-12.15L634,183l-4.25,3.26a16.89,16.89,0,0,1,1.87,3.31,4.57,4.57,0,0,1,0,2.57,6.85,6.85,0,0,1-.42,1,4.34,4.34,0,0,1-.71,1,14.91,14.91,0,0,1-1.4,1.27c-.58.49-1.37,1.1-2.28,1.82l-19.43,14.93c-.82.65-1.53,1.17-2.07,1.56M538.13,173l23.46,17.53,3.21-4.29a15.47,15.47,0,0,1-3.13-3,4.63,4.63,0,0,1-.82-2.55,4.07,4.07,0,0,1,.08-1.13,7,7,0,0,1,.47-1.15c.24-.42.56-.95,1-1.56s1-1.4,1.73-2.39l2-2.66c1.86,3,5.78,6.47,8.61,8.6.53.39,1,.73,1.54,1.07.15.1.32.2.47.28.36.22.71.44,1.07.63.17.1.35.18.5.28.36.19.7.34,1.05.49l.47.21c.46.18.88.34,1.3.47l.17.07c.49.13,1,.25,1.44.35l.44.05c.32,0,.66.1,1,.12l.48,0h.43l.55,0a2.75,2.75,0,0,0,.41,0,12.85,12.85,0,0,0,1.37-.18q5.88-1.22,11.67-9,6.06-8.1,5.83-13.86c-.17-3.84-2.44-7.4-6.84-10.68-.54-.42-1.24-.91-2-1.5l-2.63-1.83q-2.42-1.56-4.55-3.09c-1.43-1-3.05-2.18-4.86-3.51l-14-10.46-3.19,4.3a14.51,14.51,0,0,1,2.64,2.65,4.59,4.59,0,0,1,.72,2.41c0,.39-.06.76-.12,1.12a4.76,4.76,0,0,1-.43,1.18,16.73,16.73,0,0,1-1,1.6c-.44.61-1,1.41-1.69,2.33l-14.68,19.63-1.59,2.08-1.08,1.28a3.82,3.82,0,0,1-.79.75,7.3,7.3,0,0,1-.85.45,4.9,4.9,0,0,1-.89.34l-.25.07-.73.08-.19,0a5.82,5.82,0,0,1-.77-.09,11.74,11.74,0,0,1-3.75-1.85Zm-57.48-26,42,17.4,6.56-15.85-6.1-2.53a20.28,20.28,0,0,1-2.55,4.22,5.94,5.94,0,0,1-2.79,2,3.52,3.52,0,0,1-1.2.32,3.24,3.24,0,0,1-.45,0,6.44,6.44,0,0,1-.92-.1,12.68,12.68,0,0,1-1.75-.51c-.68-.27-1.54-.59-2.57-1l-.95-.39c-.87-.37-1.62-.69-2.16-.94a6.75,6.75,0,0,1-1.33-.73,5,5,0,0,1-.83-.64,3.27,3.27,0,0,1-.54-.75,1.61,1.61,0,0,1-.25-.65,2.27,2.27,0,0,1,.08-.85,12.6,12.6,0,0,1,.39-1.25c.19-.51.46-1.16.79-2l9.61-23.21c.43-1,.76-1.77,1-2.39s.51-1.1.73-1.51a3.39,3.39,0,0,1,.57-.93c.22-.2.44-.42.71-.64a4,4,0,0,1,2.72-1.13,14.1,14.1,0,0,1,4.16,1l2.06-4.95L501,97.84l-2.06,5a16.19,16.19,0,0,1,3.26,1.94,4.53,4.53,0,0,1,1.35,2.21,8.15,8.15,0,0,1,.13,1.08,5.18,5.18,0,0,1-.12,1.24,18.37,18.37,0,0,1-.57,1.8c-.27.73-.63,1.64-1.08,2.71l-9.39,22.63c-.41,1-.75,1.79-1,2.38s-.54,1.12-.72,1.52a5.23,5.23,0,0,1-.59.93l-.71.64a3.94,3.94,0,0,1-2.71,1.14,4.81,4.81,0,0,1-.49,0l-.32,0c-.18,0-.38-.06-.59-.11l-.35-.05-.75-.21-.35-.1-1.27-.4ZM416.4,134.93l45.75,6.88,2.55-17-6.55-1a24.48,24.48,0,0,1-1.45,4.49,6.44,6.44,0,0,1-1.91,2.53,5.24,5.24,0,0,1-2.84,1,4.82,4.82,0,0,1-.76,0h-.34l-.6,0c-.11,0-.24,0-.36,0l-.69-.08-.36,0-1.11-.18-2-.29c-1.57-.24-2.8-.46-3.68-.68a3.71,3.71,0,0,1-1.89-.93,2.32,2.32,0,0,1-.56-1.65,19.55,19.55,0,0,1,.29-2.94l1.42-9.48,10.81,1.64c1.54.22,2.65.43,3.36.58s1.4.34,2.13.54L459,109c-.54.05-1.06.08-1.57.08a4.57,4.57,0,0,1-.74,0,21.13,21.13,0,0,1-2.81-.3l-11.3-1.69,1.34-8.92a19.88,19.88,0,0,1,.54-2.5,2.32,2.32,0,0,1,1-1.32,3,3,0,0,1,.68-.23l.07,0A4.42,4.42,0,0,1,447,94a1.31,1.31,0,0,1,.28,0,22.07,22.07,0,0,1,3.16.3l1,.17a21.3,21.3,0,0,1,4.26,1,5.83,5.83,0,0,1,2.55,1.72,5.63,5.63,0,0,1,1.21,2.79,16.93,16.93,0,0,1,.19,4.18l6.47,1,2.6-17.27c-.88.14-1.64.22-2.26.26-.38,0-.8,0-1.22,0h-.83c-.69,0-1.52-.1-2.41-.22s-2-.27-3.4-.47l-34.4-5.15-.8,5.27a16.4,16.4,0,0,1,3.63,1.11A4.39,4.39,0,0,1,429,90.51a5.42,5.42,0,0,1,.39,1,3.21,3.21,0,0,1,.19,1.23c0,.48,0,1.12-.1,1.88s-.24,1.74-.41,2.89l-3.63,24.22c-.17,1-.32,1.92-.46,2.56s-.22,1.2-.3,1.64a3.35,3.35,0,0,1-.37,1,5.58,5.58,0,0,1-.53.81,4,4,0,0,1-2.31,1.76,6.18,6.18,0,0,1-.86.14h-.34c-.24,0-.47,0-.74,0h-.68a2.36,2.36,0,0,0-.37,0l-1.27-.08ZM334,87.79l.63,5.3,1,0a1.62,1.62,0,0,1,.31,0h.47l.81,0h.32c.31,0,.61.07.85.12a4.41,4.41,0,0,1,2.23,1.27,9.92,9.92,0,0,1,.65.88,4.12,4.12,0,0,1,.51,1.15c.12.47.25,1.08.37,1.84s.24,1.72.37,2.9l2.82,24.32c.14,1.05.22,1.91.27,2.57s.09,1.24.12,1.67a4.43,4.43,0,0,1-.06,1.1c-.09.29-.19.59-.33.93a3.85,3.85,0,0,1-1.75,2.28,13.28,13.28,0,0,1-4.09,1.22l.64,5.3L359,138.45c1.69-.21,3.38-.39,5.09-.56s3.49-.32,5.47-.44c1.06-.07,2-.15,2.79-.25s1.48-.16,2.06-.24c7.33-.85,12.61-3.72,15.79-8.58s4.27-11.66,3.24-20.39a52.05,52.05,0,0,0-2.28-10.54,32.21,32.21,0,0,0-3.83-8.11A14.39,14.39,0,0,0,380.22,84a17.73,17.73,0,0,0-2.06-.5,3,3,0,0,0-.53-.1c-.74-.12-1.5-.22-2.29-.29h-.17c-.54,0-1.07,0-1.64,0h-.74l-.71,0c-.9,0-1.83.1-2.81.2l-2.65.36c-1.18.16-2.4.33-3.68.55s-3.25.48-5.47.76-5,.63-8.11,1Zm-58.15,66.08a11.44,11.44,0,0,1-.46,2.9,5.36,5.36,0,0,1-1.15,2.08,19.35,19.35,0,0,1-2.13,1.87l2,4.94,20.3-8.33-2-5c-.49.15-.91.25-1.32.35l-.39.11-.74.15-.37,0c-.2,0-.39.07-.56.08l-.3,0a6.12,6.12,0,0,1-.63,0c-.84-.13-1.47-.76-1.94-1.89a12.09,12.09,0,0,1-.56-2,17.18,17.18,0,0,1-.2-2.63l-.09-1.51L297.88,140l.91,1.18a21.87,21.87,0,0,1,2.85,4,2.58,2.58,0,0,1-.15,2.57,9.34,9.34,0,0,1-3.51,2.38l2,4.95,25.23-10.37-2-4.95a8.86,8.86,0,0,1-1.49.29,2.22,2.22,0,0,1-.44,0,8.38,8.38,0,0,1-1,.07,6.3,6.3,0,0,1-2.5-.64,11.87,11.87,0,0,1-2.64-1.91c-.89-.85-2-2-3.26-3.36l-23-25.93c-.52-.54-.95-1-1.28-1.42s-.66-.81-1-1.2-.6-.79-.89-1.23-.61-.89-1-1.43l-11.37,4.66c.12.64.27,1.52.43,2.66a44.91,44.91,0,0,1,.35,4.7l1.61,34.42c.05,1.83.05,3.31,0,4.45m-85.45,6.31,3.22,4.26a16.7,16.7,0,0,1,3.31-1.81,2.57,2.57,0,0,1,.64-.15,1.46,1.46,0,0,1,.22,0,2.39,2.39,0,0,1,.87,0h.21a3.94,3.94,0,0,1,.65.13,5.47,5.47,0,0,1,1,.42,3.52,3.52,0,0,1,1,.75,15.53,15.53,0,0,1,1.29,1.38c.45.61,1.08,1.37,1.77,2.3l14.8,19.51c.66.86,1.16,1.55,1.53,2.11s.7,1,.95,1.37a2.77,2.77,0,0,1,.49,1,6.87,6.87,0,0,1,.22.94,3.84,3.84,0,0,1-.37,2.88,13.55,13.55,0,0,1-2.89,3.1l3.21,4.28,36.26-27.48L248.4,161.43l-5.28,4a21.63,21.63,0,0,1,2.36,4.3,6.07,6.07,0,0,1,.27,3.4,4.58,4.58,0,0,1-.32,1.21,6.64,6.64,0,0,1-.74,1.14,14.45,14.45,0,0,1-1.35,1.25l-2.18,1.7-.83.63c-.74.57-1.39,1-1.89,1.38a10.81,10.81,0,0,1-1.32.8,6,6,0,0,1-1,.38,3.16,3.16,0,0,1-.93.09,1.67,1.67,0,0,1-.69-.12,2.06,2.06,0,0,1-.67-.49c-.26-.24-.54-.57-.92-1s-.76-.94-1.31-1.67l-15.19-20c-.64-.84-1.15-1.55-1.53-2.09s-.7-1-1-1.37a2.86,2.86,0,0,1-.47-1,4.28,4.28,0,0,1-.22-.95,3.69,3.69,0,0,1,.4-2.9A12.78,12.78,0,0,1,216.6,147l-3.25-4.26Zm-40,42.67,4.07,3.5a16,16,0,0,1,2.87-2.49,2.78,2.78,0,0,1,.52-.25l.2-.07a2.85,2.85,0,0,1,.38-.12l.25,0,.35-.05a1.46,1.46,0,0,1,.29,0c.17,0,.32,0,.49,0,.41.06.74.11,1.12.19A5.73,5.73,0,0,1,162,204a15.61,15.61,0,0,1,1.52,1.09l2.25,1.88,18.49,16.06c.8.69,1.44,1.27,1.94,1.72s.88.83,1.2,1.15a4.26,4.26,0,0,1,.7.86,6.14,6.14,0,0,1,.37.88,3.84,3.84,0,0,1,.25,2.91,13.85,13.85,0,0,1-2.19,3.61l4,3.51,18.87-21.75-4-3.51a16,16,0,0,1-2.91,2.48,3.14,3.14,0,0,1-.52.25.8.8,0,0,1-.2.07l-.37.12-.26.05-.37,0a1.14,1.14,0,0,1-.27,0H200a4.15,4.15,0,0,1-1.1-.18,6.9,6.9,0,0,1-1.11-.54,11.8,11.8,0,0,1-1.48-1.1c-.59-.46-1.35-1.08-2.27-1.89l-18.5-16.05c-.79-.69-1.45-1.27-1.94-1.72l-1.2-1.17a3.4,3.4,0,0,1-.69-.84,6.48,6.48,0,0,1-.39-.88,3.83,3.83,0,0,1-.24-2.91,13.4,13.4,0,0,1,2.2-3.61l-4-3.51Zm-46.07,76.9,4.73,2.49a15.58,15.58,0,0,1,2.25-3.08,4.49,4.49,0,0,1,2.3-1.15,8.48,8.48,0,0,1,1.1-.05,3.51,3.51,0,0,1,1.23.24,11.71,11.71,0,0,1,1.76.73c.67.33,1.55.74,2.6,1.3L142,291.53c1,.48,1.7.89,2.28,1.21l1.43.86a2.91,2.91,0,0,1,.88.68,7.81,7.81,0,0,1,.59.76,3.92,3.92,0,0,1,.92,2.75,14.51,14.51,0,0,1-1.31,4.06l4.75,2.44,10-19.23L140,273.93l7.29-14L168.88,271l9.93-19.1-4.73-2.47a16.18,16.18,0,0,1-2.31,3.19,4.2,4.2,0,0,1-2.3,1.15,3.85,3.85,0,0,1-.76.09h-.37a6.2,6.2,0,0,1-1.2-.27,12.36,12.36,0,0,1-1.7-.7c-.68-.32-1.56-.76-2.64-1.33l-21.72-11.3c-1-.49-1.72-.9-2.3-1.23l-1.45-.85a4,4,0,0,1-.88-.68c-.15-.2-.37-.45-.59-.76a4,4,0,0,1-.88-2.78,15.18,15.18,0,0,1,1.37-4.16l-4.75-2.46-10.11,19.47,17.87,9-7.28,14-17.86-9.1Zm-20.6,80.47L89,361.28a13.92,13.92,0,0,1,1.3-3.51,4.31,4.31,0,0,1,1.88-1.71,9.18,9.18,0,0,1,1.06-.33,3,3,0,0,1,.52-.09.86.86,0,0,1,.22,0h.51a14.66,14.66,0,0,1,1.84.22c.78.13,1.72.32,2.87.54l24,4.93,2.55.57,1.6.43a3.61,3.61,0,0,1,1,.4l.78.58a4.14,4.14,0,0,1,1.57,2.4,12.83,12.83,0,0,1-.07,4.18l5.22,1.09,5.91-28.68-5.25-1.09a14.43,14.43,0,0,1-1.37,4.07,4.27,4.27,0,0,1-1.94,1.84,3.45,3.45,0,0,1-1.06.39,3.8,3.8,0,0,1-.53.07h-.18a4.84,4.84,0,0,1-.54,0,12.87,12.87,0,0,1-1.83-.22c-.71-.1-1.7-.3-2.89-.54l-24.61-5.07a14.38,14.38,0,0,1-3.12-.92,3.16,3.16,0,0,1-1.37-1.47c-.59-1.1-.64-2.79-.17-5.09.56-2.65,1.57-4.24,3.09-4.74a4.94,4.94,0,0,1,.8-.22,1.91,1.91,0,0,1,.28-.07l.63-.1a2.2,2.2,0,0,1,.36,0,4.6,4.6,0,0,1,.64-.05h1.89l.59.05c.29,0,.61.05.91.09l.63.06,1.09.16.58.1c.57.1,1.18.2,1.82.34,3.53.72,5.9,1.62,7.08,2.72s1.57,2.7,1.13,4.83a15.27,15.27,0,0,1-1.53,3.85l5.27,3.27a18.9,18.9,0,0,0,4.88-9.83q1.72-8.28-1.93-13.1c-2.38-3.2-6.76-5.48-13.06-6.76-.77-.17-1.52-.3-2.26-.42-.22,0-.46-.05-.71-.1-.47-.07-.94-.12-1.42-.17-.25,0-.52-.05-.77-.07-.41-.05-.83-.07-1.24-.08-.25,0-.5,0-.76,0h-1l-1.22.05c-.25,0-.52,0-.79.07s-.76.1-1.12.17-.45.07-.67.12a8.69,8.69,0,0,0-1.12.3l-.52.15a12,12,0,0,0-1.45.63c-3.43,1.77-5.66,5.35-6.76,10.71-.17.67-.32,1.52-.49,2.5s-.35,2.06-.54,3.16c-.27,1.89-.57,3.71-.86,5.45s-.67,3.67-1.13,5.86Zm16.55,74.49-8.58,15.37,16-7.4,12,12.94-2.11-17.53,16-7.39-17.3-3.41-2.09-17.5-8.58,15.41L88.3,421.79Zm26.06,77,14.77,9.66-6.27-16.49,13.75-11-17.6.84-6.25-16.48-4.63,17-17.6.84,14.75,9.66-4.65,17Zm41.33,53.88,10.68-14-16.86,5.05-10-14.51-.4,17.64-16.88,5,16.62,5.82-.4,17.62,10.67-14,16.66,5.83Zm59.7,62.71-13.23-11.67,7-16.15-15.19,9L192.75,597.8,196.6,615l-15.19,9L199,625.64l3.86,17.19,7-16.16Zm59.81,34.83L271.51,655l2.9-17.36L261.86,650l-15.64-8.16,7.87,15.78L241.53,670,259,667.38l7.87,15.77,2.91-17.36Zm50.11,26.15,16.3-6.74-17.14-4.12-1.35-17.55-9.23,15-17.12-4.14,11.4,13.41-9.21,15,16.28-6.73,11.44,13.41Zm71.25,6.62,14.2-10.44-17.63.1-5.54-16.72-5.34,16.79-17.65.1L390.91,696l-5.36,16.81,14.19-10.46,14.34,10.27Zm70.72-10.71,11.28-13.56L473.44,676l-9.38-14.89-1.16,17.58L445.8,683l16.37,6.54L461,707.17l11.26-13.58,16.36,6.54ZM558.06,670l-12.72-12.18L553,642l-15.54,8.32-12.71-12.19,3.11,17.33-15.54,8.32,17.47,2.4,3.12,17.35,7.65-15.88Zm75.5-270c0-128.79-104.76-233.58-233.55-233.58S166.43,271.22,166.43,400,271.22,633.58,400,633.58,633.56,528.81,633.56,400M618.19,624.12l-15.27-8.78,3.62-17.27-13.08,11.84-15.25-8.8,7.18,16.08L572.28,629l17.55-1.88L597,643.22,600.66,626Zm30.74-53,16.57-6-16.94-4.83L648,542.6l-9.86,14.65-16.93-4.86L632,566.27l-9.88,14.61,16.58-6,10.85,13.88Zm33.66-64.86,14.63-9.83-17.6-.63-4.85-17-6,16.57-17.6-.65L665,505.61l-6.06,16.57,14.64-9.84,13.87,10.86Zm17.08-71.06,11.84-13-17.23,3.61-8.78-15.3L683.62,428l-17.24,3.6,16.06,7.19-1.89,17.53,11.82-13,16.12,7.19Zm12-92.55c.43-.22,1-.45,1.57-.74l-2.47-12H709.1l-1-.05c-1.14-.07-2.71-.26-4.67-.54l-34.13-4.87c-1.79-.27-3.26-.54-4.39-.79a13.22,13.22,0,0,1-2.74-1,5.33,5.33,0,0,1-1.82-1.54,14.57,14.57,0,0,1-1.44-2.43l-5.24,1.07,4.4,21.5,5.23-1.07a11.62,11.62,0,0,1,.1-4.39c.26-.79,1-1.28,2.2-1.55a12,12,0,0,1,2-.17,16,16,0,0,1,2.64.29l1.48.18,2.72,13.38-1.31.68a24.19,24.19,0,0,1-4.48,2,4.07,4.07,0,0,1-.74.08,3.69,3.69,0,0,1-.6-.06l-.16-.05-.38-.17-.15-.07a1.73,1.73,0,0,1-.44-.36,9.07,9.07,0,0,1-1.7-3.9l-5.24,1.07,5.47,26.75,5.22-1.1a10.34,10.34,0,0,1,.17-2.92,6.34,6.34,0,0,1,1.12-2.33,11.12,11.12,0,0,1,2.36-2.23c1-.76,2.32-1.6,3.92-2.58L707.25,345c.63-.39,1.19-.73,1.64-1s.92-.51,1.37-.72a13.81,13.81,0,0,1,1.39-.65"/><path class="cls-3" d="M400.21,620.62A304.62,304.62,0,0,1,322,558.14v62a233,233,0,0,0,156.21,0V558.46a304.41,304.41,0,0,1-78,62.16"/><path class="cls-3" d="M478.16,250.9v-71a233,233,0,0,0-156.2,0V251c29.2-5.13,55.92-18.41,78.25-37.66,22.23,19.18,48.87,32.44,78,37.61"/></svg>