<svg id="Layer_1" data-name="Layer 1" xmlns="http://www.w3.org/2000/svg" viewBox="0 0 800 800"><defs><style>.cls-1{fill:#2c5234;}.cls-2{fill:#c99700;}.cls-3{fill:#fff;}</style></defs><title>POR-Logo</title><path class="cls-1" d="M742.39,385a341.53,341.53,0,0,0-108.7-250.24c-6-23.43-13.53-38-14.31-39.46L611,79.5l-17,5.68c-6.1,2-12.25,3.94-18.41,5.78a342.57,342.57,0,0,0-351.72.29c-11.15-3.33-17.34-5.66-17.56-5.75l-18.41-7-8.4,17.8a215.1,215.1,0,0,0-14.05,39.23A341.6,341.6,0,0,0,57.46,385c0,166.14,118.28,304.58,275.2,335.83-.81,7.76-1.3,13.21-1.38,15.77a101.51,101.51,0,0,0,13.09,8.68c11.06,5.65,28.71,11.54,54.91,11.55h1.79c41.74-.06,62-14.9,68-20.25-.08-2.49-.68-7.93-1.69-15.8C624.22,689.46,742.37,551.08,742.39,385Z"/><path class="cls-2" d="M654,188.13c-5.2-44-26-79.87-35.25-94l.62,1.18c1.13,2.11,16.53,31.82,20.63,76.2q.45,4.84.71,9.92c0,.19,0,.37,0,.56q.25,5.27.26,10.77V193c3.72,4.66,7.28,9.44,10.74,14.29a308.74,308.74,0,0,1,47.38,252.41L502.55,266.17q-10.46-2.26-22.19-4.19l215,211.55a305.94,305.94,0,0,1-24.11,58.07L454.57,314.94C454,324,453.5,334,453.25,344.73L659.67,551.15a309.19,309.19,0,0,1-36,45.89L453.58,426.92q.12,8.74.26,18L614.89,606A307.91,307.91,0,0,1,483,682c-2.85.8-5.73,1.55-8.62,2.27l-2.15.52c-3,.71-5.92,1.39-8.91,2h0c0,.2,0,.39.05.59.34,4,.68,7.94,1,11.71,0,.3.08.59.13.88,1.76,12.39,3.07,22.21,3.83,28.79a282.49,282.49,0,0,0,11.06-32.22c139.1-35.38,242-161.41,242-311.51A320,320,0,0,0,654,188.13ZM347,315.31,129.17,532.6a306.16,306.16,0,0,1-24.78-59.51L316.74,262.51c-7.86,1.33-15.27,2.81-22.25,4.38L100.59,459.16a308.84,308.84,0,0,1,47.35-251.7c3.43-4.83,7-9.58,10.65-14.21v-.31c-.07-6.83.17-13.88.76-21.12h0A217.38,217.38,0,0,1,179.09,97c-9.94,15.75-28.6,50-33.45,91.33A320.12,320.12,0,0,0,78.47,385c0,150.05,102.78,276.05,241.77,311.49a280.79,280.79,0,0,0,11.53,33.32c.79-8.68,2.47-23.66,4.76-43.05-3-.62-6-1.31-9-2l-2.15-.52c-2.9-.72-5.78-1.47-8.65-2.27A308.09,308.09,0,0,1,187,608L347.66,446c.1-6.21.19-12.26.27-18.11L178.11,599.12a310.17,310.17,0,0,1-37.33-47l207.49-207C348,334.38,347.56,324.39,347,315.31ZM525.83,103.44h.06q7.93-1.64,15.78-3.48l1.66-.39,3.14-.73a.29.29,0,0,1-.08,0q23.22-5.64,45.89-13.08l-60.44,6.11a321.94,321.94,0,0,0-264,.05l-61-6.16c3.06,1.13,19.58,7,46.19,13.3h.06l.93.22,4.95,1.14,1.6.35c1.6.36,3.23.72,4.89,1.07l1.38.3c2.12.45,4.28.89,6.49,1.34h0l.61.13a309.14,309.14,0,0,1,251.76-.1Z"/><path class="cls-3" d="M600.45,104.8c-216,72.07-402.69,0-402.69,0-42.27,89.52-.11,175.48-.11,175.48s67.2-46.06,202.07-46.06,200.73,46,200.73,46C643.47,185.54,600.45,104.8,600.45,104.8ZM445,722.48c-11.39-94.64-13.64-303.26-13.64-362.3a693,693,0,0,1,8-104c-12.44-1-25.56-1.58-39.39-1.58-13.62,0-26.54.54-38.83,1.51a704.94,704.94,0,0,1,8,104.06c0,59-2.24,267.66-13.65,362.3h0v0s10.85,11.28,44.69,11.28h.2c33.83,0,44.68-11.26,44.68-11.26a.13.13,0,0,0,0,0h0Z"/></svg>