<svg id="Layer_1" data-name="Layer 1" xmlns="http://www.w3.org/2000/svg" viewBox="0 0 800 800"><defs><style>.cls-1{fill:#fff;}.cls-2{fill:#c1c5c7;}.cls-3{fill:#ffc72c;}.cls-4{fill:#b91f31;}.cls-5{fill:#182852;}</style></defs><title>NYR-Logo</title><g id="NYRB-Logo"><polygon class="cls-1" points="508.96 540.34 530 568.25 538.42 561.93 517.36 534.02 508.96 540.34"/><path class="cls-1" d="M454.42,192.68h-9.33V175.36h2.68a12.8,12.8,0,0,0,0-25.6H434.51v73.37l19.91,0a15.21,15.21,0,0,0,0-30.42"/><path class="cls-1" d="M368.32,205.85c0-11.1-7.92-20.1-17.69-20.1s-17.7,9-17.7,20.1,7.92,20.1,17.7,20.1,17.69-9,17.69-20.1"/><path class="cls-1" d="M274,185.75c-7.06,0-13.14,4.65-16,11.44h32c-2.85-6.79-8.93-11.44-16-11.44"/><polygon class="cls-1" points="465.59 563.66 495.71 638.23 505.45 634.26 475.33 559.72 465.59 563.66"/><path class="cls-1" d="M321.68,396c3.83,0,9.43,7.58,10.1,12.77.35,2.71-.37,5,1.74,5,1.46,0,2.56-4.15,2.56-7.85s-2.34-8.36-6.08-12.54-4.07-8.33-8.37-8.33c-2.52,0-2.52,4.11-6.11,9.91-1.1,1.79-2.27,4.52-1.24,7,.89.6,4.07-6,7.4-6"/><path class="cls-1" d="M313.86,446.15c6.48,0,8.08-1.06,8.08-6.49,0-2.7-1.15-2.78-2.34-2.78-4.52,0-8.86,6.51-8.86,8.14,0,.46.55,1.13,3.12,1.13"/><path class="cls-1" d="M270,359.7c3.88-12.93-2-25.42-6.57-25.42a2.46,2.46,0,0,0-2.47,2.63c0,4.22,5.05,3.91,8,22.93Z"/><path class="cls-1" d="M791.13,475.72c-.26-11.5-6.6-17.44-11.87-16.46a8.79,8.79,0,0,0-4.52-7.95l-5.25-3.78c-1.76-1.52-3.73-3.2-7.43-3.2-6.32,0-9.29,8.14-9.29,8.14-5-3.35-5.74-5.58-7.94-12.19-3.69-10.22-9.6-10.41-15.32-10.59-3.71-.2-4.9-.48-12.83-5.29,0,0,6.51-12.59,5.51-26.83a48.93,48.93,0,0,0,12.71,1.79c22.8,0,36.42-17.51,36.42-34.43,0-19.09-12.76-27.38-26.9-38.79,13.4.91,30.72-9.06,30.72-27.06,0-8.61-6.55-15.46-6.55-15.46-7.38,6.42-14.15,10.22-23.89,12.66-7.24,1.27-26.48,4.59-26.48,22.81,0,21.41,31.56,27.46,31.56,45.7a13.13,13.13,0,0,1-13.54,12.94c-19.68,0-31.11-20.84-54.54-27.9V80.63H116.3v269.2c-23.41,7.06-34.86,27.9-54.54,27.9a13.13,13.13,0,0,1-13.54-12.94c0-18.24,31.54-24.29,31.54-45.7,0-18.22-19.22-21.54-26.47-22.81a53.48,53.48,0,0,1-23.86-12.66s-6.55,6.85-6.55,15.46c0,18,17.32,28,30.7,27.06-14.12,11.41-26.92,19.7-26.92,38.79,0,16.92,13.62,34.43,36.44,34.43a48.93,48.93,0,0,0,12.71-1.79c-1,14.24,5.5,26.83,5.5,26.83-7.94,4.81-9.11,5.09-12.82,5.29-5.72.18-11.63.37-15.32,10.59-2.19,6.61-3,8.84-7.94,12.19,0,0-3-8.14-9.28-8.14-3.71,0-5.7,1.68-7.44,3.2l-5.27,3.78a8.8,8.8,0,0,0-4.5,7.95c-5.26-1-11.61,5-11.89,16.46,0,0-2.85,3.17-2.85,6.71,0,5.23,6.13,7.31,18.4,9.21l.46-1.6,14.07,2.19c12.68,0,14.09-10,18.63-14.52L63,479.19c19.4-3.34,18.95-14,28.76-14,4.59,0,13.59,2.11,18.33,2.11a22.77,22.77,0,0,0,6.17-.89v66.17c0,72.12,129.39,186.93,282.7,186.93S681.7,604.73,681.7,532.61V466.44a22.78,22.78,0,0,0,6.18.89c4.75,0,13.75-2.11,18.3-2.11,9.83,0,9.38,10.63,28.79,14l7.47-1.48c4.52,4.53,5.95,14.52,18.63,14.52L775.14,490l.44,1.6c12.29-1.9,18.42-4,18.42-9.21,0-3.54-2.87-6.71-2.87-6.71M18.69,485.61s-9.43-1.73-9.43-3.18c0-2.06,2.56-3.21,2.83-6.27.53-6-.07-8.69,5.41-11.85,1.57,0,5.72,4.05,5.72,4.93,0,2-2.2,7.06-4.53,16.37M121.56,85.89h554.9V348.54a53.38,53.38,0,0,0-8.45-1V94.34H130V347.58a54,54,0,0,0-8.43,1ZM422.21,459.47c-2,2.5-2.13,10.35,7,10.35,16.6,0,21.94-7,29.93-13.33,6,5.14,11.18,7.72,15.84,7.72l8.69-.69c9.57,0,17.13,6.3,27.07,6.3.36,0,.66-.08,1-.1a145.72,145.72,0,0,1-225.46,0c.34,0,.64.1,1,.1,9.94,0,17.49-6.3,27.07-6.3l8.69.69c4.68,0,9.8-2.58,15.84-7.72,8,6.29,13.33,13.33,29.93,13.33,9.12,0,9-7.85,7-10.35,7.78,1.39,13.37-4.33,8.93-11.69C370.88,443.71,371,431,358.89,420.49c-12.58-30.15-7.94-49.65-17.9-62.93-18.8-25-22.58-30.1-34-39.6-14.58-12.37-17.8-15.53-28.57-22.43a146,146,0,0,1,66.93-53.67c-17.16-2.63-30.3-17.73-30.3-36,0-20.13,15.92-36.45,35.59-36.45,9.4,0,15,4.22,17.7,7.06V126.89h19.22v95a76.62,76.62,0,1,0,63,19.15,146.17,146.17,0,0,1,69.07,54.5c-10.78,6.9-14,10.06-28.59,22.43-11.44,9.5-15.22,14.59-34,39.6-10,13.28-5.31,32.78-17.9,62.93-12.06,10.48-12,23.22-25.84,27.29-4.4,7.36,1.17,13.08,8.95,11.69M134,457.64c8.5-5,14.21-19.84,14.21-24l1.7.42v98.54c0,50.48,115.29,153.28,249.06,153.28s249-102.8,249-153.28V434.07l1.71-.42c0,4.15,5.71,19,14.19,24v75c0,63.74-123.82,169.18-265,169.18S134,596.35,134,532.61ZM330.4,587.4l8.34,2.88c-2.15,11.45-3.23,22.92-7,39.38l24.74-70.06L366.6,563l-36.25,94.81-9.27-3.18,8.86-51.95L304.69,649l-9.28-3.18,29.79-97,10.08,3.46L311.64,622.7c7.2-15.24,13.42-25,18.76-35.3M308.88,551,291.65,538.9l-20,28.62,12.9,9.06-6,8.6-12.94-9-20,28.64,17.21,12.07-6,8.59-17.22-12.06a10.48,10.48,0,0,1-2.58-14.63L283,532.85a10.51,10.51,0,0,1,14.64-2.57l17.25,12.07ZM188.52,566.7l-7-7.78L256.89,491l6.65,7.39-40.06,52.53L271,506.66l7,7.81-75.38,67.86-6.67-7.39L236,522.43Zm85-128.85c-2-2.69-4.29-7.28-6.51-12.31,2.87,0,6.65-1,11.42-2.87a35.84,35.84,0,0,0,5.95-.42,33,33,0,0,0-1.22,4c-3.21,3.57-7.85,6.77-9.64,11.59m-59.35,7.22c3.69,0,9.67-.77,10.58-.77s2.95.22,3.42,4,2.88,5.86,2.88,7.41-4.58,4.5-9.63,4.5c-4.07,0-4.52-9.31-8.63-11.56-3-1.69-2.3-3.54,1.38-3.54M426.8,563.28,437.24,562l5,40.89c1.37,11.28-8.61,16.09-8.61,16.09l5.51,45-10.42,1.29-5.53-45s-10.9-2.4-12.25-13.51l-5-40.91,10.41-1.25,5.57,45.25,10.44-1.29Zm142.7-48.15L550,498.79a19.3,19.3,0,0,1-5-7.34l6.94-8.29a13.62,13.62,0,0,0,3.45,6.4s5.7,4.8,17.08,14.3c14.39,12.09,4.74,25.42,4.74,25.42,11.15-13.28,23.91-1.37,23.91-1.37L620.32,544a17.86,17.86,0,0,0,9.24,4.36l-6.94,8.27c-4,0-7.66-3.42-7.66-3.42s-17.37-14.57-23.11-19.36c-6.71-5.64-13.4,2.42-13.4,2.42l35.94,30.15-6.66,8L530,509.3l6.73-8,33.48,28.06c7-8.39-.67-14.19-.67-14.19m-24.43,38.2c2.92,3.85,2.32,6.62,1.15,9.28,2.62-.76,5.62-.31,9.4,4.69l20.33,27c1.71,2.28,3.89,3.31,6.56,4.48l-8.61,6.51a17.3,17.3,0,0,1-6.34-4.67l-22.83-30.29-8.42,6.34L563.68,613l-8.38,6.31-61.06-81L511,525.6a10.51,10.51,0,0,1,14.72,2.08Zm-31.52,72.91a15.77,15.77,0,0,1-29.24,11.84l-26.82-66.4a15.77,15.77,0,0,1,29.24-11.84ZM583.8,445.07c3.71,0,4.43,1.85,1.37,3.54-4.09,2.25-4.53,11.56-8.62,11.56-5,0-9.61-3-9.61-4.5s2.39-3.66,2.87-7.41,2.51-4,3.42-4,6.87.77,10.57.77m-69-18.81a31.32,31.32,0,0,0-1.23-4,36.25,36.25,0,0,0,6,.42c4.76,1.92,8.56,2.83,11.41,2.87-2.22,5-4.47,9.62-6.51,12.31-1.79-4.82-6.43-8-9.64-11.59M274,226c6.48,0,12.15-4,15.24-9.88l14.6,9.64A35.36,35.36,0,0,1,274,242.3c-19.67,0-35.61-16.32-35.61-36.45S254.28,169.4,274,169.4s35.6,16.32,35.6,36.45c0,1-.05,2.1-.14,3.11h-53c1.34,9.62,8.66,17,17.5,17M215.46,195.8l28.7,44.65H218.59L195.77,205V179.53l6.67,0a14.9,14.9,0,0,0,0-29.79H189v90.69h-22v-108h40.39c17.39,0,31.47,14.42,31.47,32.2a32.09,32.09,0,0,1-23.46,31.16m275.77,12.11c0,18-14.24,32.54-31.78,32.54h-9.51a76.16,76.16,0,0,0-37.39-18.25V132.44H452.8c16.24,0,29.42,13.49,29.42,30.1a25.38,25.38,0,0,1-8.06,19.14,27.67,27.67,0,0,1,17.07,26.23m-32.57,51.42a70.82,70.82,0,1,1-128.75,53.75L341,324.56,354.92,347a76.31,76.31,0,0,0,28.91,5.72L393,339.86l30.61-.82.74,2.1a76.66,76.66,0,0,0,28.33-31.41A89.61,89.61,0,0,1,439.75,314s-8.4-14.21-14.6-27.18a185.56,185.56,0,0,1,13.65-23.43s14.35,6.75,21.1,12.26a16.54,16.54,0,0,1,.53,2.53c0-.65.09-1.29.09-1.94a76.91,76.91,0,0,0-1.86-16.87m-82,3.45c9.22,10.5,18,24.57,18,24.57-4.25,8.26-16.51,27.83-16.51,27.83-16.55-4-27.87-8-27.87-8a175.14,175.14,0,0,1-.27-32c7.18-3.75,26.63-12.44,26.63-12.44m0-32.47a71.17,71.17,0,0,1,48.64,1.39l-3.94,9.86a172.14,172.14,0,0,0-31.16-.41Zm-36.85,36.15-9.19,12.9a70.74,70.74,0,0,1,20.56-34Zm189-42.49a13.72,13.72,0,0,0,13.54-13.86v-37h19.2v35.7c0,18.52-14.65,33.53-32.74,33.53S496,227.31,496,208.79v-35.7h19.22v37A13.72,13.72,0,0,0,528.72,224m45.58-97.08h19.24V240.45H574.3Zm37.4,0h19.24V240.45H611.7ZM149.94,114.28v223.2c-6.57,5.72-11.75,9-15.91,9.79V98.39H664V347.27c-4.14-.77-9.32-4.07-15.9-9.79V114.28Zm-124,341.58c6.87-4,6.83-6.31,10.06-6.31,2.13,0,3.9,3.85,3.9,3.85-3.14,5.27-6.28,10.84-10.48,10.84-2.71,0-5.36-1.73-5.36-3.4s-.44-3.64,1.88-5m84.24,6.22C104.67,462.08,99,460,91.8,460c-10.65,0-10.89,5.69-17.3,9.19S66,473.91,63,473.91c-2.37,0-5.1-1.44-7.47-1.44-7.64,0-6.87,14.5-18.64,14.5-4.91,0-7.9-1.6-12-1.86.62-9.51,5.19-15.08,5.19-15.08,7.27-.21,11.44-9.22,11.44-9.22,14.42-8,13.64-10.66,16.56-18.75,3.11-8.65,6.48-6.54,15.4-7.38,9.17-4.14,14.63-7.22,13-11.45S81.07,411.59,81.07,402c0-8.11.06-10.43-2-10.43-2.3,0-7.87,2.56-16,2.56-20.07,0-31.18-15-31.18-29.17,0-25,28.48-31.64,28.48-40.44,0-3-3.66-3.7-7.92-3.7-15.53,0-24.36-11-24.36-21.71a15.42,15.42,0,0,1,2.39-7.73s9.48,8,21.9,10.12,22.11,6.08,22.11,17.62c0,18.28-31.56,24.14-31.56,45.7A18.32,18.32,0,0,0,61.76,383c26.45,0,35.64-29.47,71.07-30.29,18.36-2.13,24.08-22.45,44.16-22.11,2.74.12,6.65,1.68,12.87-4.35s7.49-10.39,26.9-15.63c20.77-5.63,23.75-16.65,42.16-16.65,14.4,0,33.59,18.82,44.7,28.06s15.15,14,33.07,38.62c8.06,11.32,5.26,34.27,17.73,62.84,12.32,10.37,11.05,22,26.4,28.38,1.17,2.52-2.56,2.45-4.2,2.45-17.18,0-18.87-20.51-30.29-25.7-2.82-1.28-2.54-.13-1.29,1.88,12.52,16.06,3.85,20.15,23.76,30.06,5.72,2.85,1.75,4,0,4-20.41,0-24.55-14.31-31-14-4,3.7-9.81,8.4-14.78,8.4-1.49,0-6.32-.67-8.69-.67-11.47,0-17.4,6.31-27.07,6.31-7.08,0-6.94-5.57-6.94-5.57a35.08,35.08,0,0,1-1-5.65c0-4.18,4.72-7.63,4.72-8.92,0-4.15-6.08,2-6.08-2.35,0-4,3.66-6.85,9.84-13a29.48,29.48,0,0,1,6-12.35c0-3.11-7.27,1.13-16.11.65-12.11,5.31-16.6,2.34-14.4-.91,2.54-3.78,5.81-9.5,5.81-20.72,0-6.13-2.46-6.06-3-2.85-4.45,18.94-7.51,23.44-17.82,24.84-3.35.45-7.59,1.81-4.88,6.67l12.42,22.47c1.34,2.44-4.16,14.84-2.3,14.84s11.08-10.1,7.66-17.11l-10.55-21c2.61-3,7.24-1,10.14.24,1.84,5,4.81,11.83,7.16,15.05s3.11,4.84,3.11,8.86-3.95,9.62-7.08,14.71-7.11,5.37-14.87,5.3c-12.11,5.83-27.87,11.74-32.81,11.74-12.56,0-11.74-14.83-18.39-14.83-1.49,0-5.3.53-6.25-.55,0,0-8.25-13.26-8.25-14.72,0-3,4.9-4.09,15-4.09,9.86,0,12.9,20.19,21.51,20.19,8.89,0,18.86-5.4,18.86-10.88,0-11.37-13.21-16.54-21.58-23.17-9.35-7.41-6.65-15.29-9.91-15.29-4.3,0-.5,8.85-.5,10.94s-2.16,3.18-6.1,3.18c-15.68,0-18.55-3.3-28.43-3.3-8.62,0-12.11,2.34-18.57,2.34-18.09,0-11.06-23.92-11.06-29.77,0-.79-1-1.65-2.25-1.65-2.1,0-3.06,9.82-5.36,24.25-1.69,7.49-10.88,24.59-37.73,25.34-21.35.59-32,7.54-37.85,17.42-.84,1.12.47,3.82,2.55,1.29,5.89-5.87,15.92-14.6,36-14,21.56.61,33-6.81,41.44-22.22,1.56,0,2.78,1.7,3.78,2.74,0,4.53-2.82,6.37-4.42,10.27-1.25,3-4.43,9.48-7.66,10.39-7.61,2.08-12.08,8.68-21,8.68m566.33,70.53c0,69.65-129.74,181.69-277.46,181.69s-277.44-112-277.44-181.69V464.29c3-1.63,5.67-3.55,8.43-4.86v73.18c0,65.27,125.72,173.24,269,173.24s269-108,269-173.24V459.43c2.78,1.32,5.39,3.23,8.45,4.86ZM761.07,487c-11.75,0-11-14.5-18.64-14.5-2.37,0-5.1,1.44-7.46,1.44-2.92,0-5.05-1.27-11.47-4.76S716.83,460,706.18,460c-7.13,0-12.87,2.12-18.3,2.12-8.91,0-13.38-6.6-21-8.68-3.23-.91-6.41-7.39-7.65-10.39-1.61-3.9-4.41-5.74-4.41-10.27,1-1,2.2-2.74,3.76-2.74,8.4,15.41,19.89,22.83,41.45,22.22,20-.57,30.07,8.16,35.94,14,2.08,2.53,3.4-.17,2.55-1.29-5.9-9.88-16.5-16.83-37.83-17.42-26.89-.75-36.06-17.85-37.75-25.34-2.28-14.43-3.26-24.25-5.36-24.25-1.28,0-2.26.86-2.26,1.65,0,5.85,7,29.77-11.05,29.77-6.44,0-9.95-2.34-18.55-2.34-9.92,0-12.78,3.3-28.47,3.3-3.9,0-6.08-1.07-6.08-3.18s3.8-10.94-.5-10.94c-3.26,0-.58,7.88-9.93,15.29-8.35,6.63-21.57,11.8-21.57,23.17,0,5.48,10,10.88,18.87,10.88,8.61,0,11.67-20.19,21.51-20.19,10.16,0,15,1.12,15,4.09,0,1.46-8.23,14.72-8.23,14.72-1,1.08-4.8.55-6.27.55-6.65,0-5.83,14.83-18.39,14.83-4.93,0-20.68-5.91-32.79-11.74-7.77.07-11.79-.22-14.89-5.3S527,451.82,527,447.8s.74-5.65,3.09-8.86,5.34-10,7.18-15.05c2.89-1.24,7.53-3.28,10.14-.24l-10.55,21c-3.42,7,5.7,17.11,7.68,17.11s-3.68-12.4-2.34-14.84l12.44-22.47c2.7-4.86-1.53-6.22-4.88-6.67-10.31-1.4-13.37-5.9-17.81-24.84-.54-3.21-3-3.28-3,2.85,0,11.22,3.25,16.94,5.81,20.72,2.2,3.25-2.29,6.22-14.4.91-8.86.48-16.11-3.76-16.11-.65a29.21,29.21,0,0,1,6,12.35c6.18,6.14,9.84,9,9.84,13,0,4.31-6.08-1.8-6.08,2.35,0,1.29,4.72,4.74,4.72,8.92a35.08,35.08,0,0,1-1,5.65s.14,5.57-6.94,5.57c-9.65,0-15.6-6.31-27.07-6.31-2.39,0-7.2.67-8.69.67-5,0-10.83-4.7-14.78-8.4-6.42-.27-10.58,14-31,14-1.75,0-5.7-1.19,0-4,19.91-9.91,11.24-14,23.76-30.06,1.24-2,1.55-3.16-1.27-1.88-11.44,5.19-13.14,25.7-30.31,25.7-1.66,0-5.36.07-4.2-2.45,15.34-6.39,14.06-18,26.4-28.38,12.49-28.57,9.69-51.52,17.71-62.84,17.94-24.6,22-29.38,33.09-38.62s30.3-28.06,44.72-28.06c18.39,0,21.37,11,42.15,16.65,19.4,5.24,20.65,9.6,26.87,15.63s10.15,4.47,12.89,4.35c20.08-.34,25.8,20,44.16,22.11,35.43.82,44.6,30.29,71.07,30.29A18.3,18.3,0,0,0,755,364.79c0-21.56-31.52-27.42-31.52-45.7,0-11.54,9.69-15.49,22.11-17.62s21.9-10.12,21.9-10.12a15.5,15.5,0,0,1,2.37,7.73c0,10.72-8.83,21.71-24.38,21.71-4.26,0-7.9.67-7.9,3.7,0,8.8,28.47,15.44,28.47,40.44,0,14.14-11.08,29.17-31.17,29.17-8.14,0-13.71-2.56-16-2.56-2,0-2,2.32-2,10.43,0,9.62-3.8,17.06-5.43,21.26s3.83,7.31,13,11.45c8.92.84,12.27-1.27,15.4,7.38,2.92,8.09,2.16,10.74,16.56,18.75,0,0,4.19,9,11.44,9.22,0,0,4.57,5.57,5.2,15.08-4.14.26-7.11,1.86-12,1.86M774,460.84c0,1.67-2.67,3.4-5.35,3.4-4.19,0-7.35-5.57-10.49-10.84,0,0,1.77-3.85,3.91-3.85,3.22,0,3.18,2.31,10.05,6.31,2.32,1.34,1.88,3.26,1.88,5m5.32,24.77c-2.35-9.31-4.55-14.34-4.55-16.37,0-.88,4.17-4.93,5.72-4.93,5.5,3.16,4.91,5.89,5.43,11.85.27,3.06,2.85,4.21,2.85,6.27,0,1.45-9.45,3.18-9.45,3.18"/><path class="cls-1" d="M478.39,436.88c-1.17,0-2.34.08-2.34,2.78,0,5.43,1.62,6.48,8.08,6.48,2.58,0,3.14-.66,3.14-1.12,0-1.63-4.36-8.14-8.88-8.14"/><path class="cls-1" d="M534.58,334.27c-4.54,0-10.41,12.52-6.57,25.43l1,.13c3-19,8-18.71,8-22.93a2.47,2.47,0,0,0-2.5-2.63"/><path class="cls-1" d="M483.71,401.93c1.05-2.49-.12-5.22-1.22-7-3.59-5.83-3.57-9.92-6.13-9.92-4.28,0-4.64,4.16-8.37,8.32s-6.08,8.88-6.08,12.54,1.1,7.85,2.56,7.85c2.11,0,1.41-2.28,1.74-5,.68-5.17,6.3-12.76,10.1-12.76,3.35,0,6.51,6.56,7.4,6"/><path class="cls-2" d="M458.66,259.33a76.73,76.73,0,0,1,1.86,16.85c0,.67-.07,1.31-.07,2,.62,3.8,1.42,12.32.27,27.82a81.65,81.65,0,0,1-8,3.77,76.73,76.73,0,0,1-28.33,31.41l5.19,14.58C418,362.63,404,366.22,404,366.22c-14.6-3.18-23-9.53-23-9.53l2.84-4A75.55,75.55,0,0,1,354.92,347l1.54,2.51-2.87,2.32a70.83,70.83,0,0,0,105.07-92.51"/><path class="cls-3" d="M519.56,422.66a37.71,37.71,0,0,1-6-.39,25.86,25.86,0,0,1,1.24,4c3.21,3.57,7.85,6.78,9.64,11.59,2-2.68,4.29-7.28,6.51-12.32-2.85,0-6.65-.94-11.41-2.87"/><path class="cls-3" d="M267,425.53c2.21,5,4.48,9.64,6.51,12.32,1.78-4.81,6.42-8,9.63-11.59a31.12,31.12,0,0,1,1.24-4,35.18,35.18,0,0,1-6,.39c-4.76,1.93-8.56,2.84-11.42,2.87"/><path class="cls-3" d="M483.66,463.52l-8.69.68c-4.66,0-9.8-2.57-15.84-7.71-8,6.29-13.33,13.33-29.93,13.33-9.12,0-9-7.85-7-10.36-7.78,1.39-13.35-4.33-8.95-11.68,13.86-4.07,13.78-16.83,25.84-27.3,12.61-30.15,7.93-49.64,17.91-62.92,18.8-25,22.58-30.08,34-39.6,14.57-12.37,17.81-15.53,28.59-22.44A146.17,146.17,0,0,0,450.56,241a76.55,76.55,0,1,1-104.21,1c-.35,0-.67-.1-1-.15a146,146,0,0,0-66.93,53.66c10.76,6.91,14,10.07,28.57,22.44,11.46,9.52,15.22,14.58,34,39.6,10,13.28,5.34,32.77,17.92,62.92,12.06,10.47,12,23.23,25.83,27.3,4.44,7.35-1.15,13.07-8.93,11.68,2,2.51,2.13,10.36-7,10.36-16.58,0-21.94-7-29.92-13.33-6,5.14-11.15,7.71-15.83,7.71l-8.69-.68c-9.57,0-17.14,6.3-27.07,6.3a8,8,0,0,1-1-.12,145.71,145.71,0,0,0,225.46,0,7.6,7.6,0,0,1-1,.12c-9.94,0-17.5-6.3-27.07-6.3"/><path class="cls-4" d="M189,149.76h13.41a14.88,14.88,0,0,1,0,29.76h-6.65V205l22.82,35.49h25.56L215.45,195.8a32.1,32.1,0,0,0,23.47-31.16c0-17.78-14.09-32.19-31.47-32.19H167.08v108H189Z"/><path class="cls-4" d="M459.45,240.45c17.56,0,31.8-14.55,31.8-32.54a27.72,27.72,0,0,0-17.08-26.24,25.3,25.3,0,0,0,8-19.13c0-16.63-13.16-30.09-29.41-30.09H412.57v89.76a76,76,0,0,1,37.36,18.24ZM434.5,149.76h13.27a12.8,12.8,0,0,1,0,25.6h-2.68v17.32h9.33a15.22,15.22,0,0,1,0,30.44l-19.92,0Z"/><rect class="cls-4" x="611.69" y="126.91" width="19.24" height="113.54"/><rect class="cls-4" x="574.31" y="126.91" width="19.24" height="113.54"/><path class="cls-4" d="M528.72,242.32c18.09,0,32.74-15,32.74-33.53v-35.7h-19.2v37a13.54,13.54,0,1,1-27.08,0v-37H496v35.7c0,18.51,14.67,33.53,32.76,33.53"/><path class="cls-4" d="M274,242.3a35.36,35.36,0,0,0,29.84-16.59l-14.6-9.66C286.1,222,280.45,226,274,226c-8.84,0-16.16-7.37-17.5-17h53c.09-1,.14-2.08.14-3.13,0-20.14-15.93-36.46-35.6-36.46s-35.61,16.32-35.61,36.46S254.27,242.3,274,242.3m0-56.55c7.05,0,13.13,4.65,16,11.44H258c2.85-6.79,8.93-11.44,16-11.44"/><path class="cls-4" d="M368.32,176.45c-2.7-2.83-8.3-7.08-17.7-7.08C331,169.37,315,185.71,315,205.85c0,18.29,13.14,33.37,30.3,36,.34.05.67.12,1,.18a76,76,0,0,1,41.22-20.14v-95H368.32Zm-17.7,49.49c-9.76,0-17.68-9-17.68-20.09s7.92-20.1,17.68-20.1,17.7,9,17.7,20.1-7.92,20.09-17.7,20.09"/><path class="cls-4" d="M221.44,460.16c5.05,0,9.64-3,9.64-4.51s-2.4-3.65-2.89-7.37-2.52-4-3.43-4-6.87.77-10.57.77-4.43,1.86-1.37,3.54c4.09,2.25,4.55,11.56,8.62,11.56"/><path class="cls-4" d="M29.37,464.24c4.19,0,7.35-5.57,10.48-10.84,0,0-1.77-3.83-3.9-3.83-3.23,0-3.18,2.28-10.05,6.29-2.34,1.34-1.89,3.26-1.89,5s2.66,3.42,5.36,3.42"/><path class="cls-4" d="M17.51,464.31c-5.48,3.17-4.88,5.89-5.41,11.87-.28,3.05-2.84,4.21-2.84,6.27,0,1.44,9.42,3.16,9.42,3.16,2.35-9.31,4.55-14.35,4.55-16.37,0-.86-4.16-4.93-5.72-4.93"/><path class="cls-4" d="M354.43,423.45c-12.5-28.57-9.68-51.52-17.71-62.84-17.93-24.59-22-29.38-33.1-38.62s-30.3-28.06-44.7-28.06c-18.42,0-21.39,11-42.16,16.65-19.41,5.26-20.66,9.62-26.88,15.63s-10.16,4.49-12.87,4.35c-20.1-.33-25.8,20-44.19,22.11-35.4.82-44.59,30.3-71,30.3A18.3,18.3,0,0,1,43,364.78c0-21.54,31.54-27.4,31.54-45.7,0-11.54-9.71-15.47-22.11-17.62s-21.91-10.1-21.91-10.1a15.5,15.5,0,0,0-2.37,7.73c0,10.7,8.82,21.71,24.36,21.71,4.28,0,7.91.67,7.91,3.68,0,8.79-28.49,15.44-28.49,40.42,0,14.16,11.1,29.21,31.18,29.21,8.15,0,13.73-2.56,16-2.56,2.06,0,2,2.31,2,10.41,0,9.63,3.8,17.07,5.43,21.3s-3.85,7.28-13,11.42c-8.93.84-12.3-1.27-15.41,7.37-2.92,8.09-2.15,10.74-16.56,18.74,0,0-4.17,9-11.44,9.23a28.2,28.2,0,0,0-5.19,15.07C29,485.4,32,487,36.93,487c11.77,0,11-14.52,18.64-14.52,2.37,0,5.1,1.46,7.47,1.46,2.91,0,5-1.27,11.46-4.76S81.17,460,91.82,460c7.13,0,12.86,2.13,18.31,2.13,8.9,0,13.35-6.59,21-8.67,3.23-.91,6.41-7.39,7.66-10.43,1.6-3.87,4.42-5.72,4.42-10.26-1-1-2.22-2.73-3.78-2.73C131,445.44,119.51,452.82,98,452.21c-20-.55-30.06,8.17-36,14.05-2.06,2.51-3.4-.17-2.54-1.31,5.89-9.88,16.49-16.82,37.85-17.4,26.85-.76,36.06-17.85,37.72-25.36,2.29-14.43,3.27-24.24,5.36-24.24,1.29,0,2.27.86,2.27,1.65,0,5.86-7,29.76,11,29.76,6.46,0,9.94-2.34,18.57-2.34,9.88,0,12.74,3.32,28.45,3.32,3.91,0,6.08-1.09,6.08-3.2s-3.8-10.91.5-10.91c3.26,0,.6,7.87,9.91,15.26,8.36,6.64,21.57,11.82,21.57,23.19,0,5.46-10,10.87-18.84,10.87-8.61,0-11.67-20.18-21.53-20.18-10.13,0-15,1.1-15,4.07,0,1.48,8.25,14.74,8.25,14.74.94,1.08,4.77.57,6.25.57,6.65,0,5.83,14.8,18.38,14.8,4.93,0,20.7-5.92,32.8-11.75,7.78.07,11.78-.2,14.89-5.29S271,451.83,271,447.79s-.72-5.65-3.09-8.85-5.34-10-7.18-15.05c-2.89-1.23-7.53-3.29-10.14-.25l10.55,21c3.42,7-5.7,17.11-7.66,17.11s3.67-12.42,2.32-14.84l-12.44-22.47c-2.7-4.87,1.53-6.22,4.88-6.69,10.3-1.41,13.36-5.89,17.81-24.84.52-3.19,3-3.26,3,2.85,0,11.22-3.24,16.94-5.8,20.72-2.2,3.27,2.28,6.24,14.39.93,8.87.46,16.14-3.78,16.14-.65a29.23,29.23,0,0,0-6,12.35c-6.17,6.13-9.83,9-9.83,13,0,4.31,6.07-1.79,6.07,2.35,0,1.29-4.73,4.76-4.73,8.94a35.78,35.78,0,0,0,1,5.65s-.12,5.55,7,5.55c9.64,0,15.58-6.29,27.06-6.29,2.37,0,7.2.67,8.71.67,5,0,10.8-4.72,14.76-8.4,6.44-.26,10.58,14,31,14,1.75,0,5.72-1.18,0-4-19.9-9.91-11.24-14-23.76-30.07-1.24-2-1.55-3.16,1.29-1.89,11.42,5.21,13.12,25.7,30.28,25.7,1.67,0,5.38.07,4.21-2.44-15.36-6.39-14.07-18-26.39-28.39M270,359.71l-1.05.12c-2.95-19-8-18.71-8-22.93a2.47,2.47,0,0,1,2.49-2.63c4.54,0,10.43,12.52,6.56,25.44m43.88,86.45c-2.58,0-3.11-.67-3.11-1.15,0-1.62,4.34-8.13,8.85-8.13,1.2,0,2.33.09,2.33,2.78,0,5.42-1.61,6.5-8.07,6.5m19.67-32.4c-2.12,0-1.39-2.3-1.75-5-.68-5.19-6.28-12.76-10.09-12.76-3.35,0-6.51,6.56-7.4,6-1.05-2.47.13-5.21,1.22-7,3.59-5.83,3.59-9.92,6.13-9.92,4.28,0,4.64,4.16,8.38,8.34s6.05,8.86,6.05,12.54-1.08,7.85-2.54,7.85"/><path class="cls-4" d="M573.23,444.29c-.91,0-3,.24-3.42,4s-2.87,5.86-2.87,7.39,4.57,4.51,9.61,4.51c4.08,0,4.53-9.31,8.62-11.56,3.06-1.68,2.34-3.54-1.36-3.54s-9.67-.77-10.58-.77"/><path class="cls-4" d="M772.11,455.85c-6.87-4-6.83-6.29-10.05-6.29-2.14,0-3.91,3.83-3.91,3.83,3.14,5.28,6.3,10.84,10.49,10.84,2.68,0,5.35-1.71,5.35-3.42s.44-3.62-1.88-5"/><path class="cls-4" d="M785.91,476.17c-.52-6,.08-8.7-5.42-11.86-1.56,0-5.72,4.08-5.72,4.93,0,2,2.18,7.06,4.55,16.38,0,0,9.44-1.74,9.44-3.18,0-2.06-2.58-3.2-2.85-6.27"/><path class="cls-4" d="M756.44,460.8c-14.4-8-13.64-10.65-16.56-18.74-3.11-8.66-6.46-6.55-15.39-7.39-9.16-4.14-14.64-7.18-13-11.42s5.45-11.65,5.45-21.29c0-8.11-.07-10.41,2-10.41,2.31,0,7.87,2.56,16,2.56,20.08,0,31.18-15.05,31.18-29.2,0-25-28.47-31.63-28.47-40.44,0-3,3.64-3.66,7.9-3.66,15.53,0,24.38-11,24.38-21.72a15.42,15.42,0,0,0-2.39-7.73s-9.5,8-21.9,10.1-22.11,6.09-22.11,17.63c0,18.28,31.52,24.14,31.52,45.7A18.29,18.29,0,0,1,736.25,383c-26.47,0-35.66-29.48-71.07-30.31-18.38-2.13-24.1-22.45-44.16-22.1-2.75.13-6.67,1.7-12.89-4.35s-7.49-10.39-26.88-15.63c-20.79-5.62-23.76-16.65-42.16-16.65-14.41,0-33.6,18.83-44.72,28.05s-15.13,14-33.07,38.62c-8,11.32-5.24,34.27-17.73,62.84-12.31,10.4-11,22-26.4,28.38-1.15,2.53,2.56,2.46,4.21,2.46,17.18,0,18.86-20.49,30.3-25.7,2.82-1.27,2.53-.15,1.27,1.87-12.5,16.06-3.83,20.15-23.74,30.07-5.72,2.85-1.77,4.05,0,4.05,20.39,0,24.55-14.29,31-14.05,4,3.69,9.8,8.42,14.79,8.42,1.47,0,6.3-.69,8.67-.69,11.48,0,17.42,6.3,27.09,6.3,7.08,0,6.93-5.56,6.93-5.56a35.27,35.27,0,0,0,1-5.66c0-4.17-4.73-7.62-4.73-8.91,0-4.14,6.1,2,6.1-2.35,0-4-3.66-6.84-9.86-13a29.23,29.23,0,0,0-6-12.34c0-3.12,7.25,1.12,16.1.66,12.11,5.29,16.59,2.31,14.39-.93-2.54-3.78-5.8-9.5-5.8-20.72,0-6.13,2.45-6.06,3-2.85,4.46,18.93,7.52,23.43,17.81,24.84,3.35.45,7.6,1.82,4.88,6.68l-12.42,22.45c-1.34,2.44,4.18,14.86,2.32,14.86s-11.1-10.1-7.68-17.11l10.55-21c-2.61-3-7.23-1-10.12.26-1.85,5-4.83,11.82-7.18,15S527,443.79,527,447.8s3.95,9.63,7.08,14.72,7.13,5.36,14.89,5.29c12.11,5.82,27.87,11.75,32.8,11.75,12.57,0,11.73-14.83,18.4-14.83,1.47,0,5.29.54,6.25-.56,0,0,8.23-13.25,8.23-14.73,0-3-4.88-4.07-15-4.07-9.85,0-12.9,20.17-21.49,20.17-8.92,0-18.88-5.39-18.88-10.85,0-11.4,13.21-16.55,21.57-23.2,9.35-7.4,6.65-15.27,9.92-15.27,4.31,0,.49,8.83.49,10.93s2.19,3.19,6.1,3.19c15.7,0,18.56-3.31,28.45-3.31,8.61,0,12.11,2.33,18.55,2.33,18.09,0,11.07-23.91,11.07-29.77,0-.77,1-1.63,2.25-1.63,2.09,0,3.07,9.81,5.37,24.24,1.69,7.49,10.86,24.6,37.73,25.34,21.34.6,32,7.54,37.83,17.42.86,1.13-.46,3.81-2.54,1.29-5.88-5.86-15.91-14.59-35.94-14-21.56.62-33-6.78-41.46-22.21-1.56,0-2.78,1.72-3.76,2.73,0,4.53,2.8,6.37,4.42,10.26,1.23,3,4.41,9.51,7.64,10.41,7.61,2.07,12.08,8.67,21,8.67,5.44,0,11.18-2.11,18.31-2.11,10.65,0,10.89,5.69,17.3,9.19s8.56,4.78,11.48,4.78c2.35,0,5.08-1.47,7.45-1.47,7.65,0,6.89,14.5,18.64,14.5,4.91,0,7.9-1.56,12-1.87-.64-9.5-5.21-15.06-5.21-15.06-7.25-.21-11.44-9.23-11.44-9.23M466.22,408.75c-.35,2.71.36,5-1.76,5-1.46,0-2.54-4.17-2.54-7.85s2.34-8.38,6.06-12.55,4.11-8.32,8.39-8.32c2.54,0,2.52,4.09,6.13,9.91,1.1,1.77,2.25,4.52,1.2,7-.87.6-4.05-5.95-7.38-5.95-3.82,0-9.43,7.58-10.1,12.77m17.91,37.4c-6.46,0-8.07-1.07-8.07-6.5,0-2.69,1.15-2.78,2.34-2.78,4.5,0,8.86,6.51,8.86,8.14,0,.47-.55,1.14-3.13,1.14m44.93-86.31-1-.14c-3.85-12.92,2-25.42,6.58-25.42a2.46,2.46,0,0,1,2.49,2.62c0,4.23-5.07,3.94-8,22.94"/><path class="cls-5" d="M121.56,348.53a56.53,56.53,0,0,1,8.43-1V94.33H668V347.57a57.13,57.13,0,0,1,8.44,1V85.88H121.56Z"/><path class="cls-5" d="M668,532.62c0,65.26-125.74,173.23-269,173.23s-269-108-269-173.23v-73.2c-2.77,1.3-5.41,3.25-8.47,4.86v68.34c0,69.64,129.74,181.67,277.48,181.67s277.44-112,277.44-181.67V464.28c-3-1.61-5.67-3.54-8.43-4.86Z"/><path class="cls-5" d="M664,347.27V98.4H134V347.27c4.16-.77,9.35-4.07,15.93-9.79V114.27H648.05V337.48c6.58,5.72,11.77,9,15.91,9.79"/><path class="cls-5" d="M134.05,532.62c0,63.73,123.83,169.18,265,169.18S664,596.35,664,532.62v-75c-8.49-5-14.19-19.86-14.19-24-.58.16-1.15.29-1.72.45v98.54c0,50.47-115.29,153.27-249,153.27S149.94,583.09,149.94,532.62V434.08c-.55-.16-1.15-.29-1.71-.45,0,4.16-5.69,19-14.18,24Z"/><polygon class="cls-5" points="202.6 582.33 278 514.47 270.96 506.65 223.47 550.94 263.54 498.41 256.89 491.04 181.51 558.91 188.53 566.7 236.02 522.42 195.94 574.94 202.6 582.33"/><path class="cls-5" d="M308.87,551l6-8.61-17.25-12.08A10.53,10.53,0,0,0,283,532.85l-46.11,65.88a10.49,10.49,0,0,0,2.58,14.66l17.21,12,6-8.59-17.21-12.08,20-28.64,12.93,9.06,6-8.61-12.91-9.05,20-28.62Z"/><path class="cls-5" d="M330.36,657.86,366.59,563l-10.09-3.44-24.7,70.06c3.71-16.46,4.79-27.95,6.92-39.38l-8.31-2.88c-5.36,10.34-11.56,20.06-18.76,35.32l23.64-70.44L325.2,548.8l-29.79,97,9.28,3.16,25.25-46.26-8.86,51.93Z"/><path class="cls-5" d="M442.26,602.88l-5-40.89-10.43,1.27,5.55,45.27-10.44,1.29-5.57-45.25-10.41,1.25,5,40.91c1.35,11.11,12.24,13.52,12.24,13.52l5.54,45L439.16,664l-5.51-45s10-4.79,8.61-16.08"/><path class="cls-5" d="M484.3,638.08a15.78,15.78,0,0,0,29.26-11.83l-26.83-66.4a15.77,15.77,0,0,0-29.24,11.82Zm-9-78.37,30.11,74.56-9.74,4L465.6,563.65Z"/><path class="cls-5" d="M567.57,600.62a17,17,0,0,0,6.34,4.66l8.6-6.52c-2.68-1.16-4.86-2.2-6.56-4.46l-20.34-27c-3.78-5-6.77-5.43-9.4-4.67,1.19-2.66,1.79-5.45-1.13-9.28l-19.33-25.65A10.47,10.47,0,0,0,511,525.61l-16.78,12.67,61,81,8.38-6.32-27.36-36.33,8.4-6.32ZM530,568.25,509,540.34l8.42-6.32,21,27.91Z"/><path class="cls-5" d="M591.85,533.86c5.74,4.79,23.11,19.36,23.11,19.36s3.67,3.42,7.66,3.42l6.94-8.25a18.06,18.06,0,0,1-9.24-4.36L601.06,527.9s-12.77-11.91-23.9,1.37c0,0,9.64-13.33-4.76-25.4l-17.07-14.3a13.52,13.52,0,0,1-3.45-6.4L545,491.45a19.13,19.13,0,0,0,5,7.33l19.53,16.34s7.7,5.8.67,14.19l-33.48-28-6.74,8,77.76,65.15,6.68-8L578.45,536.3s6.68-8.06,13.4-2.44"/><path class="cls-5" d="M429.56,355.73l-5.19-14.6-.74-2.1-30.61.83-9.2,12.88L381,356.69s8.41,6.34,23,9.52c0,0,13.94-3.59,25.52-10.48"/><path class="cls-5" d="M460.73,306c1.13-15.51.34-24-.29-27.83a17.1,17.1,0,0,0-.54-2.51c-6.75-5.51-21.09-12.26-21.09-12.26a184.13,184.13,0,0,0-13.66,23.43c6.2,13,14.6,27.18,14.6,27.18a89.61,89.61,0,0,0,12.95-4.23,74.57,74.57,0,0,0,8-3.78"/><path class="cls-5" d="M394.66,287.35s-8.83-14.07-18.05-24.57c0,0-19.45,8.69-26.63,12.44a175.08,175.08,0,0,0,.29,31.95s11.3,4,27.86,8c0,0,12.27-19.57,16.53-27.83"/><path class="cls-5" d="M330.54,279.36l9.19-12.9,11.37-21.11a70.58,70.58,0,0,0-20.56,34"/><path class="cls-5" d="M421.3,241.56l3.92-9.87a71.27,71.27,0,0,0-48.65-1.38l13.55,10.84a174.54,174.54,0,0,1,31.18.41"/><path class="cls-5" d="M353.59,351.84l2.87-2.32L354.91,347l-13.86-22.47L329.9,313.08a70.73,70.73,0,0,0,23.69,38.76"/></g></svg>