<svg id="Layer_1" data-name="Layer 1" xmlns="http://www.w3.org/2000/svg" viewBox="0 0 800 800"><defs><style>.cls-1{fill:#fff;}.cls-2{fill:#f2d11a;}.cls-3{fill:#a50531;}.cls-4{fill:#001e61;}</style></defs><title>RSL-Logo</title><path class="cls-1" d="M465.86,556.09a65.66,65.66,0,0,0-12-36.88l-26.6.33-7.91-25.41a66.21,66.21,0,0,0-38.76,0l-7.91,25.41-26.6-.33a65.66,65.66,0,0,0-12,36.88l21.7,15.37-8.53,25.18a66.14,66.14,0,0,0,31.35,22.8L400,603.54l21.33,15.9a66.12,66.12,0,0,0,31.36-22.8l-8.53-25.18ZM451,522.79a61.21,61.21,0,0,1,10.41,32.1l-15.8,11.19,7.46-26.22L431.64,523ZM383.13,498a62,62,0,0,1,33.74,0l5.76,18.5L400,501.3l-22.63,15.18Zm-28.75,68.1-15.8-11.19A61,61,0,0,1,349,522.79l19.36.24-21.44,16.83Zm24.51,48.77A61.63,61.63,0,0,1,351.61,595l6.21-18.34,9.38,25.59,27.23,1ZM400,599.41l-3.44-16.29-20.25-14.71-16.54,1.76,14.42-8.3,7.73-23.79-6.78-15.2L387.49,534h25l12.35-11.15-6.78,15.2,7.73,23.79,14.42,8.3-16.54-1.76-20.25,14.71ZM448.39,595a61.63,61.63,0,0,1-27.28,19.85l-15.54-11.59,27.23-1,9.39-25.59Z"/><polygon class="cls-1" points="380.76 566.66 394.56 548.26 414.71 540.78 388.83 540.78 380.76 566.66"/><path class="cls-2" d="M104.13,1.21V305.52C104.13,647.06,400,798.79,400,798.79S695.87,647.06,695.87,305.52V1.21ZM684.68,305.52c0,306-245.92,458-284.68,480.07-38.76-22.11-284.67-174.12-284.67-480.07V12.38H684.68Z"/><path class="cls-2" d="M400,759.17c58.81-35.51,262.3-177.32,262.3-453.65V34.77H137.71V305.52C137.71,581.85,341.19,723.66,400,759.17ZM148.89,46H651.12V305.52C651.12,567.6,463.68,706.1,400,746,336.32,706.1,148.89,567.6,148.89,305.52Z"/><path class="cls-2" d="M521.83,201.73a192.45,192.45,0,0,1,58.42,110.18,197.92,197.92,0,0,0-56.08-115.18Z"/><path class="cls-2" d="M325.85,523.72a193,193,0,0,1-53-333.18l-6.09-13.09A198.51,198.51,0,0,0,325,525.57C325.29,525,325.58,524.35,325.85,523.72Z"/><path class="cls-2" d="M458.35,340.9q-19.74-17.75-43.54-20.77s71-5.44,71-46.69c0-19.84-24.82-46.68-102.14-46.68H292.86s12.08,6.75,12.08,12.5v88c11.25,5.51,26.6,10.59,41.85,16.78V327h24.93c13.24,0,20.8,3,27.7,8.77l72.45,67.45c10.14,8.68,30.26,19.25,47.77,19.25,22.49,0,31.47-7.5,31.47-7.5s-14.51-.91-25.53-10.35ZM377,316h-30.2V238.17H377c38,0,63.34,13,63.34,38.91C440.33,298.11,414,316,377,316Z"/><path class="cls-2" d="M304.94,373.82v29.27c0,6.72-10.81,12.43-10.81,12.43h64.11s-11.45-5.71-11.45-12.43v-9.92C336.91,386.14,321.15,380.38,304.94,373.82Z"/><path class="cls-2" d="M260.47,132.76c4.79,11.33,6.82,15.29,6.82,15.29l-3.86,14.14,15,6.58,9.29,20s43.71-19.7,112.29-19.7,112.29,19.7,112.29,19.7l9.28-20,15-6.58-3.85-14.14s2-4,6.81-15.29,28-23.53,28-23.53c-19.61-20.17-35.87,20.17-56.58.57-7.14,10.67,7.84,23.52,7.84,23.52a23.68,23.68,0,0,1-17.53,13.4c-15.74,2.65-32.18,1.66-35.36-27.33,0,0-10.67,29.31-35.33,22.89-16.07-4.17-22.49-17-24.76-23.46,16-1.93,28.16-11.69,28.16-23.43H410.7c-.9-12-10.7-21.84-10.7-21.84s-9.81,9.86-10.71,21.84H366c0,11.74,12.18,21.5,28.16,23.43-2.26,6.48-8.69,19.29-24.75,23.46-24.67,6.42-35.33-22.89-35.33-22.89-3.19,29-19.62,30-35.36,27.33a23.68,23.68,0,0,1-17.53-13.4s15-12.85,7.83-23.52c-20.71,19.6-37-20.74-56.57-.57C232.47,109.23,255.7,121.44,260.47,132.76Z"/><path class="cls-2" d="M511.31,214.33a7.81,7.81,0,0,0,.82-3.42c0-15.73-50.22-28.47-112.13-28.47s-112.13,12.74-112.13,28.47a8.07,8.07,0,0,0,.8,3.42c23.87-12.64,64.8-21,111.33-21S487.46,201.69,511.31,214.33Z"/><path class="cls-2" d="M346.92,539.86,368.36,523,349,522.79a61,61,0,0,0-10.42,32.1l15.8,11.19Z"/><path class="cls-2" d="M416.87,498a62,62,0,0,0-33.74,0l-5.76,18.5L400,501.3l22.63,15.18Z"/><path class="cls-2" d="M431.64,523l21.44,16.83-7.46,26.22,15.8-11.19A61.21,61.21,0,0,0,451,522.79Z"/><path class="cls-2" d="M357.82,576.66,351.61,595a61.63,61.63,0,0,0,27.28,19.85l15.54-11.59-27.23-1Z"/><path class="cls-2" d="M432.8,602.25l-27.23,1,15.54,11.59A61.63,61.63,0,0,0,448.39,595l-6.2-18.34Z"/><path class="cls-3" d="M115.33,12.38V305.52c0,306,245.91,458,284.67,480.07,38.76-22.11,284.68-174.12,284.68-480.07V12.38Zm547,293.14c0,276.33-203.49,418.14-262.3,453.65-58.81-35.51-262.29-177.32-262.29-453.65V34.77H662.3Z"/><path class="cls-3" d="M602.26,340.75A214.31,214.31,0,0,1,478.32,535.27a81.8,81.8,0,0,1,2.45,12.54A218.2,218.2,0,0,0,533.59,179l-3.25,1.41A214.07,214.07,0,0,1,602.26,340.75Z"/><path class="cls-3" d="M319,550.76c.18-2.46.48-4.88.88-7.26a214.28,214.28,0,0,1-117.78-99.23A217.86,217.86,0,0,0,319,550.76Z"/><path class="cls-3" d="M406.7,285v19.35c17-6,26.73-16.91,26.73-27.27a28.71,28.71,0,0,0-.3-4H396.67S406.7,275.64,406.7,285Z"/><path class="cls-3" d="M406.7,351.94v89.22c0,9.35-10,11.92-10,11.92H515.18c47.52,0,31.19-27.9,31.19-27.9S537.1,441.41,509,441.41H442v-56.6Z"/><path class="cls-3" d="M370.94,310s12.23-6.07,12.23-17.16c0-10.78-13.46-16.63-29.48-19.56v13.52C364.83,291.89,370.24,300.16,370.94,310Z"/><path class="cls-3" d="M248.23,425.14c0,15.9,30.28,30.26,72.92,30.26,53.54,0,75.83-27.74,75.83-54,0-56.19-116.41-55-116.41-92,0-9.65,7.32-17.52,17.46-22.46V273.69c-23.94,5.59-46.82,19.47-46.82,43.94C251.21,369.7,364,368,364,409c0,21.09-14.74,35.47-42.88,35.47-31.89,0-58.91-16.61-52.22-41.42C268.93,403,248.23,407.82,248.23,425.14Z"/><path class="cls-3" d="M334.7,563.3a36.32,36.32,0,0,0,7.86,26.05l2.47-7.59S336.11,573.69,334.7,563.3Z"/><path class="cls-3" d="M385.71,621.12a36.37,36.37,0,0,0,27.2.58L406.47,617S396,623,385.71,621.12Z"/><path class="cls-3" d="M459,569.46s2.46,11.79-2.52,21a36.3,36.3,0,0,0,9-25.69Z"/><path class="cls-3" d="M427.52,497.27l2.46,7.55s12,1.31,19.21,8.89A36.27,36.27,0,0,0,427.52,497.27Z"/><path class="cls-3" d="M373.94,496.91a36.35,36.35,0,0,0-22.35,15.53h8S364.48,501.46,373.94,496.91Z"/><path class="cls-3" d="M418.08,538.08l6.78-15.2L412.51,534h-25l-12.35-11.15,6.78,15.2-7.73,23.79-14.42,8.3,16.54-1.76,20.25,14.71L400,599.41l3.44-16.29,20.25-14.71,16.54,1.76-14.42-8.3Zm-23.52,10.18-13.8,18.4,8.07-25.88h25.88Z"/><path class="cls-4" d="M148.89,46V305.52C148.89,567.6,336.32,706.1,400,746,463.68,706.1,651.12,567.6,651.12,305.52V46ZM342.56,589.35a36.32,36.32,0,0,1-7.86-26.05c1.41,10.39,10.33,18.46,10.33,18.46Zm43.15,31.77C396,623,406.47,617,406.47,617l6.44,4.69A36.37,36.37,0,0,1,385.71,621.12ZM459,569.46l6.44-4.68a36.3,36.3,0,0,1-9,25.69C461.44,581.25,459,569.46,459,569.46Zm-14.82,2,8.53,25.18a66.12,66.12,0,0,1-31.36,22.8L400,603.54l-21.34,15.9a66.14,66.14,0,0,1-31.35-22.8l8.53-25.18-21.7-15.37a65.66,65.66,0,0,1,12-36.88l26.6.33,7.91-25.41a66.21,66.21,0,0,1,38.76,0l7.91,25.41,26.6-.33a65.66,65.66,0,0,1,12,36.88Zm-123-127c28.14,0,42.88-14.38,42.88-35.47,0-41-112.82-39.27-112.82-91.34,0-24.47,22.88-38.35,46.82-43.94V287c-10.14,4.94-17.46,12.81-17.46,22.46,0,37,116.41,35.82,116.41,92,0,26.23-22.29,54-75.83,54-42.64,0-72.92-14.36-72.92-30.26,0-17.32,20.7-22.12,20.7-22.12C262.24,427.83,289.26,444.44,321.15,444.44Zm37.09-28.92H294.13s10.81-5.71,10.81-12.43V373.82c16.21,6.56,32,12.32,41.85,19.35v9.92C346.79,409.81,358.24,415.52,358.24,415.52ZM511.31,214.33c-23.85-12.64-64.78-21-111.31-21s-87.46,8.34-111.33,21a8.07,8.07,0,0,1-.8-3.42c0-15.73,50.22-28.47,112.13-28.47s112.13,12.74,112.13,28.47A7.81,7.81,0,0,1,511.31,214.33ZM449.19,513.71C442,506.13,430,504.82,430,504.82l-2.46-7.55A36.27,36.27,0,0,1,449.19,513.71Zm-75.25-16.8c-9.46,4.55-14.39,15.53-14.39,15.53h-8A36.35,36.35,0,0,1,373.94,496.91Zm22.73-43.83s10-2.57,10-11.92V351.94L442,384.81v56.6H509c28.14,0,37.41-16.23,37.41-16.23s16.33,27.9-31.19,27.9Zm123-30.64c-17.51,0-37.63-10.57-47.77-19.25l-72.45-67.45c-6.9-5.8-14.46-8.81-27.7-8.77H346.79V344c-15.25-6.19-30.6-11.27-41.85-16.78v-88c0-5.75-12.08-12.5-12.08-12.5H383.7c77.32,0,102.14,26.84,102.14,46.68,0,41.25-71,46.69-71,46.69q23.82,3.06,43.54,20.77l67.23,63.69c11,9.44,25.53,10.35,25.53,10.35S542.13,422.44,519.64,422.44Zm2.19-220.71,2.34-5a197.92,197.92,0,0,1,56.08,115.18A192.45,192.45,0,0,0,521.83,201.73Zm-.26-33-9.28,20s-43.72-19.7-112.29-19.7-112.29,19.7-112.29,19.7l-9.29-20-15-6.58,3.86-14.14s-2-4-6.82-15.29-28-23.53-28-23.53c19.61-20.17,35.86,20.17,56.57.57,7.15,10.67-7.83,23.52-7.83,23.52a23.68,23.68,0,0,0,17.53,13.4c15.74,2.65,32.17,1.66,35.36-27.33,0,0,10.66,29.31,35.33,22.89,16.06-4.17,22.49-17,24.75-23.46-16-1.93-28.16-11.69-28.16-23.43h23.27c.9-12,10.71-21.84,10.71-21.84s9.8,9.86,10.7,21.84H434c0,11.74-12.16,21.5-28.16,23.43,2.27,6.48,8.69,19.29,24.76,23.46,24.66,6.42,35.33-22.89,35.33-22.89,3.18,29,19.62,30,35.36,27.33a23.68,23.68,0,0,0,17.53-13.4s-15-12.85-7.84-23.52c20.71,19.6,37-20.74,56.58-.57,0,0-23.24,12.21-28,23.53s-6.81,15.29-6.81,15.29l3.85,14.14ZM266.8,177.45l6.09,13.09a193,193,0,0,0,53,333.18c-.27.63-.56,1.24-.82,1.85A198.51,198.51,0,0,1,266.8,177.45ZM202.06,444.27A214.28,214.28,0,0,0,319.84,543.5c-.4,2.38-.7,4.8-.88,7.26A217.86,217.86,0,0,1,202.06,444.27ZM480.77,547.81a81.8,81.8,0,0,0-2.45-12.54,214.69,214.69,0,0,0,52-354.91l3.25-1.41a218.2,218.2,0,0,1-52.82,368.86Z"/><path class="cls-4" d="M440.33,277.08c0-25.89-25.35-38.91-63.34-38.91h-30.2V316H377C414,316,440.33,298.11,440.33,277.08ZM370.94,310c-.7-9.85-6.11-18.12-17.25-23.2V273.29c16,2.93,29.48,8.78,29.48,19.56C383.17,303.94,370.94,310,370.94,310Zm35.76-5.66V285c0-9.36-10-11.92-10-11.92h36.46a28.71,28.71,0,0,1,.3,4C433.43,287.44,423.67,298.32,406.7,304.35Z"/></svg>