<svg id="Layer_1" data-name="Layer 1" xmlns="http://www.w3.org/2000/svg" viewBox="0 0 800 800"><defs><style>.cls-1{fill:#fff;}.cls-2{fill:#638c1c;}.cls-3{fill:#236092;}.cls-4{fill:#1d252c;}</style></defs><title>SEA-Logo</title><g id="SEA-Logo"><path class="cls-1" d="M673.88,198.36s-31.15,4.69-77.14,5.92c0,0,5.86-56.88,3.34-135.25l-200-70.5L200.11,69c-2.52,78.37,3.35,135.25,3.35,135.25-46-1.23-77.13-5.92-77.13-5.92s21.86,37.65,33,73.53c-15.75,6.34-28.43,13-28.43,13V476.46s14.91-8.87,33.34-17.22a193.47,193.47,0,0,1-9.46,20.52s173,86,245.3,320.24c72.26-234.23,245.3-320.24,245.3-320.24A192.37,192.37,0,0,1,636,459.24c18.41,8.35,33.32,17.22,33.32,17.22V284.85s-12.67-6.62-28.42-13C652,236,673.88,198.36,673.88,198.36Zm-15.26,93v167s-14.11-7.8-39.37-17.78c5.51,22.52,11.84,34.66,11.84,34.66s-159.26,83.4-231,292c-71.73-208.57-231-292-231-292s6.35-12.14,11.85-34.66c-25.25,10-39.38,17.78-39.38,17.78v-167s11.13-5.65,31.09-13.32a431.53,431.53,0,0,0-27.33-66.78s28.38,3.28,69.74,3.93a1142.27,1142.27,0,0,1-4.51-138.6L400.1,9.84,589.63,76.62a1138.33,1138.33,0,0,1-4.5,138.6c41.37-.65,69.73-3.93,69.73-3.93a432.15,432.15,0,0,0-27.32,66.78C647.5,285.74,658.62,291.39,658.62,291.39Z"/><path class="cls-1" d="M195.23,269.88c-3.68-11.44-7.61-22.15-11.51-31.83q16.92.82,33.95,1.12c-.3-2.51-.58-5-.87-7.54-17.43-.23-32.56-.91-44.55-1.67,4.9,11.39,10.59,25.91,15.87,42.4C190.41,271.55,192.78,270.71,195.23,269.88Z"/><path class="cls-1" d="M592.67,430.94a262.85,262.85,0,0,0,8.74,34.21c-43.65,28-138.44,101.2-201.31,238.26C337.23,566.35,242.43,493.16,198.79,465.15a263,263,0,0,0,8.73-34.21c-2.84.94-5.59,1.91-8.26,2.83a245.77,245.77,0,0,1-9.51,34.55C227.12,491.51,335,568.78,400.1,721.6c65-152.82,173-230.09,210.35-253.28a244.2,244.2,0,0,1-9.52-34.55C598.26,432.85,595.52,431.88,592.67,430.94Z"/><path class="cls-1" d="M605,269.88c2.45.83,4.82,1.67,7.13,2.48,5.27-16.49,11-31,15.86-42.4-12,.76-27.11,1.44-44.55,1.67-.29,2.54-.57,5-.87,7.54,11.34-.18,22.68-.57,33.94-1.12C612.58,247.73,608.64,258.44,605,269.88Z"/><path class="cls-1" d="M252.25,253.49c-6.64-45.68-10.34-96.83-9.69-154L390.48,47.43,387.7,83.9l-1.62,2.25a51.3,51.3,0,0,0-15.21,9,23.74,23.74,0,0,0-7.26,13.16c-17.7,3.51-33.31,9.85-41.24,19.14-12.4,5.1-26.61,13.38-26.61,26.12,0,11.1,11.14,18.85,21.53,24,0,14.22,20.41,21.18,31.36,24.24l4.94,35.71c2.71-.21,5.42-.42,8.16-.58l-5.83-41.67c-16.54-3.95-30.48-10.39-30.48-17.7a7.83,7.83,0,0,1,1.68-4.68c-13.5-5.24-21.62-11.94-21.62-19.27s8.25-14.11,21.93-19.37c6.15-8.79,23.19-15.94,45.34-19.21-4.14-6.44,3.55-13.8,3.55-13.8A40.72,40.72,0,0,1,391.14,93l4.55-6.28,2.84-39.63c1.52-5.55,3.12,0,3.12,0l2.87,39.63L408,91.56c12.82,3.72,17.87,10,17.87,10l-2.62-.18c-11.74,1.44-14.91,7.64-14.46,11.86,30.95,1.36,56.2,9.81,64,21,13.69,5.26,21.94,12,21.94,19.37s-8.12,14-21.62,19.27a7.83,7.83,0,0,1,1.68,4.68c0,7.31-13.93,13.75-30.48,17.7l-5.83,41.67c2.73.16,5.47.37,8.16.58l4.94-35.71c10.94-3.06,31.36-10,31.36-24.24,10.39-5.1,21.55-12.85,21.55-24,0-12.74-14.22-21-26.64-26.12-7.93-9.29-23.53-15.63-41.23-19.14a23.63,23.63,0,0,0-7.27-13.16,51,51,0,0,0-15.2-9L412.5,83.9l-2.77-36.47L557.66,99.52c.62,57.14-3.08,108.29-9.71,154,3.58.84,7.07,1.73,10.51,2.59,7.08-48.48,10.94-103,10-164.25L400.1,32.48,231.72,91.83c-.92,61.25,2.94,115.77,10,164.25C245.17,255.22,248.67,254.33,252.25,253.49Z"/><path class="cls-1" d="M362.22,400.39c-3.23,37.44-9.3,76.91-16.39,115-17.57-26.18-36.94-61.17-54.12-106.2-3.67.68-7.3,1.39-10.87,2.1C330.58,543,400.1,592.89,400.1,592.89S469.62,543,519.36,411.26c-3.58-.71-7.2-1.42-10.87-2.1-17.18,45-36.55,80-54.13,106.2-7.09-38.06-13.15-77.53-16.38-115-3-.15-6-.34-9-.49,3.57,42,11.49,89.94,18.17,125.9-4.46,6.26-8.75,11.89-12.82,17-4.65-23.37-9.57-48.58-13.24-68.42-.84-4.58-2.06-7.25-4.08-7-1.61.21-2.39,2.33-2.57,7.54l-6.32,96.77c-5.07,4.82-8,7.12-8,7.12s-3-2.3-8-7.12l-6.32-96.77c-.17-5.21-1-7.33-2.56-7.54-2-.29-3.24,2.38-4.09,7-3.66,19.84-8.59,45.05-13.24,68.42-4.06-5.07-8.36-10.7-12.81-17,6.68-36,14.58-83.94,18.16-125.9C368.19,400.05,365.2,400.24,362.22,400.39Z"/><path class="cls-1" d="M459.52,172.16c2.45-6.54-.72-13.69-6.41-19.13a3.59,3.59,0,0,1,2-4.53,71.77,71.77,0,0,1,8.48,7.88c6.78-17.86-31.28-38.38-54.17-22.65a72,72,0,0,1,38,9.53c.85,2.78-2,4.27-2,4.27-7.95-4.11-17.47-5.05-24.47.31C420.92,147.84,445.74,154.94,459.52,172.16Z"/><path class="cls-1" d="M428.71,236.37l2.94-35.57s.89-4-3.85-3.06l-9.22,1.49a3.59,3.59,0,0,0-3.26,4.26V235.9Q422.07,236.07,428.71,236.37Z"/><path class="cls-1" d="M372.41,197.74c-4.76-.89-3.86,3.06-3.86,3.06l2.93,35.57q6.63-.31,13.4-.47V203.49a3.6,3.6,0,0,0-3.26-4.26Z"/><path class="cls-1" d="M158,301.73V432.38s103.38-49.6,242.12-49.6,242.11,49.6,242.11,49.6V301.73S538.84,252.1,400.1,252.1,158,301.73,158,301.73ZM267.8,303l6.27-1.21c0,2.39.9,2.41,2.72,2.07l7.68-1.49c1.34-.26,2.69-.71,2.69-2.44,0-2-.74-2-8.82-.39-9.44,1.83-10.51.79-10.51-4.79,0-4.14.33-7.38,8.24-8.93l8.77-1.7c7.24-1.41,7.92,1.21,7.92,5.19v.73l-6.29,1.23c0-1.68-.15-2.33-3.05-1.78l-6.95,1.36c-1.41.29-2.38,1-2.38,2.23,0,2,.77,1.88,7.51.54,9.74-1.93,12-1.7,12,4.93,0,6.12-1.87,7.51-10.21,9.11l-7.6,1.49c-5.72,1.1-8,.34-8-4.58Zm-81.88,99.36c-6,2.23-13.24,2.36-17.87.79l3.4-13.17a21.23,21.23,0,0,0,14.83,0c4.34-1.6,6-4.4,6-7.18,0-3-1.38-4.45-9.47-4.94-9.34-.58-12.59-5.21-12.59-12,0-8.3,6.3-18.66,18.67-23.24,5.77-2.1,11.71-2.15,14.83-1l-3.12,12.93c-3-1.1-8-1.73-11.71-.34-4.49,1.68-6.3,4.58-6.3,6.91,0,3.72,2.67,3.95,9.33,4.53,9.91.84,12.88,4.87,12.88,12.15C204.8,386.83,198.64,397.72,185.92,402.38Zm47-17.25c-15.36,4-25.16-5.78-25.16-22s10.27-31.31,25.63-35.29,25.15,5.76,25.15,22.1S248.2,381.13,232.92,385.13Zm70.38-66.91v27.25c0,15.47-7.5,24.82-20.13,27s-19.67-4.42-19.67-19.6V321.23L274.4,319v31c0,7.8,2.82,12,9,10.83s9-6.36,9-14.21V315.55l15.12-2.32Zm9-38.63,22.39-2.75v5.29l-16.11,2v3.64l15.26-1.86-2.17,5-13.09,1.62v3.64L335,294.06v5.5l-22.75,2.78Zm42.65,81.85-34.08-26.91L326,342.1V363l-12.84,1.52V310.71l29.07,24.14v-26l12.7-1Zm3.64-63.71-7,.52,11.09-23.53,8.15-.58,11.27,22-7,.47-1.94-3.9-12.73.91Zm42.81,42.59c0,14-10.87,18.9-16.6,18.74-10.51.37-18.69.44-18.69.44V312.57l-4.56-5.18s13.18-.84,24.81-1c7.3.37,15,3.09,15,16.7Zm43.15-21.21L424,317.91l0,10.13,17.31,1.55-5.84,8.84-11.51-1,0,11.07,20.6,1.65v10.63l-32.73-1.91V332l-6-5.58,6,.61v-20.5l32.73,1.7ZM616,347.65a44,44,0,0,1,15.68,10.47l-3.56,9.42a35.94,35.94,0,0,0-12-8c-9.39-3.4-15.19.71-15.19,10.84a22.72,22.72,0,0,0,15.19,21.91,20.39,20.39,0,0,0,12.53.52l3.49,12c-4.38,1.55-10.41,1.29-16.16-.81-16.35-6-27.45-22-27.45-38.11S599.65,341.68,616,347.65Zm-59.34,2.59V327.05L589,335.69v11.7l-20.48-5.48v11.47l17.71,4.74-5.89,7.95-11.82-3.16v22.25L556.66,382v-26.7l-6-6.64Zm-51.66-67,22.37,4.37v5.23l-16.1-3.11v3.66l15.25,2.94-2.61,4.16-12.64-2.41v3.66l16.48,3.2v5.44L505,306Zm6.5,64.16c-9-5.53-12.27-11.55-12.4-17.91-.12-7.72,5.8-14,17.71-11.67a34.16,34.16,0,0,1,14.36,6.91l-2.81,10.39c-3-2.67-7.73-5.84-11.34-6.55-4.33-.86-6,.89-6,3.07.06,3.45,2.65,5.1,9.12,9.19,9.61,6.07,12.55,11.38,12.67,18.16.16,8.43-5.62,15.26-17.9,12.85-5.77-1.12-12.79-4.86-17.28-8.79l3.06-10.45c4.16,3.9,9.57,7,14.38,7.94,4.17.81,5.74-.89,5.7-3.49S519.38,352.15,511.5,347.39ZM494.55,367l-13.42-2.31-9.26-20.81-5.49-.83v19.81L454.9,361.6V314.85l-5.66-6.18,27.12,3c10.53,1.54,16,10.16,16,19.13,0,7.05-4,11.26-8.7,12.73Zm-24.09-89.08,6.28.92v16.88l14.1,2v5.87l-20.38-2.86Zm-40.38-3.38L454,276.24v5.65l-8.82-.63v17.1l-6.27-.45V280.82l-8.84-.58Zm-12.24,5.19-8.81-.19v17.12l-6.28-.13V279.46l-8.81-.13v-5.68l23.9.44Z"/><path class="cls-1" d="M233.11,339.38C225.27,341.44,220,350,220,359.92s5.28,15.76,13.12,13.75,13.13-10.66,13.13-20.58S241,337.33,233.11,339.38Z"/><path class="cls-1" d="M377.34,317.07V348.2l5.06-.24c6.81.24,8.44-3.93,8.44-7.85V325.76C390.84,315,383.87,317.52,377.34,317.07Z"/><path class="cls-1" d="M474.5,322.39l-8.12-1.21v11.76l8.47,1.25a7.25,7.25,0,0,0,1.52.08c2.87-.18,4.42-1.86,4.48-4.89A7,7,0,0,0,474.5,322.39Z"/><polygon class="cls-1" points="362.75 288.54 370.77 287.94 366.71 279.69 362.75 288.54"/><path class="cls-2" d="M252.25,253.49a644.24,644.24,0,0,1,101.34-16l-4.94-35.71c-10.95-3.06-31.36-10-31.36-24.24-10.39-5.1-21.53-12.85-21.53-24,0-12.74,14.21-21,26.61-26.12,7.93-9.29,23.54-15.63,41.24-19.14a23.74,23.74,0,0,1,7.26-13.16,51.3,51.3,0,0,1,15.21-9l1.62-2.25,2.78-36.47L242.56,99.52C241.91,156.66,245.61,207.81,252.25,253.49Z"/><path class="cls-2" d="M557.66,99.52,409.73,47.43,412.5,83.9l1.62,2.25a51,51,0,0,1,15.2,9,23.63,23.63,0,0,1,7.27,13.16c17.7,3.51,33.3,9.85,41.23,19.14,12.42,5.1,26.64,13.38,26.64,26.12,0,11.1-11.16,18.85-21.55,24,0,14.22-20.42,21.18-31.36,24.24l-4.94,35.71a643.86,643.86,0,0,1,101.34,16C554.58,207.81,558.28,156.66,557.66,99.52Z"/><path class="cls-2" d="M345.83,515.36c7.09-38.06,13.16-77.53,16.39-115a607.07,607.07,0,0,0-70.51,8.77C308.89,454.19,328.26,489.18,345.83,515.36Z"/><path class="cls-2" d="M454.36,515.36c17.58-26.18,36.95-61.17,54.13-106.2A606.8,606.8,0,0,0,438,400.39C441.21,437.83,447.27,477.3,454.36,515.36Z"/><path class="cls-3" d="M582.53,239.17c-.95,7.73-2,15.26-3.06,22.7,9.2,2.67,17.73,5.39,25.49,8,3.68-11.44,7.62-22.15,11.51-31.83C605.21,238.6,593.87,239,582.53,239.17Z"/><path class="cls-3" d="M217.67,239.17q-17-.27-33.95-1.12c3.9,9.68,7.83,20.39,11.51,31.83,7.77-2.62,16.3-5.34,25.5-8C219.63,254.43,218.6,246.9,217.67,239.17Z"/><path class="cls-3" d="M541,416.07C484.72,567.63,400.1,619.49,400.1,619.49s-84.62-51.86-140.92-203.42c-19.28,4.64-36.61,9.79-51.66,14.87a263,263,0,0,1-8.73,34.21c43.64,28,138.44,101.2,201.31,238.26C463,566.35,557.76,493.16,601.41,465.15a262.85,262.85,0,0,1-8.74-34.21C577.63,425.86,560.3,420.71,541,416.07Z"/><path class="cls-4" d="M658.62,291.39s-11.12-5.65-31.08-13.32a432.15,432.15,0,0,1,27.32-66.78s-28.36,3.28-69.73,3.93a1138.33,1138.33,0,0,0,4.5-138.6L400.1,9.84,210.56,76.62a1142.27,1142.27,0,0,0,4.51,138.6c-41.36-.65-69.74-3.93-69.74-3.93a431.53,431.53,0,0,1,27.33,66.78c-20,7.67-31.09,13.32-31.09,13.32v167s14.13-7.8,39.38-17.78c-5.5,22.52-11.85,34.66-11.85,34.66s159.27,83.4,231,292c71.73-208.57,231-292,231-292s-6.33-12.14-11.84-34.66c25.26,10,39.37,17.78,39.37,17.78Zm-76.09-52.22c.3-2.51.58-5,.87-7.54,17.44-.23,32.57-.91,44.55-1.67-4.89,11.39-10.59,25.91-15.86,42.4-2.31-.81-4.68-1.65-7.13-2.48-7.76-2.62-16.29-5.34-25.49-8C580.56,254.43,581.58,246.9,582.53,239.17ZM231.72,91.83,400.1,32.48,568.48,91.83c.92,61.25-2.94,115.77-10,164.25-3.44-.86-6.93-1.75-10.51-2.59a643.86,643.86,0,0,0-101.34-16c-2.69-.21-5.43-.42-8.16-.58l5.83-41.67c16.55-3.95,30.48-10.39,30.48-17.7a7.83,7.83,0,0,0-1.68-4.68c13.5-5.24,21.62-11.94,21.62-19.27s-8.25-14.11-21.94-19.37c-7.77-11.15-33-19.6-64-21-.45-4.22,2.72-10.42,14.46-11.86l2.62.18s-5.05-6.31-17.87-10l-3.48-4.81-2.87-39.63s-1.6-5.55-3.12,0l-2.84,39.63L391.14,93a40.72,40.72,0,0,0-14.82,8.19s-7.69,7.36-3.55,13.8c-22.15,3.27-39.19,10.42-45.34,19.21-13.68,5.26-21.93,12-21.93,19.37s8.12,14,21.62,19.27a7.83,7.83,0,0,0-1.68,4.68c0,7.31,13.94,13.75,30.48,17.7l5.83,41.67c-2.74.16-5.45.37-8.16.58a644.24,644.24,0,0,0-101.34,16c-3.58.84-7.08,1.73-10.52,2.59C234.66,207.6,230.8,153.08,231.72,91.83Zm136.83,109s-.9-4,3.86-3.06l9.21,1.49a3.6,3.6,0,0,1,3.26,4.26V235.9q-6.76.16-13.4.47ZM453.11,153c5.69,5.44,8.86,12.59,6.41,19.13-13.78-17.22-38.6-24.32-38.6-24.32,7-5.36,16.52-4.42,24.47-.31,0,0,2.87-1.49,2-4.27a72,72,0,0,0-38-9.53c22.89-15.73,60.95,4.79,54.17,22.65a71.77,71.77,0,0,0-8.48-7.88A3.59,3.59,0,0,0,453.11,153Zm-34.53,46.2,9.22-1.49c4.74-.89,3.85,3.06,3.85,3.06l-2.94,35.57q-6.63-.31-13.39-.47V203.49A3.59,3.59,0,0,1,418.58,199.23ZM172.25,230c12,.76,27.12,1.44,44.55,1.67.29,2.54.57,5,.87,7.54.93,7.73,2,15.26,3.06,22.7-9.2,2.67-17.73,5.39-25.5,8-2.45.83-4.82,1.67-7.11,2.48C182.84,255.87,177.15,241.35,172.25,230Zm438.2,238.36C573.07,491.51,465.15,568.78,400.1,721.6,335,568.78,227.12,491.51,189.75,468.32a245.77,245.77,0,0,0,9.51-34.55c2.67-.92,5.42-1.89,8.26-2.83,15-5.08,32.38-10.23,51.66-14.87C315.48,567.63,400.1,619.49,400.1,619.49S484.72,567.63,541,416.07c19.29,4.64,36.62,9.79,51.66,14.87,2.85.94,5.59,1.91,8.26,2.83A244.2,244.2,0,0,0,610.45,468.32ZM365.88,542.76c4.65-23.37,9.58-48.58,13.24-68.42.85-4.58,2.06-7.25,4.09-7,1.6.21,2.39,2.33,2.56,7.54l6.32,96.77c5.06,4.82,8,7.12,8,7.12s2.94-2.3,8-7.12l6.32-96.77c.18-5.21,1-7.33,2.57-7.54,2-.29,3.24,2.38,4.08,7,3.67,19.84,8.59,45.05,13.24,68.42,4.07-5.07,8.36-10.7,12.82-17-6.68-36-14.6-83.94-18.17-125.9,3,.15,6,.34,9,.49a606.8,606.8,0,0,1,70.51,8.77c3.67.68,7.29,1.39,10.87,2.1C469.62,543,400.1,592.89,400.1,592.89S330.58,543,280.84,411.26c3.57-.71,7.2-1.42,10.87-2.1a607.07,607.07,0,0,1,70.51-8.77c3-.15,6-.34,9-.49-3.58,42-11.48,89.94-18.16,125.9C357.52,532.06,361.82,537.69,365.88,542.76ZM642.21,432.38s-103.37-49.6-242.11-49.6S158,432.38,158,432.38V301.73S261.36,252.1,400.1,252.1s242.11,49.63,242.11,49.63Z"/><polygon class="cls-4" points="335.02 294.06 318.55 296.11 318.55 292.47 331.64 290.85 333.81 285.87 318.55 287.73 318.55 284.09 334.66 282.13 334.66 276.84 312.27 279.59 312.27 302.34 335.02 299.56 335.02 294.06"/><path class="cls-4" d="M233.39,327.83c-15.36,4-25.63,19-25.63,35.29s9.8,26,25.16,22,25.62-19,25.62-35.2S248.67,323.85,233.39,327.83Zm-.28,45.84c-7.84,2-13.12-3.85-13.12-13.75s5.28-18.48,13.12-20.54,13.13,3.76,13.13,13.71S241,371.6,233.11,373.67Z"/><path class="cls-4" d="M292.4,346.6c0,7.85-2.82,13.11-9,14.21s-9-3-9-10.83V319l-10.9,2.27v31.68c0,15.18,7,21.8,19.67,19.6s20.13-11.57,20.13-27V318.22l4.22-5-15.12,2.32Z"/><path class="cls-4" d="M191.92,365.63c-6.66-.58-9.33-.81-9.33-4.53,0-2.33,1.81-5.23,6.3-6.91,3.75-1.39,8.68-.76,11.71.34l3.12-12.93c-3.12-1.1-9.06-1.05-14.83,1-12.37,4.58-18.67,14.94-18.67,23.24,0,6.81,3.25,11.44,12.59,12,8.09.49,9.47,2,9.47,4.94,0,2.78-1.66,5.58-6,7.18a21.23,21.23,0,0,1-14.83,0l-3.4,13.17c4.63,1.57,11.86,1.44,17.87-.79,12.72-4.66,18.88-15.55,18.88-24.6C204.8,370.5,201.83,366.47,191.92,365.63Z"/><polygon class="cls-4" points="490.84 297.7 476.74 295.74 476.74 278.86 470.46 277.94 470.46 300.71 490.84 303.57 490.84 297.7"/><polygon class="cls-4" points="527.75 304.93 511.27 301.73 511.27 298.07 523.91 300.48 526.52 296.32 511.27 293.38 511.27 289.72 527.37 292.83 527.37 287.6 505 283.23 505 305.95 527.75 310.37 527.75 304.93"/><path class="cls-4" d="M275.8,309.17l7.6-1.49c8.34-1.6,10.21-3,10.21-9.11,0-6.63-2.27-6.86-12-4.93-6.74,1.34-7.51,1.42-7.51-.54,0-1.23,1-1.94,2.38-2.23l6.95-1.36c2.9-.55,3.05.1,3.05,1.78l6.29-1.23v-.73c0-4-.68-6.6-7.92-5.19l-8.77,1.7c-7.91,1.55-8.24,4.79-8.24,8.93,0,5.58,1.07,6.62,10.51,4.79,8.08-1.57,8.82-1.6,8.82.39,0,1.73-1.35,2.18-2.69,2.44l-7.68,1.49c-1.82.34-2.7.32-2.72-2.07L267.8,303v1.57C267.8,309.51,270.08,310.27,275.8,309.17Z"/><polygon class="cls-4" points="342.22 334.85 313.15 310.71 313.15 364.56 325.99 363.04 325.99 342.1 320.83 334.53 354.92 361.44 354.92 307.83 342.22 308.85 342.22 334.85"/><path class="cls-4" d="M515.08,360.53c-4.81-1-10.22-4-14.38-7.94L497.64,363c4.49,3.93,11.51,7.67,17.28,8.79,12.28,2.41,18.06-4.42,17.9-12.85-.12-6.78-3.06-12.09-12.67-18.16-6.47-4.09-9.06-5.74-9.12-9.19,0-2.18,1.66-3.93,6-3.07,3.61.71,8.38,3.88,11.34,6.55l2.81-10.39a34.16,34.16,0,0,0-14.36-6.91c-11.91-2.33-17.83,3.95-17.71,11.67.13,6.36,3.36,12.38,12.4,17.91,7.88,4.76,9.22,6.91,9.28,9.65S519.25,361.34,515.08,360.53Z"/><polygon class="cls-4" points="438.92 297.91 445.19 298.36 445.19 281.26 454.01 281.89 454.01 276.24 430.08 274.56 430.08 280.24 438.92 280.82 438.92 297.91"/><polygon class="cls-4" points="411.79 327.05 405.76 326.44 411.79 332.02 411.79 358.85 444.52 360.76 444.52 350.13 423.92 348.48 423.88 337.41 435.39 338.43 441.23 329.59 423.92 328.04 423.95 317.91 444.52 319.12 444.52 308.25 411.79 306.55 411.79 327.05"/><polygon class="cls-4" points="393.94 279.33 402.75 279.46 402.75 296.55 409.03 296.68 409.03 279.56 417.85 279.75 417.85 274.09 393.94 273.65 393.94 279.33"/><path class="cls-4" d="M616,404c5.75,2.1,11.78,2.36,16.16.81l-3.49-12a20.39,20.39,0,0,1-12.53-.52A22.72,22.72,0,0,1,601,370.34c0-10.13,5.8-14.24,15.19-10.84a35.94,35.94,0,0,1,12,8l3.56-9.42A44,44,0,0,0,616,347.65c-16.35-6-27.45,2-27.45,18.19S599.65,398,616,404Z"/><path class="cls-4" d="M492.33,330.76c0-9-5.44-17.59-16-19.13l-27.12-3,5.66,6.18V361.6l11.48,1.28V343.07l5.49.83,9.26,20.81L494.55,367l-10.92-23.53C488.32,342,492.37,337.81,492.33,330.76Zm-16,3.51a7.25,7.25,0,0,1-1.52-.08l-8.47-1.25V321.18l8.12,1.21a7,7,0,0,1,6.35,7C480.79,332.41,479.24,334.09,476.37,334.27Z"/><path class="cls-4" d="M375.06,296.58l7-.47-11.27-22-8.15.58-11.09,23.53,7-.52,1.83-4.14,12.73-.91Zm-12.31-8,4-8.85,4,8.25Z"/><polygon class="cls-4" points="556.66 381.96 568.51 385.16 568.51 362.91 580.33 366.07 586.22 358.12 568.51 353.38 568.51 341.91 588.99 347.38 588.99 335.69 556.66 327.05 556.66 350.24 550.7 348.62 556.66 355.26 556.66 381.96"/><path class="cls-4" d="M386.33,306.39c-11.63.16-24.81,1-24.81,1l4.56,5.18V359.5s8.18-.07,18.69-.44c5.73.16,16.6-4.71,16.6-18.74V323.09C401.37,309.48,393.63,306.76,386.33,306.39Zm4.51,33.72c0,3.92-1.63,8.09-8.44,7.85l-5.06.24V317.07c6.53.45,13.5-2.06,13.5,8.69Z"/></g></svg>