<svg id="Layer_1" data-name="Layer 1" xmlns="http://www.w3.org/2000/svg" viewBox="0 0 800 800"><defs><style>.cls-1{fill:#003da6;}.cls-2{fill:#fff;}.cls-3{fill:#ce0e2d;}.cls-4{fill:#a6a8ab;}.cls-5{fill:#333;}.cls-6{fill:#c8c8c8;}.cls-7{fill:#98989a;}.cls-8{fill:#54565a;}.cls-9{fill:#76777a;}</style></defs><title>SJ-Logo</title><g id="SJ-Logo"><path d="M692.89,53.54C691.52,53.12,659,43,606.75,32.93,576.18,27,545,22.3,514.07,18.91a1044.89,1044.89,0,0,0-113.74-6.44h-.62A1045.49,1045.49,0,0,0,286,18.91c-30.91,3.39-62.09,8.11-92.68,14C141.05,43,108.5,53.12,107.16,53.53l-16,5c0,27.68,0,347.82,0,351.09a440.48,440.48,0,0,0,5.4,51.14,405.72,405.72,0,0,0,10.7,46.91A382.07,382.07,0,0,0,141.66,589c24.56,43.35,57.81,82.23,98.83,115.58a471.31,471.31,0,0,0,52.39,36.89,481.84,481.84,0,0,0,46.74,25c25.48,11.83,47.87,19.33,56.82,20.6l3.6.45,3.55-.45c8.94-1.27,31.36-8.77,56.83-20.6a478.75,478.75,0,0,0,46.72-25,469.41,469.41,0,0,0,52.41-36.89c41-33.35,74.25-72.23,98.82-115.58a383.54,383.54,0,0,0,34.34-81.33,407.4,407.4,0,0,0,10.68-46.91,439.5,439.5,0,0,0,5.4-51.19V58.5Z"/><path class="cls-1" d="M176.85,564.7c21.51,38.18,50.69,72.53,86.72,102.11,64.76,53.2,127.93,72.29,135.21,73.3l1.18.21,1.16-.21c7.3-1,70.47-20.08,135.24-73.3,36-29.58,65.21-63.93,86.72-102.11,26.57-47.14,41.41-100.17,44.15-157.62.17-3.82,0-315.35,0-315.35l-4.15-1.3c-1.18-.36-119.34-36.74-262.84-36.84h-.57C256.19,53.69,138,90.07,136.83,90.43l-4.14,1.3s-.17,311.53,0,315.36C135.42,464.53,150.27,517.56,176.85,564.7ZM138.6,96.06S255.44,59.58,399.67,59.49h.57c144.24.09,261.09,36.57,261.09,36.57,0,6.6.29,304.38,0,310.75C653.06,581.75,533.74,672,459,710.58L395.58,595.65c-2.36-.08-4.68-.21-7-.42l0,0A127.95,127.95,0,0,1,286,409.47c.46-.91.94-1.8,1.42-2.7.13-.23,1.4-2.53,2-3.45L207.87,255.68h-6.73l81.51,147.64a133.09,133.09,0,0,0-16.59,64.45c0,71.16,55.8,129.46,125.92,133.6l61.77,111.9c-28.09,14-48.93,20.38-53.45,21l-.34,0-.35,0c-16.47-2.35-249.34-80.58-261-327.47C138.28,400.44,138.6,102.66,138.6,96.06Z"/><polygon class="cls-1" points="582.35 255.68 519.48 255.68 549.69 315.21 582.35 255.68"/><path class="cls-1" d="M256.16,255.68l81.33,147.38a89.78,89.78,0,0,1,50.59-24.41l-66.4-123Z"/><polygon class="cls-1" points="483.76 434.98 483.87 435.16 516.78 375.18 454.6 255.68 388.56 255.68 474.19 416.96 483.76 434.98"/><path class="cls-1" d="M549.68,315.22l-32.9,60H630c0-13.67,0-33,0-60Z"/><path class="cls-1" d="M483.87,435.2a90.42,90.42,0,0,1,1.94,60H613.68a320.66,320.66,0,0,0,13.67-60Z"/><path class="cls-1" d="M454.05,615.14h84a317,317,0,0,0,47.37-60H421Z"/><path class="cls-2" d="M255.54,684.9c68,55.23,136.76,74.66,144.17,75.72H400l.25,0c7.71-1.16,76.4-20.61,144.17-75.7,60.34-49.07,133.7-137,140.35-277.37.14-2.79,0-331.93,0-331.93-10-3-134.43-39.64-284.47-39.74h-.61c-150,.1-274.44,36.71-284.46,39.74,0,0-.1,329.91,0,331.93C121.82,547.89,195.17,635.83,255.54,684.9ZM132.69,91.73l4.14-1.3c1.18-.36,119.36-36.74,262.84-36.84h.57c143.5.1,261.66,36.48,262.84,36.84l4.15,1.3s.17,311.53,0,315.35c-2.74,57.45-17.58,110.48-44.15,157.62-21.51,38.18-50.71,72.53-86.72,102.11a423.27,423.27,0,0,1-42.75,30.84L415.4,556.1c-1,.18-2,.31-3,.48a93.2,93.2,0,0,1-12.49.88,89.65,89.65,0,0,1-68.19-147.88v0c.54-.63,1.08-1.29,1.65-1.93L249.45,255.68H230.08l83,150.31A106.51,106.51,0,0,0,399.94,574.4q3.09,0,6.1-.17l73,132.19c-40.83,23.55-72.9,33-78,33.69l-1.16.21-1.18-.21c-7.28-1-70.45-20.1-135.21-73.3-36-29.58-65.21-63.93-86.72-102.11-26.58-47.14-41.43-100.17-44.16-157.61C132.52,403.26,132.69,91.73,132.69,91.73Z"/><path class="cls-2" d="M355.78,222h7v13.36a6,6,0,0,1-1.45,4.47c-1.51,1.52-3.56,1.61-5.53,1.65h-4v-4.59h1.57c1.49-.07,2.36-.12,2.43-2Z"/><path class="cls-2" d="M384.86,222.45a9.71,9.71,0,0,1,6.06,9.24,10.2,10.2,0,0,1-1.43,5.3,9,9,0,0,1-2.3,2.62c-2.65,2.11-5.79,2.59-9.32,2.59-6.8,0-9.58-2.39-11-4.36A9.23,9.23,0,0,1,365,232a10.52,10.52,0,0,1,1.82-6.1c2.73-3.87,7.35-4.5,10.81-4.56a19.28,19.28,0,0,1,7.25,1.14m-12.69,9.31c0,3,1.63,6.12,5.85,6.12a6,6,0,0,0,2.82-.56c2.15-1.07,2.9-3.61,2.9-5.56,0-2.14-.95-6.07-5.72-6.1-4.39-.07-5.85,3.41-5.85,6.1"/><path class="cls-2" d="M399.87,227.06a1.16,1.16,0,0,0,.22.69c.47.6,2.43,1,3.5,1.27,1.33.28,2.69.55,4,.86a12.31,12.31,0,0,1,2.52.7,4.75,4.75,0,0,1,3.42,4.64,6.12,6.12,0,0,1-1,3.34c-1.63,2.46-4.91,3.54-10.15,3.54-2,0-5.86-.17-8.15-2.2a6.33,6.33,0,0,1-2-4.18l6.88-.19c.23,1.27,1.54,2.24,4.31,2.24a5.13,5.13,0,0,0,2.41-.48,1.8,1.8,0,0,0,1-1.49,1.61,1.61,0,0,0-1.28-1.49c-.86-.27-5.24-1.06-6.21-1.27a21.94,21.94,0,0,1-2.25-.6,5.23,5.23,0,0,1-3.85-4.93,5.42,5.42,0,0,1,1.56-3.81c2.19-2.28,6.11-2.49,8.26-2.49a20.7,20.7,0,0,1,5.92.75,5.72,5.72,0,0,1,4.31,4.94l-6.83.38c-.17-.65-.5-1.79-3.42-1.79-.93,0-3.07.12-3.07,1.57"/><polygon class="cls-2" points="436.12 222.03 436.12 226.42 422.57 226.42 422.57 229.59 435.1 229.59 435.1 234.01 422.55 234.01 422.55 237.1 436.4 237.1 436.4 241.51 415.59 241.51 415.59 222.03 436.12 222.03"/><path class="cls-2" d="M278.75,227.06a1.1,1.1,0,0,0,.23.69c.46.6,2.43,1,3.5,1.27,1.33.28,2.67.55,4,.86a12,12,0,0,1,2.52.7,4.75,4.75,0,0,1,3.42,4.64,6,6,0,0,1-1,3.34c-1.62,2.46-4.92,3.54-10.17,3.54-1.94,0-5.84-.17-8.13-2.2a6.37,6.37,0,0,1-2-4.18l6.87-.19c.26,1.27,1.55,2.24,4.3,2.24a5.14,5.14,0,0,0,2.42-.48,1.77,1.77,0,0,0,1-1.49,1.63,1.63,0,0,0-1.3-1.49c-.86-.27-5.25-1.06-6.21-1.27a21.58,21.58,0,0,1-2.23-.6c-.73-.26-3.87-1.38-3.87-4.93a5.37,5.37,0,0,1,1.59-3.81c2.16-2.28,6.08-2.49,8.25-2.49a20.86,20.86,0,0,1,5.92.75,5.75,5.75,0,0,1,4.31,4.94l-6.84.38c-.17-.65-.51-1.79-3.43-1.79-.92,0-3.07.12-3.07,1.57"/><polygon class="cls-2" points="332.59 222.03 332.74 232.68 323.3 222.03 317.51 222.03 317.51 238.2 318.96 241.51 324.42 241.51 324.31 230.77 333.67 241.51 339.46 241.51 339.46 222.03 332.59 222.03"/><polygon class="cls-2" points="308.53 222.03 300.59 222.03 292.2 241.51 299.83 241.51 304.58 227.43 306.89 234.04 304.12 234.04 302.68 238.35 308.35 238.35 309.39 241.51 316.99 241.51 308.53 222.03"/><rect class="cls-2" x="169.9" y="228.79" width="87.51" height="5.87"/><path class="cls-2" d="M428.3,126.59h21v80.48H432.88l-4.58-14Zm69.22,0H473l-23.41,38.69,25.29,41.79H499.4l-25.3-41.79Z"/><polygon class="cls-2" points="405.27 207.06 401.9 196.79 378.37 196.79 383.89 180.01 396.38 180.01 387.09 151.46 368.9 207.06 347.56 207.06 374.03 126.64 400.27 126.64 426.74 207.06 405.27 207.06"/><path class="cls-2" d="M313.55,191.14c-4.38,0-8.14-1.39-10.55-3.91-3.93-3.83-3.93-8.74-3.93-12.34V126.63h-21.3v45.94c.24,9,.48,18.36,8.65,26.31,7.29,7,15.58,10.1,26.87,10.1,12.83,0,19.84-4,26.3-10.13,9.91-9.43,9.91-22.32,9.91-32.48V126.63H328.25v48.26c0,3.6,0,8.54-4.07,12.48a15.48,15.48,0,0,1-10.63,3.77"/><path class="cls-2" d="M259.57,189.91a52.31,52.31,0,0,0,8.61-16.3,55.56,55.56,0,0,0,2.62-16.82,50.84,50.84,0,0,0-4-20.23,52.32,52.32,0,0,0-11-16.58,54.17,54.17,0,0,0-16.53-11.19A49.82,49.82,0,0,0,219,104.62a50.78,50.78,0,0,0-20.32,4.1,53,53,0,0,0-16.58,11.2,52.41,52.41,0,0,0-11,16.64,53.63,53.63,0,0,0,0,40.5,51.53,51.53,0,0,0,11,16.49,53.53,53.53,0,0,0,16.58,11.13,50.44,50.44,0,0,0,20.32,4.1,53.25,53.25,0,0,0,11.65-1.27,56.33,56.33,0,0,0,11.65-4.08l.18-.14.12.21,2.21,3.5H270.4l-10.65-16.77Zm-71.2-33.21A30.63,30.63,0,0,1,219,125.84a30.2,30.2,0,0,1,17.16,5.28,4.51,4.51,0,0,1,.55.39l.64.46a31.21,31.21,0,0,1,8.53,39.49H222l8.59,13.3.21.34-.19.17-.86.34-.31.11-.92.32-.54.18c-.25.08-.52.14-.79.22l-.66.18-.77.18-.7.16c-.29.06-.58.12-.88.16s-.39.06-.6.09a9,9,0,0,1-1.16.15l-.33,0c-1,.1-2.09.16-3.13.16-.54,0-1.06,0-1.59,0A30.59,30.59,0,0,1,188.37,156.7Z"/><path class="cls-2" d="M599.48,156.19c-6.49-1.26-10.75-2.57-10.75-7,0-3.72,3.3-5.87,9.08-5.87,2,0,8.81.22,14.1,3a16,16,0,0,1,5.49,5l13.67-12.49a34,34,0,0,0-10.28-8.42,47.14,47.14,0,0,0-22.13-5c-15,0-25.94,5.86-30.16,16.05a26.15,26.15,0,0,0-2,10c0,15.42,11.24,20.51,19.71,22.88,1.06.26,3.45.77,6.21,1.35,5.1,1.07,11.45,2.4,13.2,3.08,4,1.4,4.55,4.13,4.55,5.64,0,6.18-9,6.67-11.83,6.67a31.94,31.94,0,0,1-10.65-1.85,18.75,18.75,0,0,1-7.17-4.24,29.23,29.23,0,0,1-2.65-3.06c-.07-.09-.22-.33-.46-.68s-.54-.91-.54-.91l-15,9.91H524.94v-16.6h28.68V156.9H524.94V143.44h34.41V126.63H504v80.44h58.67V195.13a36.59,36.59,0,0,0,17.77,11.79,56.46,56.46,0,0,0,17.08,2.36c12.46,0,21.87-3.41,27.95-10.12a25.46,25.46,0,0,0,6.45-17.56C631.88,162.17,615.41,159.13,599.48,156.19Z"/><rect class="cls-3" x="541.06" y="228.79" width="89" height="5.87"/><path class="cls-3" d="M449.54,224.89a10.72,10.72,0,0,0,6.15-2.54h4.87v18.81h-6.48V228.87h-4.54Z"/><path class="cls-3" d="M473.37,234.82c-4.59,0-8.42-1.82-8.42-6.06a6,6,0,0,1,3.78-5.52,20.44,20.44,0,0,1,7.14-1.21c6.52,0,10.74,2.69,10.74,9.25,0,2.09-.38,5.77-3.61,8.22-2.44,1.82-5.45,2.08-8.2,2.08a17.19,17.19,0,0,1-5.37-.74c-3-.93-4-2.57-4.49-4.42l7.25-.17a3.11,3.11,0,0,0,2.8,1.22,4.89,4.89,0,0,0,3.18-1,5,5,0,0,0,1.67-3.86c-1,.83-2.47,2.18-6.47,2.18m-1.76-6.37c0,2.28,3.05,2.31,3.84,2.31,2.75,0,4.17-.75,4.17-2.27,0-1.83-1.55-2.44-4.35-2.35-1.47.05-3.66.32-3.66,2.31"/><path class="cls-3" d="M518.61,222.84h7.47v10.9h3.26v4.38H526v3.39h-6.21v-3.39H507.56V234Zm1.23,4.94-5.9,6h5.9Z"/><path class="cls-3" d="M509.36,226.42c-11.84,7.86-11.45,15.09-11.45,15.09h-7.4s.49-9.8,12.43-15.09H488.73V222h20.63Z"/><path class="cls-4" d="M331.75,481.77c-6.65-12.82-8.93-26.67-9.51-30.95a30,30,0,0,1-5.48.61,86.68,86.68,0,0,0-1.57,16.49,84.36,84.36,0,0,0,14,46.65l3.11-1.4C328.22,497.62,330.3,486.61,331.75,481.77Z"/><path class="cls-5" d="M333.5,515.93l-2.93.65a84.62,84.62,0,0,0,34.29,28.5c-.6-1-2.08-3.89-4.19-10.3C355.87,532.67,340.68,525.46,333.5,515.93Z"/><path class="cls-2" d="M398.9,383.14l-3.08,14.23a86.61,86.61,0,0,0-22.55,15.79,262.45,262.45,0,0,0-30.64,2.77,35.33,35.33,0,0,1-1.52-9A84.28,84.28,0,0,1,398.9,383.14Zm2.08,0,3.09,14.23a86.23,86.23,0,0,1,22.54,15.79,262.93,262.93,0,0,1,30.66,2.77,35.8,35.8,0,0,0,1.52-9A84.29,84.29,0,0,0,401,383.14Z"/><path class="cls-6" d="M436.76,479.82c-4,11.68-14.28,29.54-16.68,33.65a108.43,108.43,0,0,1-21,2,87.56,87.56,0,0,1-19.29-2c-2.38-4.1-12.71-22-16.67-33.65,3.79-5.7,13.34-19.33,23.78-29.28H413C423.42,460.49,433,474.12,436.76,479.82Zm-66.95-59.19A166.69,166.69,0,0,0,342.37,418c-9.92,12.39-16.75,27.49-18.41,31.35,2.25,14.25,9,27.05,10.3,29.39,4.62.42,9.41.62,14.26.62,6.58,0,11.37-.37,13.14-.53a275.14,275.14,0,0,1,16.62-35ZM457.6,418a167.62,167.62,0,0,0-27.53,2.61l-8.46,23.17a274.08,274.08,0,0,1,16.62,35.05c1.77.16,6.56.53,13.14.53h0c4.87,0,9.66-.2,14.28-.62,1.35-2.36,8.09-15.17,10.32-29.46C474.29,445.36,467.57,430.39,457.6,418Z"/><path class="cls-7" d="M332.28,513.17l-3.11,1.4a84.36,84.36,0,0,1-14-46.65,86.68,86.68,0,0,1,1.57-16.49,30,30,0,0,0,5.48-.61c.58,4.28,2.86,18.13,9.51,30.95C330.3,486.61,328.22,497.62,332.28,513.17Zm135.36,0,3.1,1.4a85.06,85.06,0,0,0,12.38-63.14,30.15,30.15,0,0,1-5.47-.61c-.57,4.28-2.86,18.13-9.48,30.95C469.61,486.61,471.68,497.62,467.64,513.17Z"/><path class="cls-8" d="M360.67,534.78c2.11,6.41,3.59,9.29,4.19,10.3a84.62,84.62,0,0,1-34.29-28.5l2.93-.65C340.68,525.46,355.87,532.67,360.67,534.78Zm78.59,0c-2.11,6.41-3.59,9.29-4.2,10.3a84.68,84.68,0,0,0,34.31-28.5l-2.94-.65C459.26,525.46,444.06,532.67,439.26,534.78Z"/><path class="cls-9" d="M435,533.19c-1.21-1.19-3.07-3.07-5.06-5.19a87.48,87.48,0,0,1-9.22-11.53,87.6,87.6,0,0,1-41.45-.07c-4,6.14-12,14.55-15.13,17.64a53.37,53.37,0,0,0,2.77,11.56c.07.18.15.33.23.49a85.14,85.14,0,0,0,65.23.19c1.95-4.31,2.9-11,3.1-12.62Z"/></g></svg>