<svg id="Layer_1" data-name="Layer 1" xmlns="http://www.w3.org/2000/svg" viewBox="0 0 800 800"><defs><style>.cls-1{fill:#888b8d;}.cls-2{fill:#fff;}.cls-3{fill:#0a2240;}.cls-4{fill:none;}.cls-5{fill:#a6bbd6;}</style></defs><title>SKC-Logo</title><g id="SKC-Logo"><path class="cls-1" d="M687.47,107.62a.6.6,0,0,0-.24-.24A573.6,573.6,0,0,0,400,30.87h-.2c-104.21,0-202.37,27-286.7,75.7a2.15,2.15,0,0,0-.43.51c-34.62,85.05-63.3,225-19.27,348.49,38.65,108.52,103.49,180.24,176.44,233.71s127.22,78.75,127.8,79a12,12,0,0,0,2.27.82,12.36,12.36,0,0,0,2.24-.82c.6-.29,54.85-25.57,127.79-79S667.79,564.09,706.44,455.57C750.52,331.94,722.13,192.65,687.47,107.62Z"/><path class="cls-2" d="M393.59,750.45c-4.36-1.91-107.6-48-193.6-142.31C119.65,520,40.82,372.25,121.42,168.72l1.75-4.39,4-2.62c4.57-3.06,114.63-74.88,272.53-74.88s267.92,71.82,272.54,74.88l3.92,2.62,1.75,4.39c80.59,203.53,1.79,351.3-78.54,439.42-86,94.35-189.24,140.4-193.59,142.31l-6.08,2.68Z"/><path class="cls-3" d="M664,174.81a2.14,2.14,0,0,0-.67-.82c-7.9-5.1-114.45-72-263.7-72-149.74,0-256.5,67.38-263.79,72.09a1.81,1.81,0,0,0-.56.72c-150,379.65,264.35,561.87,264.35,561.87S813.93,554.44,664,174.81Z"/><path class="cls-4" d="M494.87,401.09l-.2.83c-.11.38-.15.76-.25,1.13a2.35,2.35,0,0,1,.12-.33A4,4,0,0,0,494.87,401.09Z"/><path class="cls-2" d="M524.23,344.12c-1.27.41-.4,1.73.26,2.52,1.15,1.34,8,9.84,9.17,10.94,1,1,1.12,1.75,3,1.53a58.07,58.07,0,0,1,5.64-1.41,71.19,71.19,0,0,1,8.92-1l1.63-.05a76.17,76.17,0,0,1,16.73,1.25c20.18,3.37,22,20.14,22.09,20.79l0,.52c.16,3.83.43,11.81-8,18.32a1.06,1.06,0,0,0-.37,1.15,1,1,0,0,0,.91.77,96,96,0,0,0,10,.5l2.79,0c7.95-.2,14-2,18-5.52s6.09-8.72,5.93-15.37c0-.25-.07-24.25-34.69-35.28-10.55-3.37-21.74-4.08-29.29-4.08a93.86,93.86,0,0,0-9.9.45,98,98,0,0,0-12.87,1.74C530.49,342.55,527.73,343.2,524.23,344.12Z"/><path class="cls-2" d="M623.45,502.59a1.05,1.05,0,0,0-1.27-.06c-10.91,7.39-23.9,11.13-38.64,11.13a95,95,0,0,1-26.64-3.94,55.31,55.31,0,0,1-5.42-1.81,73,73,0,0,1-7.66-3.36,86.17,86.17,0,0,1-13.55-8.5c-1.66-1.28-3.25-2.59-4.74-3.9a98,98,0,0,1-25.37-35.44c-4.93-12.33-8-22.83-7.81-37.29a76,76,0,0,1,2-16.32s0,0,0-.05c.1-.37.29-1.77.29-1.77a1.85,1.85,0,0,0-.6-1.79C493,398.26,477,378.8,476,377.79c-.86-.83-1.44-2.36-2.62-2.06a80.23,80.23,0,0,0-8.3,14.09c-.32.73-.68,1.49-1,2.23-.19.41-.36.77-.51,1.15a.46.46,0,0,0,0,.19c-4.63,11.29-6.82,24.18-6.44,38.33,0,.39,1.6,40,30.63,67.08A117.18,117.18,0,0,0,513.39,517c1.79.92,3.5,1.74,5.26,2.55A109.74,109.74,0,0,0,541.14,527c2.31.49,4.42.88,6.3,1.15a96.33,96.33,0,0,0,14.49,1.14,57.49,57.49,0,0,0,6.4-.29c35.81-1.3,51.66-16.43,55.43-25.16A1.11,1.11,0,0,0,623.45,502.59Z"/><path class="cls-2" d="M484.35,362.34l23.08,28.59a.68.68,0,0,0,.18.23l.27.34c1.06,1.32,2.14,2.62,3.18,3.93l.49.76c17.6,25.33,26.49,49.21,26.49,71,0,1.83-.07,3.67-.16,5.48l-.13,1.43c-.1,1.32-.25,2.61-.41,3.92l0,.29c-.08.58-.15,1.14-.25,1.74-.12.85-.26,1.69-.4,2.52a94.41,94.41,0,0,1-2.55,9.84c-.28.85.76,1.36,1.57,1.88a112.63,112.63,0,0,0,21.76,10.29c.86.29,1.16.29,1.44-.28A109.83,109.83,0,0,0,564,489.35c0-.14.06-.27.09-.43A124.69,124.69,0,0,0,568.54,456a127.07,127.07,0,0,0-12.11-54.29A179.9,179.9,0,0,0,539.13,373c-1.1-1.57-2.25-3.11-3.4-4.68-.31-.41-.63-.81-1-1.24l-.88-1.16c-1.19-1.54-2.41-3.11-3.67-4.65-.63-.84-1.28-1.66-2-2.51-.92-1.06-1.81-2.14-2.71-3.23l-1.94-2.28c-1.13-1.35-2.27-2.69-3.4-4.07l-4.87-5.77c-6.91-8.24-13.83-16.51-20.62-24.76-19.3-24.5-29.41-42.86-30-54.56-.39-6.76,1.91-12,7-16,5.48-4.32,11-6.08,19-6.08,5,0,10.56,2.76,14.3,7,3.56,4.44,5.28,8.47,5.28,12.3v.55c0,3.83.08,11.84-8.5,18.13a1,1,0,0,0-.4,1.11,1.09,1.09,0,0,0,.91.8,100.31,100.31,0,0,0,12.77.79c16,0,24.29-6.84,24.49-20.33.15-6.58-2.11-16.24-13.79-24.86-8.94-6.6-20.47-10.84-30.85-11.36a71,71,0,0,0-43.16,11.76c-12.32,8-18.83,20.16-18.83,35,0,16.19,9.25,36.31,27.44,59.83Q472.44,347.48,484.35,362.34ZM563,488.79Z"/><path class="cls-2" d="M514.79,534.48c-1.72-.79-2.17-.75-3.21.7-1.74,2.3-3.59,4.66-5.5,7-18.43,21.7-42.1,40.21-70.4,55a1.07,1.07,0,0,0,.5,2h.17c31.81-5.09,59.55-18.33,82.64-39.43a4.3,4.3,0,0,0,.36-.34l.32-.31c3.15-2.93,6-5.71,8.56-8.5a92.21,92.21,0,0,0,7.28-8.54c.36-.43,0-.89-.43-1A83,83,0,0,1,514.79,534.48Z"/><path class="cls-3" d="M494.4,403.1s0,0,0-.05S494.41,403.09,494.4,403.1Z"/><path class="cls-2" d="M200.23,165.18c-13.92,6.16-27.37,12.61-40.77,20.17A12.13,12.13,0,0,0,154,192c-1.11,3.82-2.5,8.35-3.61,12.17-.58,2-.28,2.8,1.85,2.13q16.16-4.74,33.46-8.15c-.51,2.06-1.27,5.35-1.76,7.4-9.42,4.36-18.95,9.52-28.12,14.47.65-2.42,1.3-4.54,2-7-4,2.13-8,4.61-11.92,6.85-1.07,3.69-2,7.09-3,10.77-.75,2.54.55,3.13,3.34,1.56,14.15-8,28.91-15.86,43.63-22.36,2.91-1.27,5.15-3.67,5.71-6.12.9-4,1.86-8.51,2.76-12.51.45-1.89-.11-2.76-2.23-2.39-11.57,2-22.81,4.48-33.62,7.39.45-1.8,1.49-5,2-6.81,8.54-4.7,17.3-9,26.66-13.28-.51,2.05-1,4.08-1.48,6.15,4-1.85,8-3.63,12-5.36.77-3.24,1.49-6.48,2.22-9.73C204.28,164.78,202.94,164,200.23,165.18Z"/><path class="cls-2" d="M267.28,141.46a452.07,452.07,0,0,0-46.79,15.77c-3.07,14.33-6.31,29.51-9.35,43.84,4.16-1.68,8.35-3.32,12.55-4.88,2.3-11.58,4.8-24.16,7.08-35.72,9.17-3.43,18.38-6.42,27.72-9.24-.72,4.4-1.57,9.66-2.29,14.08Q243,169.29,230,174c2.84,1.37,5.71,2.77,8.66,4.18q12-4.11,24.15-7.54c2.93-.85,5-2.87,5.32-5.3,1-6.9,2.12-14.32,3.11-21.24C271.6,141.74,270.12,140.66,267.28,141.46Z"/><path class="cls-2" d="M339.44,127.62a481.46,481.46,0,0,0-49.06,8.4c-2.9.66-4.86,2.65-5.17,5.07-1.56,11.35-3.16,23.14-4.68,34.28-.35,2.34,1.27,3.42,4.31,2.72A508.1,508.1,0,0,1,336,169.17c3-.37,5-2.07,5.27-4.4.85-11.05,1.72-22.49,2.61-33.75C344.05,128.6,342.33,127.26,339.44,127.62ZM328.21,163c-11.47,1.61-22.82,3.54-34.15,5.94,1.07-8.59,2.27-18.44,3.34-27.14,10.53-2.21,22.11-4.17,33.31-5.73C329.9,144.78,329,154.48,328.21,163Z"/><path class="cls-2" d="M411.05,151.17c3,.08,4.91-1.3,4.84-3.59-.13-6.29-.25-12.92-.39-19.28,0-2.39-2-4-4.85-4.05a459.79,459.79,0,0,0-49.88,1.49c-.53,13.76-1,27.62-1.59,41.09,4.35-.34,8.73-.62,13.09-.85.28-10.94.57-22.61.86-33.74,9.85-.56,19.75-.73,29.69-.67,0,4,.06,8.22.09,12.19-9.48-.07-19,.06-28.43.53,2.23,1.52,23.68,15.66,32.24,21.25,5.38.1,10.77.27,16.16.55v-.38c-7.8-5.05-14.38-10-21.88-14.68C404.81,151,407.23,151.08,411.05,151.17Z"/><path class="cls-2" d="M426.42,132.31c7.55.39,15.13,1,22.69,1.79.81,11.23,1.63,23.23,2.43,34.17,4.3.45,8.63,1,12.94,1.54-.91-11-1.84-23-2.78-34.23,7.55,1,15.13,2.19,22.63,3.56-.26-2.71-.42-4.83-.72-7.57A460.91,460.91,0,0,0,426,124.85C426.16,127.55,426.27,129.63,426.42,132.31Z"/><path class="cls-2" d="M499.46,175.09c4.38.89,8.76,1.8,13.13,2.78-1.75-13.83-3.55-28.2-5.35-42q-6.18-1.38-12.43-2.6C496.36,147,497.92,161.33,499.46,175.09Z"/><path class="cls-2" d="M572.29,182.28c-12.31-13-24.68-26.85-36.81-39.29-4.12-1.14-8.41-2.3-12.56-3.37,2.21,14.16,4.41,28.73,6.52,42.42,4.37,1.05,8.68,2.27,13,3.44-1.54-9.37-3.19-19.77-4.79-29.37,12.26,12.54,25,26.74,37.45,39.83,4.08,1.43,7.84,2.91,12.19,4.6-2.73-13.64-5.79-28.89-8.58-43-4-1.55-8-3.05-12-4.51C568.47,162.48,570.54,173,572.29,182.28Z"/><path class="cls-2" d="M656.13,229.59c-1.89-7-4.3-16.08-5.39-20.13-10.8-6.06-14.78-8.26-27.41-14.6l6.62,9.32c5.69,2.95,6.73,3.49,11.32,6,1.05,3.44,2.21,7.81,3,10.5-10.47-5.91-17.88-9.46-28.44-14.53-2.78-10.82-5.05-20.35-7.26-29.44,10.8,5,17.82,8.51,27.51,13.66.51,2.17,1.23,4.84,1.23,4.84l11.27,6.36s-1.6-5.73-2.54-9a10.12,10.12,0,0,0-5.13-6.46c-14.17-7.66-24.11-12.75-41.63-20.58-2.71-1.22-4.23-.19-3.63,2.31,2.73,11.75,5.59,24.91,8.33,36.61.57,2.48,2.74,4.44,5.62,5.7,15.09,6.69,27.48,12.91,42.35,21.21C655.46,233.28,657.16,233.29,656.13,229.59Z"/><path class="cls-2" d="M154.34,126.54c-3.23-1.64-6.38-3.21-9.47-4.74-1.11,3.69-2.24,7.47-3.39,11.37-2.23,1.2-4.47,2.4-6.71,3.64,3.1-9.59,6-18.58,8.7-27,2-1,3.9-1.94,5.83-2.86-.92,3.12-2.86,9.56-2.86,9.56l14-15s5.28-2.22,7.57-3.22c0,0,1-.41,1-.35-4.9,5.33-12.75,13.7-18.15,19.73,3.83,1.88,6.48,3.25,10.54,5.31a1,1,0,0,1,0,.2C158.68,124.48,157.1,125.18,154.34,126.54Z"/><path class="cls-2" d="M205.81,104.64c-.36-1.16-.72-2.32-1.07-3.47-4.7,1.74-9.47,3.58-14.21,5.52-1.07,1.72-2.12,3.45-3.2,5.18L181,114.54a.35.35,0,0,0,0-.07q9.38-14.81,18.15-28.78c2-.78,4.07-1.56,6.09-2.3q2.82,9.49,6,19.22a.11.11,0,0,1,0,.06Zm-4.72-15.29c-2.45,4-4.93,8.13-7.46,12.25,3.36-1.32,6.69-2.62,10-3.87C202.78,94.93,201.91,92.13,201.09,89.35Z"/><path class="cls-2" d="M259.36,88.12,246.67,76.87c-1,5.15-1.95,10.31-2.93,15.53l-6.18,1.86q2.28-11.49,4.51-22.65c2-.57,3.88-1.13,5.82-1.65l12.58,10.76q1.2-7.39,2.38-14.63c1.95-.5,3.87-.94,5.82-1.39Q267,75.53,265.32,86.62C263.33,87.11,261.37,87.61,259.36,88.12Z"/><path class="cls-2" d="M320.18,76.19q-10.71,1.49-21.5,3.42c-1.42.27-2.23-.33-2.09-1.58.22-1.75.42-3.53.63-5.29,2-.38,4-.74,6-1.07-.13,1.17-.25,2.35-.39,3.52,4.66-.78,9.29-1.54,13.92-2.2.08-1,.21-2,.28-3q-8.9-1.23-17.77-2.15c-1.17-.08-1.43-.58-1.32-1.56.22-1.83.42-3.66.65-5.49a2.83,2.83,0,0,1,2.5-2.41q10.55-1.83,21-3.22c1.36-.16,2.12.46,2,1.66-.13,1.58-.26,3.17-.4,4.76-2,.27-4,.52-6,.81.09-1,.18-2,.3-3-4.56.63-9.14,1.33-13.7,2.09-.1.87-.18,1.74-.28,2.6,5.88.66,11.78,1.41,17.71,2.3,1.1.14,1.44.69,1.34,1.61-.15,2-.33,3.93-.49,5.9A2.63,2.63,0,0,1,320.18,76.19Z"/><path class="cls-2" d="M377.87,71c-.64-1.2-1.29-2.39-1.95-3.59-4.84.22-9.65.5-14.47.87-.78,1.28-1.54,2.56-2.33,3.85l-6.3.53v0q6.8-10.92,13.31-21.63c2.1-.15,4.2-.28,6.33-.39q5.78,10,11.84,20.12v.06C382.17,70.77,380,70.87,377.87,71ZM369.12,55q-2.7,4.69-5.44,9.39c3.42-.23,6.85-.44,10.26-.6C372.32,60.87,370.69,57.94,369.12,55Z"/><path class="cls-2" d="M440.8,72.07c-7.26-.53-14.56-.92-21.87-1.13-1.44,0-2.41-.84-2.44-2,0-1.73-.08-3.45-.13-5.18,2.07,0,4.14.14,6.18.21,0,1.15.08,2.3.11,3.45q7.1.3,14.14.74c-.06-1-.1-2-.15-3-6.31-2.08-12.57-4.05-18.83-5.91-1.22-.34-1.58-.89-1.62-1.82,0-1.82-.08-3.58-.11-5.38-.06-1.19.84-1.91,2.23-1.87q10.71.4,21.33,1.22A2.23,2.23,0,0,1,442,53.45c.12,1.56.22,3.13.31,4.67l-6-.44c-.05-1-.08-2-.15-2.93-4.62-.33-9.23-.58-13.86-.78,0,.85,0,1.69.05,2.54q9.38,2.84,18.75,6a2,2,0,0,1,1.64,1.93c.13,1.94.24,3.88.38,5.82C443.09,71.48,442.24,72.17,440.8,72.07Z"/><path class="cls-2" d="M524.27,84.59c-7.63-1.77-15.23-3.33-22.85-4.72A2.8,2.8,0,0,1,499,77.49c-.65-5.76-1.33-11.51-2-17.32-.13-1.24.59-1.88,1.93-1.64q11.2,1.9,22.54,4.39A3.15,3.15,0,0,1,524,65.49c.23,2,.51,4,.77,6q-3-.69-6-1.34c-.18-1.3-.35-2.62-.51-3.92q-7.62-1.62-15.17-3c.53,4.49,1.05,9,1.59,13.39Q512.35,78,520,79.72c-.15-1.36-.34-2.75-.52-4.12l6,1.36q.39,3.09.83,6.15C526.51,84.36,525.68,84.92,524.27,84.59Z"/><path class="cls-2" d="M556,92.6c-1.45-7.5-2.87-14.94-4.32-22.28,2,.56,3.9,1.14,5.86,1.72,1.51,7.4,3,14.87,4.56,22.42C560.08,93.83,558,93.19,556,92.6Z"/><path class="cls-2" d="M599.62,89.6q2.32,9.51,4.74,19.44c-2.06-.89-4.09-1.78-6.11-2.62-1.49-6.44-3-12.77-4.37-19-3.33-1.21-6.59-2.35-9.81-3.43-.31-1.39-.6-2.79-.88-4.17q12.3,4,26.08,9.29c.41,1.56.85,3.12,1.27,4.67C606.81,92.35,603.18,90.94,599.62,89.6Z"/><path class="cls-2" d="M652,121.79c.86,2.84,2,7.27,2.88,10.12-2.09-1.14-4.12-2.26-6.17-3.34-.81-2.78-1.56-6-2.36-8.82-5.46-7.12-11.13-15.11-16.2-21.72,0-.06,0-.13,0-.19,1.95.85,6.42,2.84,8.41,3.74,3.79,5.06,7.51,10.52,10,13.6,2.35-2.54,5.25-6.33,5.25-6.33s3.5,1.84,5.76,3a1.42,1.42,0,0,1,.07.22C657.06,115.35,654.53,118.59,652,121.79Z"/><path class="cls-5" d="M399.66,433.65V381.54c-96.36,4.5-184.2,35.84-253.21,85.34a354.4,354.4,0,0,0,21.28,42.22C231.56,466.22,311.72,438.71,399.66,433.65Z"/><path class="cls-5" d="M119.59,335.55c53.29-35.83,115.25-61.9,182.63-75.25-14.5-17.2-28.22-33-41.34-47.7a512.75,512.75,0,0,0-132,56.14C123,293.16,119.88,314.28,119.59,335.55Z"/><path class="cls-5" d="M330.19,294c-77.68,12.26-148.63,41.72-207.67,83.82,1.72,12.1,4.21,24.83,7.48,38.77,1,4.36,2.15,8.7,3.38,13,65.53-46.86,147.13-77.88,236.87-86Q349.27,317.28,330.19,294Z"/><path class="cls-5" d="M399.66,664.42a456.1,456.1,0,0,0-65.35,12.84A599.7,599.7,0,0,0,399.66,715Z"/><path class="cls-5" d="M399.66,525.7V475.51c-79.07,5.7-151.39,29.84-210,67Q203.1,561,219,578.79C270.74,550.15,332.51,531.26,399.66,525.7Z"/><path class="cls-5" d="M399.66,618.06v-48.3c-54.76,5.38-105.64,19.73-149.74,41,12.84,12.18,25.87,23.33,38.65,33.45A449.45,449.45,0,0,1,399.66,618.06Z"/></g></svg>