<svg id="Layer_1" data-name="Layer 1" xmlns="http://www.w3.org/2000/svg" viewBox="0 0 800 800"><defs><style>.cls-1{fill:#fff;}.cls-2{fill:#a2a9ad;}.cls-3{fill:#aa182c;}.cls-4{fill:#323e48;}</style></defs><title>TOR-Logo</title><g id="TOR-Logo"><path class="cls-1" d="M742.36,453.85V429.1s-15.18-3.37-40.37-8l10.25-37.55s-25.4-8.29-73.33-17V182.11s-47.21-8.38-115.33-14.19L536,128.35,492.45,96.68l-9.32-28.42L467.92,79.21l5.8-17.84H443.63L400,29.66,356.35,61.37H326.27L332,79.21,316.86,68.26,307.6,96.68,264,128.35l12.45,39.57c-68.18,5.81-115.3,14.19-115.3,14.19v184.4c-47.9,8.71-73.41,17-73.41,17l10.37,37.55c-25.29,4.67-40.45,8-40.45,8v24.75l-54,57.56,54,38.24v30.68s42.62-8.16,103.83-16.54C171.88,707.5,400,770.34,400,770.34s228.12-62.84,238.5-206.55c61.23,8.38,103.87,16.54,103.87,16.54V549.65l54-38.24Zm-469-102.05c-19.26,1.61-37.12,3.47-53.62,5.7L246,323.44c9.18-.83,18.23-1.66,27.34-2.56Zm-39.85-38.22-22.08,31.29V258.68C252.79,253.29,323.1,246,400,246s147.25,7.31,188.55,12.7v86.19l-22-31.29c-33.7-3.91-78.88-8-128.68-9.49v42.84c-12.26-.26-24.91-.44-37.88-.44s-25.67.18-37.91.44V304.09c-49.84,1.49-95,5.58-128.56,9.49m293.09,7.3c9.06.9,18.19,1.73,27.33,2.56l26.24,34.06c-16.46-2.23-34.32-4.09-53.57-5.7Zm-111-87.9,32.84-24c99.64,3.74,178.6,16.94,178.6,16.94V364.38c-7.67-1.32-15.94-2.75-24.6-3.93V247.31c-34-4.66-106.17-13.4-186.84-14.33m-242.7-41s49.18-8.34,119.06-13.64L277.84,133l39.68-28.84,5.58-16.79L354.46,110l-12-36.86h17.65L400,44.27l39.86,28.9h17.64L445.58,110l31.33-22.64,5.51,16.79L522.19,133,508,178.31C577.88,183.61,627.07,192,627.07,192V214.8S545.93,201,444.28,197.45L400,229.71l-44.34-32.26C254.08,201,172.93,214.8,172.93,214.8Zm0,34S251.8,212.71,351.52,209l32.79,24c-80.66.93-152.91,9.67-186.69,14.33V360.45c-8.75,1.18-17,2.61-24.69,3.93ZM400,358.25c183.49,0,297.92,33.36,297.92,33.36l-14.61,53,14.61,65S583.48,476.27,400,476.27s-297.84,33.35-297.84,33.35l14.56-65-14.56-53S216.49,358.25,400,358.25M638.91,508.82c24.66,4.73,43.56,9,56.15,12.41l-56.15,22.3ZM473.16,547H504.7v7.87H473.1c-7.34,0-13.4-4.75-13.4-10.66V531.62c0-6,6.06-10.72,13.4-10.72h31.6V531l-3.43-2.2H473.16c-2.09,0-3.75,1.15-3.75,2.83v12.63c0,1.47,1.66,2.79,3.75,2.79m42.74,84v31a357.93,357.93,0,0,1-41.7,25.38l-25-20.71A395.64,395.64,0,0,0,515.9,631m-52.63,62A569.78,569.78,0,0,1,400,719.55a536.73,536.73,0,0,1-63.21-26.5l25.3-21V488.51c12.34-.27,24.91-.37,37.91-.37s25.62.1,37.88.37V672ZM211.44,524V500.74c18.84-2.73,39.39-5.14,61.93-7.1V603.78s-56.5-39.69-61.93-79.8m61.93,99.68v30.52c-32.23-24.7-58.38-55.81-61.53-92.9,9,14.14,27.48,37.68,61.53,62.38M333,534.09v7.66h-26v10.36l3.2,2.8H294.41l3.1-2.8V523.62l-3.1-2.72h46.67V531l-3.36-2.2H307.09v5.3ZM284.1,631a396.68,396.68,0,0,0,66.74,35.65l-25,20.71A353.53,353.53,0,0,1,284.1,662Zm242.51-7.35c34.06-24.7,52.53-48.24,61.59-62.38-3.24,37.09-29.29,68.2-61.59,92.9Zm0-19.88V493.64c22.6,2,43.15,4.37,61.93,7.1V524c-5.39,40.11-61.93,79.8-61.93,79.8M161.1,543.53l-56.21-22.3c12.66-3.37,31.54-7.68,56.21-12.41ZM69.43,566.14V543.7L21.38,509.62l48.05-51v-19.9s11.76-2.61,31.68-6.27l3.44,12.49L86.27,526.5,152.87,553c-50,7-83.44,13.15-83.44,13.15m557.64-12.55C627.07,693,400,758.12,400,758.12S172.93,693,172.93,553.59V506.8c7.72-1.45,15.94-2.9,24.69-4.11v50.9c0,106.84,166.51,167,202.37,178.62,35.78-11.59,202.48-71.78,202.48-178.62v-50.9c8.66,1.21,16.93,2.66,24.6,4.11Zm103.54-9.89v22.44S697.14,560,647.22,553l66.55-26.49-18.31-81.57,3.43-12.49c19.87,3.66,31.72,6.27,31.72,6.27v19.9l47.95,51Z"/><polygon class="cls-1" points="331.96 121.48 304.11 141.51 315.44 176.56 348.89 174.84 359.72 141.51 331.96 121.48"/><polygon class="cls-1" points="417.17 124.73 427.8 92.08 400.01 72.03 372.14 92.08 382.72 124.73 417.17 124.73"/><polygon class="cls-1" points="484.51 176.55 495.91 141.52 468.06 121.47 440.2 141.52 451.05 174.84 484.51 176.55"/><polygon class="cls-1" points="427.8 181.74 417.17 149.1 382.72 149.1 372.13 181.74 400.01 201.9 427.8 181.74"/><path class="cls-1" d="M380,444.27h33a15.07,15.07,0,0,0,14.88-15V399.19a15.06,15.06,0,0,0-14.88-15H380a15.11,15.11,0,0,0-15.06,15V429.3a15.12,15.12,0,0,0,15.06,15m-2.63-45.19a3,3,0,0,1,3.11-3h31.92a3.14,3.14,0,0,1,3.26,3v30.27a3.23,3.23,0,0,1-3.26,3.13H380.45a3.12,3.12,0,0,1-3.11-3.13Z"/><path class="cls-1" d="M609.86,459.68l33,5.61c8.3,1.41,15-4.28,15-12.5V423c0-8.24-6.74-16.09-15-17.44l-33-5.54c-8.22-1.48-15,4-15,12.35V442a18.55,18.55,0,0,0,15,17.65m-2.57-45.43a2.43,2.43,0,0,1,3-2.49l32,5.42a3.88,3.88,0,0,1,3.1,3.65v30.05a2.57,2.57,0,0,1-3.1,2.68l-32-5.54a3.91,3.91,0,0,1-3-3.63Z"/><path class="cls-1" d="M223.35,455l33-3.88c8.16-.93,14.9-8.38,14.9-16.53V404.74c0-8.15-6.74-14-14.9-13.13l-33,3.77c-8.27.93-15,8.31-15,16.55v29.78c0,8.32,6.76,14.15,15,13.33m-2.56-44.62a3.54,3.54,0,0,1,3.05-3.48l32-3.65a2.66,2.66,0,0,1,3,2.78v30a3.57,3.57,0,0,1-3,3.5l-32,3.71a2.74,2.74,0,0,1-3.05-2.94Z"/><polygon class="cls-1" points="160.27 417.19 160.27 459.84 155.34 465.68 177.63 461.6 172.59 457.54 172.59 414.84 193.05 411.42 197.9 415.46 197.9 398.7 135.01 409.94 135.01 426.51 139.91 420.82 160.27 417.19"/><polygon class="cls-1" points="546.78 403.91 546.78 446.69 541.87 451.03 564.01 453.45 559.18 448.02 559.18 405.32 579.52 407.52 584.41 413.03 584.41 396.31 521.51 389.54 521.51 406.21 526.39 401.75 546.78 403.91"/><polygon class="cls-1" points="438.3 444.69 460.61 445.43 455.55 440.19 455.55 402.15 490.3 446.89 511.04 448.27 506.21 443.31 506.21 393.36 511.04 388.71 488.88 387.08 493.83 392.34 493.83 430.86 459.18 385.76 438.3 385.02 443.18 390.24 443.18 439.92 438.3 444.69"/><path class="cls-1" d="M281.74,449l22.2-1.71L299,442.71V429.55l35.11-1.87a2.85,2.85,0,0,1,3.13,2.94v9.85l-4.9,5.2,22.11-.74-4.83-4.74v-9.47a10.49,10.49,0,0,0-7.14-10.06,12.27,12.27,0,0,0,7.14-10.73v-9.85a13.94,13.94,0,0,0-15-14l-52.91,3.25,4.93,4.59v49.87ZM299,399.64l35.11-1.95a2.89,2.89,0,0,1,3.13,3v11.88a3.54,3.54,0,0,1-3.13,3.45L299,417.92Z"/><path class="cls-2" d="M273.36,320.88c-9.1.9-18.15,1.73-27.33,2.56l-26.3,34.06c16.52-2.23,34.38-4.09,53.63-5.7Z"/><path class="cls-2" d="M211.44,524c5.43,40.11,61.92,79.8,61.92,79.8V493.64c-22.53,2-43.08,4.37-61.92,7.1Z"/><path class="cls-2" d="M284.1,662a352.19,352.19,0,0,0,41.75,25.38l25-20.72A396.24,396.24,0,0,1,284.1,631Z"/><path class="cls-2" d="M553.94,323.44c-9.14-.83-18.26-1.66-27.33-2.56V351.8c19.25,1.62,37.09,3.47,53.58,5.71Z"/><path class="cls-2" d="M526.61,603.78s56.54-39.69,61.93-79.8V500.74c-18.78-2.71-39.33-5.14-61.93-7.11Z"/><path class="cls-2" d="M474.2,687.37A357.93,357.93,0,0,0,515.9,662V631a395.33,395.33,0,0,1-66.72,35.64Z"/><path class="cls-2" d="M384.39,406.27a3.25,3.25,0,0,1,3.2-3.22h24v-3H384.31a3,3,0,0,0-3.06,3v25.62h3.14Z"/><path class="cls-2" d="M431.82,399.19V429.3A18.91,18.91,0,0,1,413,448.12H380a17.1,17.1,0,0,1-2.3-.1,14.69,14.69,0,0,0,9.32,3.29h29.14A18.88,18.88,0,0,0,435,432.48V406.29a13.92,13.92,0,0,0-3.34-9.16c0,.56.12,1.36.12,2.06"/><path class="cls-2" d="M614.41,422.58a2.5,2.5,0,0,1,3.06-2.46l24.07,4.08v-3.14l-27.29-4.75a2.57,2.57,0,0,0-3.08,2.55v25.42l3.24.52Z"/><path class="cls-2" d="M661.58,421.45a7.77,7.77,0,0,1,.24,2.37v29.74c0,10.31-8.55,17.43-19,15.63l-33-5.51c-.77-.25-1.46-.45-2.23-.69a17.23,17.23,0,0,0,9.35,4.92l29.12,5c10.41,1.82,18.87-5.2,18.87-15.39V431.44a17,17,0,0,0-3.39-10"/><path class="cls-2" d="M224.68,413.91v25.3l3.15-.29V416.79a3.51,3.51,0,0,1,3.17-3.48l24-2.75v-3.23l-27.24,3.09a3.62,3.62,0,0,0-3.09,3.49"/><path class="cls-2" d="M275.17,404.29v29.85c0,10.4-8.48,20-18.8,20.94l-33,3.89a19.66,19.66,0,0,1-2.32.09,13,13,0,0,0,9.43,2.2l29.1-3.23c10.5-1.19,18.89-10.59,18.89-20.95V411.22a13.69,13.69,0,0,0-3.31-9.07c0,.65,0,1.35,0,2.14"/><polygon class="cls-2" points="142.15 432.48 147.01 426.61 156.32 425 156.32 421.79 142.15 424.2 142.15 432.48"/><polygon class="cls-2" points="176.51 418.25 176.51 455.35 179.78 457.96 179.78 420.82 194.62 418.25 191.38 415.56 176.51 418.25"/><polygon class="cls-2" points="201.87 418.62 205.07 421.27 205.07 404.63 201.87 405.33 201.87 418.62"/><polygon class="cls-2" points="165.7 467.59 162.5 471.41 184.66 467.53 181.43 464.94 165.7 467.59"/><polygon class="cls-2" points="533.63 409.64 542.91 410.72 542.91 407.48 528.64 405.91 528.64 414.02 533.63 409.64"/><polygon class="cls-2" points="577.88 411.25 563.13 409.54 563.13 446.78 566.33 450.44 566.33 413.31 581.16 414.78 577.88 411.25"/><polygon class="cls-2" points="588.44 417.19 591.59 420.82 591.59 404.26 588.44 403.85 588.44 417.19"/><polygon class="cls-2" points="549.07 458.97 571.26 461.27 568.02 457.74 552.25 456.09 549.07 458.97"/><polygon class="cls-2" points="494.81 451.16 497.45 454.45 518.2 455.86 515.05 452.44 494.81 451.16"/><polygon class="cls-2" points="510.12 441.85 513.29 445.1 513.29 400.92 518.2 396.31 510.12 395.75 510.12 441.85"/><polygon class="cls-2" points="464.44 449.54 448.7 449.17 445.41 452.14 467.65 452.94 464.44 449.54"/><polygon class="cls-2" points="462.72 417.63 459.54 413.38 459.54 438.91 462.72 442.2 462.72 417.63"/><path class="cls-2" d="M356.74,441.46v-4a10.64,10.64,0,0,0-3.21-7.69v8.73Z"/><polygon class="cls-2" points="306.16 436.45 333.29 434.89 333.29 431.65 303 433.3 303 440.76 306.16 443.9 306.16 436.45"/><polygon class="cls-2" points="307.85 451.03 292.13 452.35 288.92 455.73 311.07 454.15 307.85 451.03"/><path class="cls-2" d="M349.33,420.22a26.07,26.07,0,0,1,1.62,2.07,12.09,12.09,0,0,0,5.79-10.14v-5.34a13.82,13.82,0,0,0-3.34-9.12,11.62,11.62,0,0,1,.13,2.19v9.66a16.2,16.2,0,0,1-4.2,10.68"/><polygon class="cls-2" points="306.16 406.29 333.29 404.74 333.29 401.7 303 403.29 303 413.69 306.16 413.47 306.16 406.29"/><polygon class="cls-2" points="342.67 449.12 339.49 452.44 361.7 451.64 358.51 448.57 342.67 449.12"/><path class="cls-3" d="M730.61,458.61V438.7s-11.85-2.6-31.72-6.26l-3.43,12.5,18.31,81.55L647.22,553c49.92,7,83.39,13.15,83.39,13.15V543.7l47.95-34.08Z"/><path class="cls-3" d="M104.55,444.93l-3.44-12.49c-19.92,3.66-31.68,6.27-31.68,6.27v19.9l-48,51,48,34.08v22.44S102.86,560,152.87,553L86.27,526.5Z"/><path class="cls-3" d="M197.62,247.31c33.78-4.66,106-13.4,186.69-14.33l-32.79-24c-99.72,3.75-178.59,16.95-178.59,16.95V364.38c7.72-1.32,15.94-2.75,24.69-3.93Z"/><path class="cls-3" d="M627.07,364.37V225.92s-79-13.21-178.6-16.95l-32.84,24c80.67.93,152.89,9.67,186.83,14.33V360.45c8.67,1.18,16.94,2.61,24.61,3.92"/><path class="cls-3" d="M602.47,553.59c0,106.84-166.7,167-202.48,178.62-35.86-11.59-202.37-71.78-202.37-178.62v-50.9c-8.75,1.22-17,2.66-24.7,4.11v46.79C172.92,693,400,758.12,400,758.12S627.08,693,627.08,553.59V506.8c-7.68-1.45-16-2.89-24.61-4.11Z"/><path class="cls-3" d="M400,229.71l44.29-32.26c101.65,3.51,182.8,17.35,182.8,17.35V191.94s-49.2-8.32-119.12-13.63L522.19,133l-39.77-28.84L476.9,87.39,445.58,110l11.91-36.88H439.84L400,44.28,360.13,73.16H342.49l12,36.88L323.1,87.39l-5.58,16.79L277.84,133,292,178.31c-69.88,5.31-119.07,13.63-119.07,13.63V214.8S254.08,201,355.66,197.45Zm68.07-108.24,27.85,20.05-11.4,35-33.46-1.71L440.2,141.52ZM400,72l27.81,20-10.63,32.66H382.71L372.13,92.08Zm-17.28,77.08h34.46l10.63,32.63L400,201.9l-27.86-20.16Zm-67.27,27.44-11.33-35L332,121.47l27.76,20.05-10.85,33.32Z"/><path class="cls-3" d="M610.31,448l32,5.54a2.57,2.57,0,0,0,3.1-2.68V420.83a3.87,3.87,0,0,0-3.1-3.64l-32-5.44a2.44,2.44,0,0,0-3,2.5V444.4a3.89,3.89,0,0,0,3,3.62m.86-29.16a2.59,2.59,0,0,1,3.08-2.56l27.28,4.76v3.13l-24.06-4.06a2.48,2.48,0,0,0-3.05,2.46v22.2l-3.25-.51Z"/><path class="cls-3" d="M102.15,509.62S216.48,476.27,400,476.27,697.9,509.62,697.9,509.62l-14.6-65,14.6-53S583.48,358.25,400,358.25s-297.84,33.36-297.84,33.36l14.56,53Zm40-77.14V424.2l14.17-2.41V425L147,426.61Zm20.33,38.93,3.21-3.82L181.45,465l3.21,2.58Zm17.29-50.58V458l-3.25-2.61v-37.1l14.87-2.69,3.23,2.69Zm109.15,34.9,3.21-3.38L307.85,451l3.22,3.12Zm17.24-11.83L303,440.75V433.3l30.3-1.65v3.24l-27.13,1.56Zm139.25,8.24,3.29-3,15.74.37,3.21,3.4Zm17.31-9.94-3.18-3.28V413.38l3.18,4.25Zm34.73,12.25-2.64-3.29,20.24,1.28,3.15,3.42ZM528.65,414v-8.11l14.26,1.57v3.24l-9.27-1.08Zm20.42,45,3.18-2.9L568,457.75l3.23,3.52Zm17.26-45.67v37.12l-3.2-3.64V409.55l14.74,1.7,3.29,3.53ZM665,431.44v26.05c0,10.19-8.44,17.21-18.85,15.39l-29.12-5a17.25,17.25,0,0,1-9.36-4.93c.79.25,1.47.45,2.23.7l33,5.51c10.45,1.8,19-5.32,19-15.64V423.82a7.77,7.77,0,0,0-.24-2.37,16.92,16.92,0,0,1,3.37,10m-70.09-19c0-8.34,6.78-13.84,15-12.36l33,5.54c8.3,1.36,15,9.2,15,17.43v29.78c0,8.21-6.74,13.92-15,12.5l-33-5.6a18.57,18.57,0,0,1-15-17.67Zm-6.42-8.55,3.15.41v16.57l-3.15-3.64Zm-66.93-14.31,62.9,6.77V413l-4.89-5.51-20.34-2.2V448l4.83,5.44L541.86,451l4.93-4.34V403.91l-20.4-2.17-4.88,4.47Zm-8.22,11.38V445.1l-3.17-3.25V395.76l8.08.55Zm-75-15.9,20.89.74,34.65,45.1V392.34l-4.95-5.25,22.17,1.63-4.83,4.64v49.95l4.83,4.95-20.77-1.37-34.73-44.74v38l5,5.25-22.3-.73,4.88-4.78V390.24ZM435,406.29v26.19a18.89,18.89,0,0,1-18.91,18.84H387a14.65,14.65,0,0,1-9.32-3.31,17.1,17.1,0,0,0,2.3.1h33a18.9,18.9,0,0,0,18.87-18.81V399.19c0-.7-.12-1.5-.12-2.05a13.88,13.88,0,0,1,3.34,9.15m-70.13-7.1a15.11,15.11,0,0,1,15.06-15h33a15.06,15.06,0,0,1,14.89,15V429.3a15.08,15.08,0,0,1-14.89,15H380a15.13,15.13,0,0,1-15.06-15Zm-3.2,52.46-22.22.79,3.18-3.32,15.84-.56Zm-8.18-21.91a10.66,10.66,0,0,1,3.21,7.69v4l-3.21-3v-8.73Zm3.21-22.93v5.34A12.09,12.09,0,0,1,351,422.29a24.38,24.38,0,0,0-1.62-2.07,16.2,16.2,0,0,0,4.2-10.67v-9.67a11.62,11.62,0,0,0-.13-2.19,13.82,13.82,0,0,1,3.34,9.12m-75-17.52,52.92-3.23a13.92,13.92,0,0,1,15,14v9.86a12.26,12.26,0,0,1-7.13,10.72,10.48,10.48,0,0,1,7.13,10.06v9.46l4.84,4.75-22.11.75,4.91-5.21v-9.85a2.87,2.87,0,0,0-3.15-2.94L299,429.55v13.17l4.93,4.57L281.73,449l4.94-5.24V393.89Zm-3.28,21.93v25.86c0,10.36-8.39,19.77-18.89,20.95l-29.1,3.24a13.12,13.12,0,0,1-9.43-2.21,21.81,21.81,0,0,0,2.31-.08l33-3.9c10.32-.93,18.8-10.53,18.8-20.95V404.29c0-.79,0-1.49,0-2.14a13.68,13.68,0,0,1,3.3,9.07m-70.13.71c0-8.24,6.76-15.62,15-16.55l33-3.77c8.16-.84,14.9,5,14.9,13.13v29.89c0,8.15-6.74,15.6-14.9,16.53l-33,3.89c-8.26.81-15-5-15-13.35Zm-6.45-6.61,3.2-.69v16.64l-3.2-2.65ZM135,409.94,197.9,398.7v16.76l-4.85-4-20.46,3.42v42.7l5,4.06-22.29,4.08,4.93-5.84V417.19l-20.37,3.64L135,426.51Z"/><path class="cls-3" d="M337.26,412.56V400.67a2.91,2.91,0,0,0-3.15-3L299,399.64v18.29L334.11,416a3.56,3.56,0,0,0,3.15-3.45m-4-7.82-27.13,1.55v7.18l-3.17.22V403.27l30.3-1.57Z"/><path class="cls-3" d="M223.84,443.31l32-3.71a3.57,3.57,0,0,0,3-3.5v-30a2.68,2.68,0,0,0-3-2.8l-32,3.66a3.56,3.56,0,0,0-3.05,3.49v29.95a2.74,2.74,0,0,0,3.05,2.94m.84-29.4a3.62,3.62,0,0,1,3.09-3.49L255,407.33v3.23l-24,2.75a3.51,3.51,0,0,0-3.17,3.48v22.13l-3.15.29Z"/><path class="cls-3" d="M380.45,432.48h31.91a3.23,3.23,0,0,0,3.27-3.12V399.07a3.14,3.14,0,0,0-3.27-3H380.45a3,3,0,0,0-3.11,3v30.29a3.12,3.12,0,0,0,3.11,3.12m.8-29.45a3,3,0,0,1,3.06-3h27.32v3h-24a3.25,3.25,0,0,0-3.2,3.22v22.38h-3.14Z"/><polygon class="cls-3" points="337.72 528.78 341.08 530.99 341.08 520.89 294.41 520.89 297.51 523.62 297.51 552.11 294.41 554.91 310.29 554.91 307.09 552.11 307.09 541.76 333.04 541.76 333.04 534.09 307.09 534.09 307.09 528.78 337.72 528.78"/><path class="cls-3" d="M473.16,528.79h28.11l3.43,2.2V520.9H473.1c-7.34,0-13.4,4.78-13.4,10.72v12.63c0,5.91,6.06,10.66,13.4,10.66h31.6V547H473.16c-2.09,0-3.75-1.33-3.75-2.79V531.62c0-1.68,1.66-2.83,3.75-2.83"/><path class="cls-4" d="M638.91,508.83v34.7l56.15-22.3c-12.59-3.36-31.49-7.68-56.15-12.4"/><path class="cls-4" d="M161.1,543.53v-34.7c-24.67,4.72-43.56,9-56.21,12.4Z"/><path class="cls-4" d="M211.84,561.28c3.15,37.09,29.3,68.2,61.52,92.89v-30.5c-34-24.71-52.49-48.25-61.52-62.39"/><path class="cls-4" d="M526.61,623.67v30.51c32.3-24.69,58.34-55.82,61.61-92.9-9.08,14.13-27.55,37.67-61.61,62.39"/><path class="cls-4" d="M211.44,258.68v86.19l22.08-31.29c33.55-3.91,78.72-8,128.58-9.5v42.85c12.22-.25,24.88-.44,37.89-.44s25.61.19,37.88.44V304.08c49.8,1.51,95,5.59,128.7,9.5l22,31.29V258.68C547.24,253.29,476.86,246,400,246s-147.2,7.32-188.55,12.71"/><path class="cls-4" d="M437.87,488.51q-18.4-.4-37.86-.38c-13,0-25.59.11-37.91.38V672l-25.32,21A533.52,533.52,0,0,0,400,719.55a570.7,570.7,0,0,0,63.25-26.5l-25.39-21Z"/></g></svg>