<svg id="Layer_1" data-name="Layer 1" xmlns="http://www.w3.org/2000/svg" viewBox="0 0 800 800"><defs><style>.cls-1{fill:#98989a;}.cls-2{fill:#12284c;}.cls-3{fill:#8ab7e9;}.cls-4{fill:#fff;}</style></defs><title>VAN-Logo</title><g id="VAN-Logo"><path class="cls-1" d="M400,18.42l68.5,114.64L502,77,696,401.52,504.78,721.37l-34.41-57.56L400,781.56,329.61,663.81,295.2,721.37,104.05,401.52,298,77l33.52,56.05L400,18.42M400,0l-8.12,13.6-60.4,101.05L306.07,72.16,298,58.56l-8.11,13.6L95.93,396.66,93,401.52l2.9,4.82L287.09,726.21l8.11,13.58,8.11-13.58,26.3-44,62.25,104.18L400,800l8.12-13.57,62.28-104.2,26.3,44,8.13,13.55,8.09-13.55,191.18-319.9,2.9-4.82-2.9-4.86-194-324.5L502,58.59l-8.12,13.57L468.5,114.65,408.11,13.6,400,0Z"/><polygon class="cls-2" points="329.61 663.81 399.97 781.56 470.37 663.81 504.78 721.37 695.95 401.52 502.01 77 468.5 133.06 400 18.42 331.48 133.06 297.96 77 104.05 401.52 295.2 721.37 329.61 663.81"/><path class="cls-3" d="M596.07,456.55,504.78,609.26l-8.38-14.07-21.52,36,29.9,50L639.06,456.55ZM295.2,609.26,204,456.55h-43L295.2,681.2l29.92-50-21.52-36ZM527.25,456.55,400,669.42,272.76,456.55h-43L400,741.38,570.25,456.55Z"/><path class="cls-4" d="M161,346.45h41.85L298,187.25l8.18,13.65,20.93-35L298,117.2ZM502,117.2,472.9,165.89l21,35L502,187.25l95.15,159.2H639Z"/><polygon class="cls-4" points="300.59 295.01 400 128.66 499.42 295.01 541.3 295.01 400 58.59 258.72 295.01 300.59 295.01"/><path class="cls-4" d="M140.53,371h14.62l9.72,39H165l12.74-39h12.48L202.87,411H203L213.26,371h13.6l-17.8,60.85H197.11L183.7,389.72h-.19l-13.4,42.12H158.59Z"/><path class="cls-4" d="M233.32,371h13.42v22.69H272.8V371h13.41v60.85H272.8V405.56H246.74v26.28H233.32Z"/><path class="cls-4" d="M300.83,371h13.4v60.85h-13.4Z"/><path class="cls-4" d="M341.59,382.84H324.23V371h48.14v11.85H355v49H341.59Z"/><path class="cls-4" d="M382.85,371h41.37v12.39h-28v11.36h20.66V407.1H396.27v12.37h29.48v12.37h-42.9Z"/><path class="cls-4" d="M474.52,386.8c-2.67-3.17-6.54-5-11.53-5-10.14,0-17.63,8.26-17.63,19.6S452.85,421,462.56,421a14.55,14.55,0,0,0,12.55-6.54l11.18,8.34c-5.08,7.22-13.66,10.59-22,10.59-19,0-32.84-12.49-32.84-32s13.83-32,32.84-32c6.8,0,15.4,2.33,20.55,8.92Z"/><path class="cls-4" d="M513.89,371H525l26.5,60.85H536.34L531.09,419H507.43l-5.06,12.88H487.58Zm5.16,17.7-7.39,18.93h14.87Z"/><path class="cls-4" d="M557.51,371h22.61c12.65,0,23.12,4,23.12,18.49,0,14.26-9.72,18.66-22.51,18.66h-9.81v23.7H557.51Zm13.41,25.79h9c4.71,0,9.46-1.62,9.46-7.3,0-6.3-6.37-7.16-11.53-7.16h-6.88Z"/><path class="cls-4" d="M643.48,385.84c-2.15-2.73-6.46-4-9.72-4-3.78,0-9,1.7-9,6.27,0,11.09,28,4,28,25.28,0,13.59-10.92,20-23.48,20-7.81,0-14.7-2.31-20.45-7.64l9.53-10.5A14.92,14.92,0,0,0,630.07,421c4.37,0,9.28-2.06,9.28-6.37,0-11.16-28.56-5.14-28.56-25.44,0-13,11.28-19.77,23.23-19.77,6.87,0,13.49,1.79,18.65,6.34Z"/><path class="cls-4" d="M350.74,456.2h40.84v12.37H364.16V481h19.62v12.4H364.16v23.72H350.74Z"/><path class="cls-4" d="M436.72,472c-2.66-3.17-6.54-5-11.53-5-10.13,0-17.62,8.26-17.62,19.59s7.49,19.62,17.19,19.62a14.61,14.61,0,0,0,12.57-6.56l11.17,8.36c-5.07,7.23-13.67,10.57-22,10.57-19,0-32.85-12.46-32.85-32s13.84-32,32.85-32c6.78,0,15.38,2.31,20.55,8.93Z"/><path class="cls-4" d="M244,311.88h8.75l8.6,22.79h.09l8.74-22.79h8.2L264,346.67h-6.15Z"/><path class="cls-4" d="M288.1,311.88h6.33l15.14,34.79h-8.64l-3-7.37H284.41l-2.88,7.37h-8.46ZM291.05,322l-4.23,10.81h8.51Z"/><path class="cls-4" d="M313.75,311.88h10.43L339,336.05h.11V311.88h7.67v34.79h-10l-15.19-24.76h-.09v24.76h-7.67Z"/><path class="cls-4" d="M377,320.9a8.25,8.25,0,0,0-6.58-2.82c-5.8,0-10.07,4.69-10.07,11.18s4.27,11.22,9.82,11.22a8.32,8.32,0,0,0,7.18-3.74l6.39,4.77c-2.89,4.13-7.83,6.05-12.58,6.05-10.86,0-18.77-7.13-18.77-18.3S360.25,311,371.11,311c3.87,0,8.79,1.3,11.74,5.11Z"/><path class="cls-4" d="M404.9,311c10.86,0,18.77,7.1,18.77,18.26s-7.91,18.3-18.77,18.3-18.76-7.13-18.76-18.3S394,311,404.9,311Zm0,29.48c6.52,0,10.81-4.72,10.81-11.22s-4.29-11.18-10.81-11.18-10.8,4.69-10.8,11.18S398.37,340.48,404.9,340.48Z"/><path class="cls-4" d="M459.49,333.25c0,8.21-5,14.31-14.66,14.31s-14.69-6.1-14.69-14.31V311.88h7.67V333c0,4.28,2.95,7.53,7,7.53s7-3.25,7-7.53V311.88h7.68Z"/><path class="cls-4" d="M463.72,311.88h8.77l8.58,22.79h.11l8.74-22.79h8.2l-14.34,34.79h-6.14Z"/><path class="cls-4" d="M502.74,311.88h23.64V319h-16v6.49h15.09v7.06H510.4v7.08h16.86v7.08H502.74Z"/><path class="cls-4" d="M534.08,311.88h13.44c7.15,0,13.14,2.46,13.14,10.57,0,4.85-2.61,8.63-7.53,9.52l8.86,14.7h-9.2l-7.27-13.91h-3.78v13.91h-7.66Zm7.66,14.38h4.54c2.77,0,6.41-.09,6.41-3.86,0-3.49-3.15-4-5.94-4h-5Z"/></g></svg>